<svg xmlns="http://www.w3.org/2000/svg" aria-hidden="true" style="position:absolute;width:0;height:0;overflow:hidden">
  <defs>
    <symbol id="icon-facebook" viewBox="0 0 31 32">
      <path fill="#fff" d="M17.795.763c-1.04.165-1.694.364-2.523.773-2.31 1.137-3.721 3.262-4.03 6.071-.03.278-.055 1.161-.055 1.962v1.456l-1.704.016c-1.527.014-1.722.025-1.876.109-.265.144-.578.449-.703.683-.112.21-.113.235-.113 3.021 0 2.799.001 2.811.115 3.025.151.282.532.613.837.727.208.077.485.094 1.844.112l1.6.022v5.613c0 5.534.002 5.617.107 5.899.078.207.185.357.393.547.467.427.407.42 3.54.42 2.65 0 2.728-.003 3.017-.111a1.57 1.57 0 0 0 .855-.779l.004-.009.123-.272.028-11.317 1.703-.001c2.255 0 2.512-.046 2.96-.532.414-.449.409-.407.409-3.318 0-2.925.002-2.913-.379-3.336-.451-.502-.372-.487-2.678-.504l-2.016-.016V9.817c0-1.274.034-1.529.212-1.64.182-.114.928-.164 2.446-.165l1.435-.001.318-.159c.337-.169.516-.345.702-.694.112-.211.115-.251.13-2.718.014-2.409.011-2.514-.091-2.786a1.647 1.647 0 0 0-.744-.818l-.009-.004C23.44.731 23.348.727 20.68.734c-1.515.004-2.813.016-2.885.028zM22.21 2.48l.477.034v3.721l-1.6.024c-1.249.019-1.662.042-1.879.106-.933.273-1.462.804-1.712 1.715-.076.276-.089.592-.09 2.146-.001 1.747.004 1.829.108 2.029.06.115.208.279.33.364l.221.156 4.414.029v4.105l-4.414.029-.221.156c-.122.086-.27.25-.33.364-.108.207-.108.239-.123 6.101l-.014 5.893-4.343-.027-.026-5.932-.027-5.932-.119-.191a.967.967 0 0 0-.388-.325l-.268-.133H8.585v-4.111h1.787c1.193 0 1.847-.02 1.964-.059.243-.081.56-.396.619-.616.027-.101.059-1.12.071-2.265.017-1.59.042-2.194.105-2.558.35-2.014 1.423-3.475 3.131-4.264.538-.249 1.481-.482 2.157-.535.684-.054 3.155-.069 3.79-.023z" style="fill:var(--color1, #fff)"/>
    </symbol>
    <symbol id="icon-tool" viewBox="0 0 33 32">
      <path d="M12.236 3.121c-1.276.147-3.02.725-3.467 1.15-.32.304-.407.701-.222 1.014.052.087 1.389 1.401 2.973 2.921 2.624 2.517 2.877 2.776 2.849 2.91l-.234 1.12-.203.973-2.335.461-2.838-2.795C7.198 9.338 5.847 8.043 5.755 7.997c-.647-.324-1.03-.071-1.472.971-.618 1.458-.855 2.86-.732 4.33.174 2.074.81 3.701 2.064 5.274 1.262 1.583 2.955 2.705 4.952 3.28a9.92 9.92 0 0 0 6.005-.165l.639-.22.863.854c2.349 2.322 5.851 5.715 6.111 5.921.642.507 1.402.757 2.288.752 1.008-.006 1.842-.363 2.583-1.105a3.527 3.527 0 0 0 .452-4.436c-.115-.174-1.164-1.245-2.439-2.491a1964.922 1964.922 0 0 1-3.792-3.713l.319.312-1.236-1.215.14-.373c.435-1.155.599-2.083.601-3.404.001-1.189-.102-1.845-.464-2.948-.99-3.014-3.583-5.42-6.72-6.233-1.14-.296-2.551-.398-3.683-.268zm2.781 1.932c1.623.334 2.974 1.085 4.167 2.318 1.82 1.882 2.521 4.55 1.869 7.12-.073.288-.272.853-.442 1.256s-.31.767-.31.807c0 .329.205.547 3.719 3.97 1.947 1.896 3.657 3.589 3.801 3.761.312.375.434.699.434 1.157 0 .416-.217.906-.536 1.21-.538.514-1.385.667-2.032.368-.353-.163-.379-.187-4.933-4.632-1.566-1.529-2.903-2.811-2.971-2.848-.235-.13-.566-.085-1.104.153-2.904 1.278-6.314.8-8.629-1.21-2.16-1.876-3.118-4.735-2.512-7.498.047-.215.109-.428.137-.473.041-.064.426.29 1.791 1.643 3.271 3.244 3.384 3.35 3.627 3.395.288.053 3.666-.592 4.035-.772a.892.892 0 0 0 .352-.3c.112-.195.817-3.52.817-3.849 0-.11-.043-.281-.097-.379s-1.218-1.255-2.587-2.57c-1.37-1.316-2.496-2.41-2.503-2.434-.015-.049.666-.217 1.183-.291.572-.083 2.113-.027 2.726.099z"/>
    </symbol>
    <symbol id="icon-clock" viewBox="0 0 33 32">
      <path d="M15.212 3.179c-1.544.174-3.133.666-4.589 1.419-3.905 2.021-6.473 5.74-6.957 10.08-.095.855-.037 2.587.116 3.453.84 4.754 4.257 8.631 8.924 10.124 1.394.446 2.567.625 4.091.625 2.25 0 4.135-.452 6.139-1.473 3.284-1.674 5.751-4.729 6.65-8.234.322-1.256.363-1.616.363-3.184s-.041-1.927-.363-3.184c-1.324-5.164-5.865-9.031-11.314-9.636-.602-.067-2.439-.062-3.059.008zm3.226 1.861c1.96.265 3.807 1.042 5.451 2.294.501.382 1.498 1.368 1.891 1.871 1.584 2.028 2.364 4.265 2.364 6.785s-.777 4.752-2.363 6.786c-.439.563-1.471 1.563-2.086 2.021-2.177 1.625-5.045 2.458-7.717 2.241-2.814-.227-5.214-1.298-7.181-3.204-2.191-2.123-3.345-4.829-3.345-7.845 0-3.723 1.821-7.065 5.006-9.189 2.281-1.52 5.122-2.148 7.982-1.762zM16.5 8.452c-.338.066-.531.302-.598.73-.035.222-.05 1.642-.04 3.696.013 2.725.031 3.361.094 3.474.179.32 2.817 4.159 2.972 4.323.367.391.824.357 1.275-.094.229-.229.264-.294.264-.491 0-.125-.024-.29-.053-.368s-.642-1.003-1.363-2.056l-1.309-1.915v-3.168c0-1.904-.022-3.286-.056-3.465-.053-.281-.198-.507-.389-.607-.138-.072-.57-.104-.797-.059z"/>
    </symbol>
    <symbol id="icon-speed" viewBox="0 0 33 32">
      <path d="M15.36 4.451c-4.642.45-8.63 3.156-10.654 7.229-.63 1.268-.931 2.22-1.213 3.838-.1.572-.099 3.053.001 3.615.587 3.29 1.968 5.767 4.392 7.877.309.269.602.475.73.513.155.047 2.308.064 7.98.064 6.811 0 7.793-.011 7.97-.085.279-.117.835-.582 1.504-1.261 1.056-1.07 1.706-1.987 2.38-3.355a12.758 12.758 0 0 0 1.176-3.618c.14-.799.141-3.103.003-3.907-.493-2.859-1.757-5.268-3.802-7.242-1.993-1.925-4.494-3.151-7.269-3.563-.85-.127-2.441-.179-3.198-.106zm2.299 1.836c1.46.132 2.8.527 4.013 1.137l-.064-.029c1.259.614 2.214 1.288 3.116 2.198 1.604 1.619 2.646 3.623 3.066 5.896.116.629.16 2.214.082 2.951a11.088 11.088 0 0 1-3.483 6.907l-.438.403H9.19l-.534-.505a11.147 11.147 0 0 1-3.226-5.733l-.013-.073c-.262-1.249-.247-3.026.038-4.416.513-2.503 2.111-4.974 4.213-6.518a11.588 11.588 0 0 1 7.991-2.219zm4.114 4.787c-.093.026-.235.117-.317.202s-1.12 1.578-2.307 3.317l-2.16 3.162-.443.01a2.791 2.791 0 0 0-.722.107c-1.516.528-2.016 2.432-.943 3.591.543.586 1.307.866 2.022.74 1.188-.209 2.018-1.206 1.936-2.325a2.746 2.746 0 0 0-.178-.768l.006.019-.143-.353.147-.223c.08-.123 1.057-1.557 2.17-3.186s2.047-3.026 2.077-3.104c.108-.284.066-.562-.117-.77-.314-.358-.688-.509-1.027-.416z"/>
    </symbol>
    <symbol id="icon-instagram" viewBox="0 0 31 32">
      <path fill="#fff" d="M22.769.747H8.451C3.791.747 0 4.456 0 9.015v14.008c0 4.559 3.791 8.268 8.451 8.268h14.318c4.66 0 8.451-3.709 8.451-8.268V9.015c0-4.559-3.791-8.268-8.451-8.268zm6.62 22.276c0 3.571-2.97 6.477-6.621 6.477H8.45c-3.651 0-6.621-2.906-6.621-6.477V9.015c0-3.572 2.97-6.477 6.621-6.477h14.318c3.65 0 6.62 2.906 6.62 6.477v14.008z" style="fill:var(--color1, #fff)"/>
      <path fill="#fff" d="M15.61 7.667c-4.707 0-8.536 3.746-8.536 8.352s3.829 8.352 8.536 8.352c4.707 0 8.536-3.746 8.536-8.352s-3.829-8.352-8.536-8.352zm0 14.912c-3.698 0-6.706-2.943-6.706-6.561s3.008-6.561 6.706-6.561c3.698 0 6.706 2.943 6.706 6.561s-3.008 6.561-6.706 6.561zM24.35 4.701c-1.391 0-2.522 1.107-2.522 2.468s1.131 2.468 2.522 2.468c1.391 0 2.523-1.107 2.523-2.468s-1.132-2.468-2.523-2.468zm0 3.145c-.382 0-.692-.304-.692-.677s.311-.677.692-.677c.382 0 .692.304.692.677s-.311.677-.692.677z" style="fill:var(--color1, #fff)"/>
    </symbol>
    <symbol id="icon-whatsapp" viewBox="0 0 31 32">
      <path fill="#fff" d="M26.785 5.068C23.925 2.27 20.124.73 16.08.73h-.001c-2 0-3.95.379-5.793 1.126S6.79 3.684 5.375 5.068C2.516 7.866.941 11.585.941 15.542c0 2.359.582 4.704 1.684 6.793L.08 29.448a1.342 1.342 0 0 0 .332 1.423 1.408 1.408 0 0 0 1.455.325l7.27-2.489a15.452 15.452 0 0 0 6.944 1.648c4.044 0 7.846-1.541 10.705-4.338S31.22 19.5 31.22 15.543s-1.575-7.676-4.434-10.474zM25.49 24.749c-2.514 2.459-5.856 3.814-9.41 3.814a13.58 13.58 0 0 1-6.248-1.522 1.44 1.44 0 0 0-1.125-.085l-6.605 2.262 2.312-6.462c.129-.36.097-.762-.087-1.101a12.825 12.825 0 0 1-1.556-6.112c0-3.478 1.384-6.748 3.898-9.207s5.855-3.813 9.409-3.814h.001c3.555 0 6.897 1.354 9.411 3.814s3.898 5.729 3.898 9.207c0 3.478-1.384 6.748-3.898 9.207z" style="fill:var(--color1, #fff)"/>
      <path fill="#fff" d="M21.706 16.865a1.817 1.817 0 0 0-2.526 0l-.762.745a10.975 10.975 0 0 1-4.453-4.356l.762-.745a1.723 1.723 0 0 0 0-2.472l-2.053-2.008a1.817 1.817 0 0 0-2.526 0L8.506 9.635c-.941.92-.987 2.502-.132 4.455.743 1.695 2.102 3.559 3.827 5.246s3.63 3.018 5.363 3.744c.948.398 1.811.596 2.556.596.823 0 1.504-.242 1.997-.725l1.642-1.606a1.719 1.719 0 0 0 0-2.472l-2.053-2.009zm-.884 4.82c-.268.263-1.094.355-2.537-.25-1.524-.639-3.225-1.834-4.789-3.364s-2.786-3.194-3.439-4.685c-.619-1.412-.524-2.22-.256-2.482l1.611-1.576 1.989 1.947-.953.933a1.346 1.346 0 0 0-.259 1.592 12.782 12.782 0 0 0 5.674 5.551 1.42 1.42 0 0 0 1.627-.253l.953-.933 1.99 1.947-1.611 1.576z" style="fill:var(--color1, #fff)"/>
    </symbol>
    <symbol id="icon-check" viewBox="0 0 37 32">
      <path fill="none" stroke="#fff" stroke-width="4.571" d="m4.571 16 9.143 9.143L34.285 4.572" style="stroke:var(--color1, #fff)"/>
    </symbol>
    <symbol id="icon-feedback-icon" viewBox="0 0 32 32">
<path fill="#5f0a61" style="fill: var(--color1, #5f0a61)" opacity="0.9" d="M7.024 12.792c3.862 0 6.993 3.131 6.993 6.993s-3.131 6.993-6.993 6.993c-3.862 0-6.993-3.131-6.993-6.993l-0.031-0.999c0-7.724 6.262-13.986 13.986-13.986v3.996c-2.668 0-5.177 1.039-7.064 2.926-0.363 0.363-0.695 0.75-0.994 1.156 0.357-0.056 0.723-0.086 1.096-0.086zM25.007 12.792c3.862 0 6.993 3.131 6.993 6.993s-3.131 6.993-6.993 6.993c-3.862 0-6.993-3.131-6.993-6.993l-0.031-0.999c0-7.724 6.262-13.986 13.986-13.986v3.996c-2.668 0-5.177 1.039-7.064 2.926-0.363 0.363-0.695 0.75-0.994 1.156 0.357-0.056 0.723-0.086 1.096-0.086z"></path>
</symbol>
  </defs>
</svg>
