<svg width="251" height="229" viewBox="0 0 251 229" fill="none" xmlns="http://www.w3.org/2000/svg">
<g id="online-dating/bro">
<g id="Plants">
<path id="Vector" d="M11.0088 25.6534C12.9952 26.45 17.8524 26.3523 17.8577 26.3523C17.863 26.3523 16.7983 23.4198 16.7241 23.239C15.6542 21.1814 12.2801 17.7993 9.55219 18.1218C9.09688 18.1885 8.66192 18.343 8.27569 18.5752C7.88947 18.8075 7.56066 19.1123 7.31074 19.4697C7.06082 19.8271 6.89539 20.2292 6.82527 20.6496C6.75514 21.07 6.78189 21.4994 6.90376 21.9096C7.36459 23.6642 9.31384 24.9691 11.0088 25.6534Z" fill="#5F0A61"/>
<path id="Vector_2" d="M60.1638 26.6357C60.2062 26.6357 61.0484 23.6592 61.0801 23.4637C61.4191 21.2009 60.6405 16.6507 58.1457 15.5412C57.7263 15.3673 57.2719 15.2767 56.8121 15.2754C56.3523 15.2741 55.8973 15.362 55.4767 15.5334C55.0561 15.7049 54.6793 15.9561 54.3707 16.2706C54.0622 16.5852 53.8288 16.9561 53.6857 17.3593C53.0183 19.0553 53.8658 21.1373 54.8722 22.5645C56.0481 24.2457 60.1638 26.6357 60.1638 26.6357Z" fill="#5F0A61"/>
<path id="Vector_3" d="M74.6719 10.3852C71.9175 10.1115 68.6493 13.5962 67.6429 15.6782C67.5529 15.8591 66.5465 18.8209 66.5835 18.8209H66.6418C66.1121 19.3634 65.5824 19.9547 64.9786 20.6145C63.9192 21.8315 62.6956 23.2195 61.4986 24.8128C60.1819 26.5147 58.9756 28.2871 57.8861 30.1206C56.6516 32.1665 55.6199 34.311 54.8033 36.528C54.8033 36.5525 54.8033 36.5818 54.8033 36.6062C54.8033 35.8584 54.8033 33.7666 54.7609 33.6053C54.4431 31.3425 52.3879 27.1442 49.6654 26.6798C49.2094 26.6126 48.7433 26.635 48.2974 26.7456C47.8515 26.8561 47.4359 27.0523 47.0779 27.3213C46.7199 27.5903 46.4275 27.926 46.2198 28.3065C46.0121 28.687 45.8939 29.1036 45.8728 29.5292C45.7139 31.3278 47.1282 33.1264 48.5212 34.2603C50.0732 35.5408 54.3849 36.7822 54.7292 36.875C53.9555 39.1502 53.3468 41.4703 52.907 43.8201C52.6422 45.1836 52.4197 46.5668 52.2184 47.9597C52.2184 47.3097 52.2184 46.733 52.1814 46.6548C51.8636 44.3919 49.8084 40.1887 47.0858 39.7244C46.6315 39.6595 46.1674 39.6835 45.7238 39.7948C45.2802 39.9061 44.8669 40.1022 44.5108 40.3704C44.1546 40.6387 43.8636 40.973 43.6566 41.3517C43.4496 41.7305 43.3312 42.1452 43.3091 42.5689C43.1502 44.3675 44.5592 46.166 45.9576 47.2999C47.3559 48.4338 50.9737 49.5677 51.9271 49.8609C51.8583 50.3936 51.7788 50.9264 51.7099 51.4591C51.3762 54.025 51.0584 56.586 50.6506 59.0884C50.5129 59.9681 50.3381 60.8332 50.1686 61.6983C50.1686 61.1216 50.1686 60.6377 50.1368 60.5644C49.819 58.3015 47.7638 54.1032 45.0412 53.6389C44.5866 53.5724 44.122 53.5953 43.6777 53.7059C43.2334 53.8166 42.8194 54.0126 42.4628 54.2812C42.1063 54.5497 41.8153 54.8847 41.6088 55.2642C41.4023 55.6437 41.285 56.0591 41.2645 56.4834C41.1003 58.2771 42.5146 60.0805 43.913 61.2144C45.3113 62.3483 48.6113 63.3795 49.7395 63.7217C49.5382 64.6063 49.337 65.486 49.0986 66.3316C48.9238 66.9034 48.7914 67.4703 48.5689 68.0373C48.3464 68.6042 48.1769 69.1614 47.981 69.7137C47.5678 70.7693 47.1441 71.8592 46.7097 72.8807C46.4131 73.5943 46.1165 74.2638 45.8251 74.9432C45.9734 74.0684 46.2277 72.348 46.233 72.2014C46.2022 70.1931 45.6131 68.2259 44.5221 66.4879C44.5318 66.264 44.5176 66.0397 44.4797 65.8184C44.4216 65.4006 44.2695 64.9987 44.0333 64.6383C43.7971 64.2778 43.4819 63.9669 43.1079 63.7254C42.734 63.4838 42.3095 63.317 41.8616 63.2356C41.4137 63.1542 40.9524 63.1599 40.5071 63.2525C37.8586 63.9074 36.1372 68.2425 36.01 70.5201C36.01 70.6569 36.1001 72.1232 36.1742 73.0469C36.0418 72.5093 35.9147 71.9863 35.7717 71.434C35.4909 70.3441 35.1731 69.2591 34.8394 68.0959L34.3097 66.4049C34.1349 65.8379 33.8754 65.2612 33.6635 64.6796C33.1338 63.3453 32.5247 62.016 31.8838 60.6866C32.9167 60.4569 36.5821 59.5967 38.0546 58.5557C39.5272 57.5146 41.0738 55.8187 41.058 54.0152C41.0706 53.591 40.9863 53.1691 40.8105 52.777C40.6346 52.3849 40.3712 52.0314 40.0373 51.7395C39.7035 51.4476 39.3068 51.2239 38.873 51.083C38.4392 50.942 37.978 50.887 37.5196 50.9215C34.7653 51.1952 32.3764 55.242 31.8785 57.4804C31.8467 57.6173 31.6825 59.2594 31.6136 60.1587C31.2217 59.367 30.835 58.5703 30.406 57.7786C29.1771 55.4912 27.8529 53.2137 26.5445 50.9362C26.142 50.2373 25.7553 49.5383 25.358 48.8394C25.7288 48.7612 30.1252 47.8229 31.7567 46.6548C33.2239 45.6186 34.7759 43.9227 34.7653 42.1192C34.7771 41.6946 34.6921 41.2724 34.5157 40.8801C34.3393 40.4877 34.0754 40.134 33.7413 39.8418C33.4072 39.5496 33.0102 39.3255 32.5761 39.1841C32.142 39.0426 31.6806 38.9869 31.2217 39.0206C28.4726 39.2992 26.0837 43.346 25.5805 45.5795C25.5434 45.7457 25.3157 48.1063 25.2892 48.7124C24.3834 47.1777 23.5518 45.6577 22.7944 44.084C21.7442 41.9928 20.8418 39.8411 20.093 37.6423C20.2678 37.6081 24.8601 36.6649 26.5339 35.4528C27.9959 34.4118 29.5532 32.7158 29.5373 30.9124C29.5495 30.4861 29.4639 30.0623 29.2862 29.6688C29.1085 29.2752 28.8426 28.9207 28.506 28.6286C28.1694 28.3365 27.7697 28.1133 27.3331 27.9737C26.8965 27.8341 26.4328 27.7813 25.9725 27.8186C23.2181 28.0923 20.8292 32.1391 20.3313 34.3727C20.2995 34.5193 20.1194 36.3276 20.0559 37.178H19.897C19.2086 34.9403 18.7371 32.6505 18.488 30.3356C18.3344 29.0649 18.2655 27.8479 18.2232 26.6554C19.0866 26.5968 23.091 26.108 24.7383 25.1843C26.3856 24.2606 28.0912 22.7699 28.266 20.9762C28.3262 20.5567 28.2904 20.1302 28.1609 19.7243C28.0313 19.3184 27.8109 18.942 27.5139 18.6196C27.2168 18.2972 26.8498 18.0359 26.4365 17.8525C26.0232 17.6691 25.5728 17.5678 25.1144 17.555C22.3441 17.555 19.4891 21.333 18.7264 23.503C18.6893 23.6203 18.4086 24.8617 18.1967 25.7708C18.1967 25.2332 18.1649 24.6809 18.1649 24.1628C18.1649 22.2323 18.3026 20.463 18.435 18.8991C18.5145 18.0096 18.6098 17.2031 18.7052 16.4553C19.5103 15.9666 22.7096 13.8601 23.6948 12.3695C24.68 10.8788 25.4428 8.8163 24.7542 7.13991C24.6006 6.73939 24.3571 6.37329 24.0397 6.06551C23.7223 5.75772 23.3381 5.51519 22.9122 5.35375C22.4863 5.19231 22.0282 5.1156 21.568 5.12862C21.1077 5.14164 20.6557 5.2441 20.2413 5.42931C17.7835 6.60229 17.132 11.1672 17.5399 13.4203C17.5769 13.6158 18.5039 16.5971 18.5463 16.5726C18.5637 16.5632 18.5797 16.5517 18.5939 16.5384C18.488 17.2618 18.3821 18.034 18.2814 18.8844C18.1119 20.4484 17.9371 22.2176 17.8895 24.1579C17.8127 26.2477 17.8675 28.3398 18.0537 30.4236C18.2484 32.7571 18.6685 35.0699 19.309 37.3344C19.3114 37.3621 19.3114 37.3899 19.309 37.4175C18.9012 36.7724 17.6193 35.0422 17.4975 34.9054C15.9084 33.1801 11.6709 30.7266 9.10726 31.7237C8.68918 31.9006 8.31613 32.1567 8.01234 32.4754C7.70854 32.794 7.48081 33.1681 7.34393 33.5732C7.20705 33.9784 7.16409 34.4056 7.21784 34.8271C7.27159 35.2486 7.42085 35.6549 7.65592 36.0197C8.59876 37.5984 10.834 38.3803 12.6773 38.6247C14.7431 38.9033 19.076 37.745 19.4203 37.6472C20.1425 39.9384 21.0272 42.1834 22.0687 44.3675C22.6672 45.6382 23.3082 46.9089 23.9703 48.1699C23.5783 47.6323 23.2181 47.1582 23.1598 47.0995C21.5443 45.3694 17.3333 42.9159 14.7696 43.9129C14.3515 44.0898 13.9785 44.346 13.6747 44.6646C13.3709 44.9833 13.1432 45.3573 13.0063 45.7625C12.8694 46.1677 12.8264 46.5949 12.8802 47.0164C12.9339 47.4378 13.0832 47.8442 13.3183 48.209C14.2611 49.7925 16.4964 50.5696 18.3397 50.8189C20.183 51.0681 23.912 50.1444 24.8972 49.8902C25.1568 50.379 25.4269 50.8677 25.6706 51.3565C26.9259 53.6633 28.1919 55.9604 29.3784 58.2477C29.7862 59.0542 30.1623 59.8655 30.5384 60.6915C30.1835 60.2027 29.8816 59.8215 29.8339 59.7628C28.2131 58.0376 24.0073 55.5841 21.4384 56.5811C21.0203 56.7581 20.6472 57.0142 20.3434 57.3328C20.0396 57.6515 19.8119 58.0255 19.675 58.4307C19.5381 58.8359 19.4952 59.2631 19.5489 59.6846C19.6027 60.1061 19.752 60.5124 19.987 60.8772C20.9299 62.4558 23.1651 63.2378 25.0137 63.4822C26.8624 63.7266 30.2206 62.9006 31.37 62.6024C31.7249 63.4382 32.0851 64.2788 32.3923 65.1048C32.5883 65.6717 32.816 66.2045 32.9802 66.7861C33.1444 67.3677 33.3245 67.9249 33.5099 68.4869C33.796 69.5817 34.0926 70.7058 34.3415 71.7762C34.5216 72.519 34.6752 73.2424 34.8341 73.9462C34.4369 73.1397 33.6159 71.5758 33.5311 71.4536C32.2175 69.523 28.4461 66.5026 25.7606 67.1331C25.3204 67.2517 24.9121 67.4542 24.562 67.7275C24.2119 68.0009 23.9279 68.3389 23.7282 68.7198C23.5285 69.1007 23.4177 69.516 23.4028 69.9389C23.3879 70.3619 23.4694 70.7829 23.6419 71.175C24.3146 72.8709 26.4121 73.9559 28.1813 74.4545C30.1252 75.0067 34.4263 74.5033 34.9666 74.4545C35.2261 75.6372 35.4645 76.7955 35.671 77.8757C36.3861 81.6341 36.8311 84.7914 37.1118 87.02H38.9869C38.9869 86.9663 38.9869 86.9223 38.9869 86.8685C38.6532 84.6203 38.1235 81.4142 37.3025 77.5824C37.0482 76.3752 36.7463 75.0947 36.4232 73.7751C37.7201 73.2982 38.9848 72.7498 40.2105 72.1329C41.6247 73.5503 45.2584 75.2071 45.7298 75.4173C45.2319 76.5414 44.7393 77.6264 44.2573 78.643C42.6099 82.1424 41.0791 84.9967 40.0198 87.0054H42.0802C43.0972 85.0211 44.4003 82.377 45.7881 79.2344C46.3177 78.0956 46.8103 76.8737 47.3294 75.6128C47.8591 75.7105 52.0966 76.5121 54.0988 76.1015C55.8998 75.7252 58.0821 74.7868 58.866 73.1397C59.0705 72.7598 59.1858 72.3444 59.2044 71.9206C59.223 71.4968 59.1445 71.0742 58.974 70.6803C58.8036 70.2864 58.545 69.9301 58.2151 69.6347C57.8853 69.3392 57.4916 69.1114 57.0598 68.9659C54.4114 68.1497 50.4281 70.9208 48.9609 72.7341C48.8708 72.8465 48.0763 74.1172 47.5837 74.9285C47.7956 74.4105 48.0021 73.912 48.2087 73.3743C48.6325 72.3235 49.0138 71.2581 49.4323 70.1193L49.962 68.4283C50.158 67.8662 50.2851 67.2504 50.4546 66.659C50.8095 65.2759 51.1008 63.8585 51.3551 62.4216C52.3562 62.7588 55.9263 63.8878 57.7802 63.7852C59.6341 63.6826 61.9329 63.0423 62.9976 61.5321C63.2641 61.184 63.448 60.7878 63.5371 60.3695C63.6261 59.9513 63.6184 59.5204 63.5144 59.1051C63.4103 58.6898 63.2124 58.2994 62.9334 57.9596C62.6545 57.6199 62.3009 57.3383 61.8958 57.1334C59.4381 55.9604 55.0099 58.1109 53.2725 59.7286C53.1613 59.8313 52.0436 61.1167 51.4451 61.8302C51.5934 60.97 51.747 60.1099 51.8636 59.2301C52.2026 56.6984 52.4621 54.1228 52.7322 51.5569C52.817 50.77 52.9123 49.988 52.9971 49.206C53.352 49.3282 57.5683 50.7749 59.6394 50.6429C61.4827 50.5207 63.7921 49.9 64.8621 48.3849C65.1295 48.037 65.314 47.6409 65.4035 47.2225C65.4931 46.804 65.4855 46.3729 65.3814 45.9573C65.2774 45.5418 65.0791 45.1513 64.7997 44.8116C64.5203 44.4718 64.166 44.1906 63.7603 43.9862C61.2973 42.8132 56.8744 44.9637 55.137 46.5815C55.0046 46.7036 53.3996 48.5364 53.0183 49.0252C53.2196 47.295 53.4314 45.604 53.7175 43.8934C54.0888 41.6143 54.6196 39.3597 55.3065 37.1438C55.4707 37.2025 59.8618 38.7322 61.9806 38.6101C63.8239 38.4928 66.1333 37.8672 67.2033 36.357C67.4699 36.0088 67.6537 35.6127 67.7428 35.1944C67.8318 34.7761 67.8241 34.3452 67.7201 33.9299C67.616 33.5146 67.4181 33.1243 67.1391 32.7845C66.8602 32.4447 66.5066 32.1632 66.1015 31.9583C63.6385 30.7853 59.2156 32.9358 57.4782 34.5535C57.3617 34.661 56.1381 36.0686 55.5714 36.7528L55.4336 36.6844C56.1765 34.4877 57.1302 32.3565 58.2834 30.3161C58.9137 29.1822 59.5864 28.1265 60.2644 27.1148C61.0483 27.4765 64.6608 29.0698 66.5835 29.1676C68.5063 29.2653 70.821 28.845 72.0446 27.4521C72.3479 27.1333 72.5752 26.7593 72.7117 26.3542C72.8482 25.9492 72.8909 25.5222 72.8369 25.1009C72.783 24.6797 72.6336 24.2736 72.3986 23.9091C72.1635 23.5445 71.848 23.2297 71.4725 22.985C69.1631 21.5725 64.5231 23.2684 62.5897 24.6907C62.4838 24.7689 61.5303 25.6681 60.81 26.328C61.1225 25.8734 61.435 25.3993 61.7475 24.9741C62.9022 23.3613 64.0728 21.9537 65.1163 20.7172C65.7202 20.0183 66.2763 19.3927 66.806 18.816C67.7753 18.816 71.695 18.6889 73.4112 17.9509C75.1274 17.2129 76.9919 15.8737 77.3944 14.1094C77.505 13.6984 77.5208 13.2706 77.4409 12.8537C77.3609 12.4367 77.187 12.0399 76.9304 11.6888C76.6738 11.3378 76.3402 11.0404 75.9511 10.8158C75.562 10.5912 75.1262 10.4445 74.6719 10.3852Z" fill="#5F0A61"/>
<path id="Vector_4" d="M246.322 204.245C244.304 203.517 239.436 203.79 239.436 203.79C239.436 203.79 240.601 206.684 240.702 206.86C241.852 208.878 245.363 212.158 248.091 211.718C248.542 211.633 248.968 211.461 249.342 211.214C249.717 210.968 250.031 210.651 250.264 210.285C250.497 209.919 250.644 209.512 250.696 209.091C250.748 208.669 250.703 208.242 250.565 207.837C250.03 206.102 248.033 204.871 246.322 204.245Z" fill="#5F0A61"/>
<path id="Vector_5" d="M197.151 204.988C197.104 204.963 196.389 207.993 196.367 208.194C196.118 210.462 197.088 214.982 199.625 216.014C200.05 216.174 200.506 216.249 200.965 216.236C201.423 216.223 201.874 216.121 202.287 215.936C202.7 215.752 203.066 215.489 203.362 215.166C203.658 214.843 203.878 214.465 204.005 214.059C204.604 212.338 203.672 210.291 202.607 208.898C201.362 207.236 197.151 204.988 197.151 204.988Z" fill="#5F0A61"/>
<path id="Vector_6" d="M183.326 221.742C186.086 221.918 189.211 218.321 190.133 216.204C190.212 216.023 191.097 213.028 191.044 213.028H190.986C191.484 212.465 192.013 211.855 192.575 211.175C193.597 209.919 194.746 208.492 195.88 206.855C197.124 205.107 198.256 203.294 199.27 201.425C200.414 199.336 201.356 197.157 202.083 194.915C202.086 194.887 202.086 194.859 202.083 194.832C202.083 195.584 202.226 197.671 202.252 197.832C202.665 200.081 204.901 204.186 207.634 204.572C208.09 204.622 208.553 204.583 208.992 204.457C209.431 204.331 209.836 204.121 210.181 203.84C210.526 203.56 210.803 203.215 210.994 202.83C211.185 202.444 211.285 202.025 211.289 201.601C211.379 199.797 209.89 198.048 208.465 196.963C206.876 195.741 202.501 194.651 202.157 194.568C202.834 192.268 203.345 189.93 203.688 187.569C203.894 186.191 204.058 184.803 204.217 183.405C204.254 184.05 204.297 184.627 204.307 184.71C204.72 186.958 206.956 191.063 209.689 191.449C210.145 191.5 210.608 191.46 211.047 191.334C211.486 191.208 211.891 190.998 212.236 190.718C212.581 190.437 212.858 190.093 213.049 189.707C213.24 189.321 213.34 188.902 213.344 188.478C213.434 186.674 211.945 184.925 210.521 183.84C209.096 182.755 205.383 181.743 204.397 181.494C204.45 180.956 204.503 180.419 204.551 179.886C204.779 177.31 204.991 174.739 205.282 172.227C205.388 171.343 205.52 170.473 205.658 169.603C205.69 170.175 205.722 170.658 205.737 170.732C206.145 172.98 208.386 177.085 211.114 177.476C211.571 177.526 212.034 177.486 212.473 177.359C212.913 177.233 213.318 177.022 213.663 176.741C214.008 176.46 214.286 176.116 214.477 175.73C214.668 175.344 214.77 174.924 214.774 174.5C214.859 172.696 213.37 170.952 211.951 169.862C210.531 168.772 207.184 167.863 206.002 167.56C206.167 166.675 206.331 165.786 206.532 164.93C206.686 164.354 206.786 163.787 206.977 163.21C207.168 162.633 207.321 162.071 207.507 161.514C207.877 160.444 208.253 159.339 208.645 158.303C208.91 157.585 209.175 156.9 209.445 156.211C209.334 157.091 209.149 158.821 209.154 158.968C209.268 160.971 209.935 162.914 211.093 164.613C211.096 164.837 211.121 165.061 211.167 165.282C211.238 165.703 211.405 166.106 211.657 166.463C211.909 166.82 212.24 167.124 212.628 167.355C213.016 167.586 213.453 167.738 213.909 167.802C214.366 167.866 214.832 167.84 215.277 167.726C217.926 166.978 219.44 162.584 219.472 160.307C219.472 160.17 219.319 158.709 219.202 157.785C219.361 158.318 219.504 158.836 219.674 159.383C220.002 160.463 220.362 161.534 220.733 162.687C220.939 163.239 221.146 163.792 221.353 164.354C221.559 164.916 221.835 165.487 222.073 166.059C222.656 167.374 223.318 168.679 224.017 169.969C222.989 170.233 219.361 171.225 217.936 172.32C216.511 173.415 215.033 175.155 215.118 176.958C215.124 177.383 215.226 177.801 215.419 178.186C215.611 178.572 215.889 178.915 216.235 179.195C216.58 179.475 216.986 179.684 217.425 179.81C217.864 179.936 218.327 179.975 218.784 179.925C221.522 179.554 223.742 175.429 224.149 173.175C224.149 173.039 224.271 171.391 224.303 170.487C224.732 171.269 225.15 172.046 225.611 172.824C226.936 175.067 228.35 177.296 229.753 179.529C230.183 180.208 230.601 180.898 231.025 181.582C230.659 181.67 226.316 182.765 224.721 183.986C223.297 185.076 221.813 186.826 221.904 188.629C221.908 189.054 222.01 189.473 222.202 189.858C222.394 190.244 222.672 190.588 223.018 190.868C223.364 191.148 223.77 191.358 224.209 191.483C224.649 191.608 225.112 191.647 225.569 191.596C228.307 191.225 230.527 187.095 230.935 184.847C230.966 184.676 231.099 182.31 231.099 181.704C232.031 183.214 232.942 184.724 233.774 186.249C234.913 188.304 235.904 190.427 236.74 192.603C236.571 192.647 232.036 193.766 230.384 195.017C228.964 196.107 227.481 197.857 227.571 199.66C227.576 200.084 227.678 200.503 227.87 200.888C228.061 201.273 228.339 201.617 228.684 201.897C229.029 202.177 229.435 202.387 229.873 202.512C230.312 202.638 230.775 202.677 231.231 202.627C233.975 202.256 236.194 198.126 236.597 195.878C236.624 195.731 236.729 193.923 236.756 193.067H236.915C237.695 195.273 238.26 197.538 238.605 199.836C238.811 201.097 238.933 202.314 239.018 203.502C238.154 203.629 234.192 204.259 232.587 205.237C230.982 206.214 229.361 207.764 229.234 209.562C229.189 209.985 229.241 210.411 229.386 210.814C229.531 211.217 229.766 211.587 230.076 211.901C230.386 212.214 230.765 212.464 231.186 212.634C231.608 212.803 232.064 212.889 232.524 212.886C235.289 212.793 237.99 208.917 238.663 206.718C238.695 206.601 238.922 205.349 239.076 204.435C239.102 204.973 239.15 205.525 239.166 206.038C239.245 207.969 239.166 209.743 239.118 211.312C239.071 212.202 239.012 213.008 238.949 213.756C238.165 214.293 235.05 216.493 234.129 218.013C233.207 219.533 232.54 221.629 233.318 223.281C233.489 223.675 233.748 224.031 234.078 224.327C234.408 224.622 234.801 224.85 235.233 224.996C235.664 225.143 236.124 225.203 236.583 225.175C237.041 225.146 237.488 225.029 237.895 224.831C240.305 223.57 240.76 218.966 240.262 216.747C240.22 216.556 239.166 213.604 239.129 213.634C239.111 213.643 239.095 213.654 239.081 213.668C239.161 212.944 239.235 212.167 239.298 211.317C239.399 209.743 239.5 207.969 239.468 206.029C239.462 203.938 239.322 201.849 239.049 199.773C238.754 197.455 238.238 195.165 237.508 192.93L237.476 192.852C237.937 193.468 239.288 195.149 239.41 195.267C241.099 196.933 245.422 199.24 247.927 198.15C248.337 197.959 248.699 197.69 248.99 197.362C249.28 197.033 249.492 196.651 249.612 196.242C249.732 195.832 249.757 195.404 249.686 194.985C249.614 194.566 249.448 194.166 249.198 193.81C248.192 192.261 245.909 191.562 244.071 191.366C242 191.161 237.715 192.471 237.376 192.578C236.577 190.304 235.614 188.082 234.494 185.927C233.848 184.671 233.149 183.429 232.434 182.193C232.852 182.711 233.228 183.17 233.292 183.234C234.981 184.9 239.304 187.207 241.809 186.117C242.219 185.926 242.582 185.658 242.872 185.329C243.162 185 243.374 184.618 243.494 184.209C243.614 183.8 243.639 183.371 243.568 182.952C243.497 182.534 243.331 182.133 243.08 181.777C242.074 180.228 239.791 179.529 237.953 179.334C236.115 179.138 232.412 180.199 231.443 180.487C231.162 179.998 230.913 179.544 230.606 179.07C229.256 176.812 227.9 174.559 226.639 172.31C226.194 171.519 225.791 170.727 225.384 169.935C225.754 170.394 226.072 170.781 226.125 170.834C227.815 172.501 232.137 174.808 234.642 173.723C235.053 173.531 235.415 173.262 235.705 172.933C235.996 172.604 236.208 172.222 236.328 171.812C236.448 171.402 236.473 170.974 236.401 170.554C236.33 170.135 236.164 169.734 235.914 169.378C234.907 167.829 232.624 167.13 230.786 166.934C228.948 166.739 225.606 167.701 224.43 168.039C224.038 167.218 223.641 166.392 223.302 165.595C223.085 165.033 222.83 164.505 222.645 163.933L222.062 162.252C221.734 161.172 221.384 160.058 221.093 158.997C220.887 158.259 220.701 157.531 220.516 156.842C220.945 157.633 221.824 159.168 221.914 159.285C223.312 161.167 227.211 164.051 229.859 163.327C230.296 163.195 230.698 162.98 231.039 162.695C231.38 162.41 231.652 162.063 231.838 161.675C232.024 161.287 232.119 160.867 232.118 160.443C232.116 160.018 232.018 159.599 231.83 159.212C231.094 157.545 228.948 156.529 227.163 156.094C225.198 155.605 220.918 156.27 220.383 156.353C220.076 155.175 219.79 154.026 219.536 152.932C218.667 149.203 218.09 146.06 217.719 143.846L215.844 143.914C215.844 143.963 215.844 144.007 215.87 144.061C216.299 146.295 216.956 149.481 217.936 153.264C218.243 154.461 218.598 155.737 218.996 157.037C217.724 157.563 216.486 158.155 215.288 158.811C213.815 157.448 210.118 155.918 209.641 155.727C210.086 154.589 210.536 153.484 210.976 152.453C212.475 148.895 213.873 145.982 214.885 143.949L212.83 144.022C211.892 146.036 210.711 148.724 209.44 151.915C208.979 153.069 208.513 154.31 208.047 155.59C207.517 155.507 203.232 154.857 201.262 155.341C199.482 155.781 197.337 156.807 196.6 158.469C196.412 158.856 196.314 159.276 196.314 159.7C196.313 160.125 196.409 160.545 196.596 160.932C196.783 161.32 197.056 161.667 197.399 161.951C197.741 162.235 198.144 162.449 198.581 162.579C201.23 163.298 205.128 160.409 206.527 158.523C206.611 158.415 207.353 157.115 207.809 156.289C207.623 156.812 207.432 157.316 207.247 157.858C206.871 158.924 206.532 160.004 206.161 161.157C206.002 161.719 205.843 162.291 205.685 162.868C205.526 163.445 205.409 164.055 205.266 164.652C204.964 166.045 204.736 167.472 204.54 168.914C203.523 168.615 199.906 167.594 198.062 167.78C196.219 167.965 193.941 168.669 192.94 170.223C192.691 170.58 192.526 170.981 192.456 171.4C192.386 171.819 192.413 172.248 192.533 172.657C192.654 173.066 192.867 173.447 193.158 173.776C193.449 174.104 193.812 174.373 194.222 174.563C196.728 175.648 201.05 173.332 202.734 171.665C202.84 171.558 203.899 170.238 204.472 169.5C204.36 170.365 204.244 171.23 204.159 172.115C203.926 174.656 203.772 177.237 203.629 179.813C203.582 180.599 203.518 181.386 203.46 182.173C203.105 182.061 198.83 180.761 196.765 180.971C194.932 181.152 192.649 181.86 191.643 183.415C191.394 183.771 191.229 184.172 191.159 184.591C191.089 185.011 191.115 185.439 191.236 185.848C191.357 186.257 191.569 186.639 191.86 186.967C192.151 187.295 192.514 187.564 192.924 187.755C195.43 188.835 199.752 186.523 201.436 184.856C201.564 184.729 203.089 182.823 203.455 182.32C203.327 184.05 203.184 185.775 202.967 187.471C202.686 189.761 202.246 192.032 201.648 194.27C201.484 194.216 197.035 192.842 194.916 193.057C193.083 193.238 190.795 193.947 189.794 195.501C189.545 195.858 189.38 196.26 189.31 196.679C189.24 197.099 189.266 197.527 189.387 197.937C189.508 198.347 189.72 198.728 190.011 199.057C190.302 199.386 190.665 199.655 191.076 199.846C193.581 200.926 197.903 198.614 199.588 196.943C199.699 196.835 200.859 195.384 201.399 194.68L201.542 194.744C200.872 196.981 199.985 199.158 198.894 201.249C198.311 202.407 197.686 203.482 197.051 204.518C196.251 204.186 192.569 202.695 190.647 202.691C188.724 202.686 186.446 203.179 185.265 204.597C184.974 204.925 184.761 205.307 184.641 205.717C184.52 206.126 184.495 206.555 184.566 206.974C184.638 207.394 184.805 207.794 185.056 208.15C185.306 208.506 185.636 208.809 186.023 209.039C188.385 210.369 192.951 208.512 194.826 207.021C194.927 206.938 195.885 206.009 196.537 205.325C196.24 205.789 195.949 206.273 195.652 206.713C194.593 208.36 193.454 209.807 192.474 211.082C191.902 211.806 191.367 212.446 190.885 213.037C189.916 213.086 186.001 213.335 184.322 214.137C182.643 214.938 180.826 216.336 180.498 218.11C180.403 218.522 180.403 218.948 180.497 219.359C180.591 219.771 180.777 220.161 181.043 220.502C181.309 220.844 181.65 221.131 182.043 221.344C182.436 221.558 182.873 221.693 183.326 221.742Z" fill="#5F0A61"/>
</g>
<g id="Hearts">
<g id="Group" opacity="0.2">
<path id="Vector_7" opacity="0.2" d="M190.138 7.43311C190.138 7.43311 189.857 7.43311 189.349 7.43311" stroke="black" stroke-linecap="round" stroke-linejoin="round"/>
<path id="Vector_8" opacity="0.2" d="M187.76 7.47217C181.97 7.7703 166.964 9.83279 157.87 22.804C147.673 37.349 153.998 62.5779 153.325 78.8922C152.451 100.05 147.414 124.252 127.026 136.945C104.276 151.119 74.1157 148.152 49.0933 156.808C15.7813 168.332 10.5745 198.571 21.5072 213.937C41.005 241.355 83.5123 223.223 101.077 204.475C108.741 196.288 114.886 186 123.938 179.06C131.724 173.092 141.831 170.375 151.625 168.796C176.652 164.74 203.359 160.644 226.003 149.442C249.463 137.839 254.829 112.576 244.892 90.9934C235.024 69.5718 212.051 55.3152 188.057 50.1785C135.12 38.8152 118.721 55.5107 91.7543 26.3328" stroke="black" stroke-linecap="round" stroke-linejoin="round" stroke-dasharray="3 3"/>
<path id="Vector_9" opacity="0.2" d="M91.2404 25.7657L90.7108 25.2036" stroke="black" stroke-linecap="round" stroke-linejoin="round"/>
</g>
<path id="Vector_10" opacity="0.2" d="M60.2485 204.709C60.2381 204.017 59.9777 203.348 59.5085 202.808C59.0393 202.268 58.3882 201.888 57.6584 201.728C56.9286 201.568 56.1619 201.637 55.4797 201.925C54.7974 202.213 54.2388 202.702 53.8922 203.316C53.5457 202.702 52.9871 202.213 52.3048 201.925C51.6226 201.637 50.8559 201.568 50.1261 201.728C49.3963 201.888 48.7452 202.268 48.276 202.808C47.8068 203.348 47.5464 204.017 47.536 204.709C47.536 206.298 48.8496 207.915 50.1527 208.854C51.3421 209.671 52.58 210.426 53.8605 211.117C55.1425 210.429 56.3805 209.673 57.5683 208.854C58.813 207.964 60.2485 206.224 60.2485 204.709Z" stroke="black" stroke-linecap="round" stroke-linejoin="round"/>
<path id="Vector_11" opacity="0.2" d="M45.8039 213.697C45.8026 212.779 45.4658 211.888 44.848 211.169C44.2302 210.449 43.3675 209.943 42.3992 209.731C41.431 209.52 40.4138 209.616 39.512 210.004C38.6102 210.392 37.8766 211.049 37.4296 211.869C36.9826 211.049 36.2489 210.392 35.3472 210.004C34.4454 209.616 33.4282 209.52 32.4599 209.731C31.4917 209.943 30.6289 210.449 30.0111 211.169C29.3933 211.888 29.0566 212.779 29.0552 213.697C29.0552 215.784 30.7767 217.9 32.4876 219.137C33.3457 219.758 37.2548 222.172 37.3766 222.104C37.4878 222.172 41.4022 219.758 42.2603 219.137C43.8812 217.964 45.8039 215.686 45.8039 213.697Z" stroke="black" stroke-linecap="round" stroke-linejoin="round"/>
<path id="Vector_12" opacity="0.2" d="M170.196 217.539C170.192 216.621 169.853 215.731 169.233 215.013C168.613 214.295 167.748 213.791 166.779 213.583C165.81 213.375 164.794 213.474 163.894 213.866C162.994 214.257 162.264 214.918 161.821 215.74C161.378 214.916 160.645 214.255 159.743 213.863C158.84 213.472 157.821 213.374 156.85 213.585C155.88 213.797 155.015 214.305 154.397 215.027C153.779 215.749 153.444 216.643 153.447 217.563C153.447 219.65 155.174 221.766 156.885 223.003C157.743 223.624 161.652 226.038 161.768 225.969C161.885 226.038 165.794 223.624 166.652 223.003C168.278 221.805 170.196 219.528 170.196 217.539Z" stroke="black" stroke-linecap="round" stroke-linejoin="round"/>
<path id="Vector_13" opacity="0.2" d="M228.387 14.5052C228.388 13.8856 228.163 13.2837 227.747 12.7972C227.331 12.3108 226.749 11.9684 226.096 11.8258C225.442 11.6831 224.755 11.7485 224.147 12.0113C223.539 12.2742 223.045 12.719 222.746 13.2736C222.445 12.7217 221.951 12.2796 221.344 12.0187C220.737 11.7577 220.052 11.6933 219.401 11.8357C218.749 11.9781 218.169 12.319 217.753 12.8034C217.337 13.2878 217.111 13.8874 217.11 14.5052C217.11 15.9079 218.27 17.335 219.425 18.1659C220.48 18.886 221.576 19.5533 222.709 20.1649C223.844 19.5547 224.942 18.8874 225.998 18.1659C227.089 17.3741 228.387 15.8444 228.387 14.5052Z" stroke="black" stroke-linecap="round" stroke-linejoin="round"/>
<path id="Vector_14" opacity="0.2" d="M21.735 205.643C21.7393 205.022 21.5155 204.419 21.1002 203.931C20.6849 203.443 20.1025 203.1 19.4483 202.957C18.7941 202.814 18.1067 202.88 17.4984 203.144C16.8901 203.408 16.3968 203.855 16.0991 204.411C15.7996 203.856 15.3057 203.411 14.6975 203.149C14.0894 202.886 13.4028 202.82 12.7493 202.963C12.0958 203.106 11.5138 203.448 11.0979 203.935C10.6819 204.421 10.4564 205.023 10.458 205.643C10.458 207.045 11.6233 208.467 12.7727 209.303C13.8271 210.025 14.9254 210.691 16.062 211.297C17.1987 210.691 18.297 210.025 19.3514 209.303C20.4637 208.511 21.735 206.977 21.735 205.643Z" stroke="black" stroke-linecap="round" stroke-linejoin="round"/>
<path id="Vector_15" opacity="0.2" d="M150.888 211.239C150.89 210.619 150.665 210.017 150.249 209.531C149.833 209.044 149.251 208.702 148.597 208.559C147.944 208.417 147.257 208.482 146.649 208.745C146.041 209.008 145.547 209.453 145.247 210.007C144.946 209.455 144.452 209.013 143.845 208.752C143.238 208.491 142.554 208.427 141.902 208.569C141.251 208.712 140.67 209.053 140.254 209.537C139.839 210.021 139.612 210.621 139.611 211.239C139.611 212.642 140.771 214.069 141.926 214.9C142.981 215.62 144.078 216.287 145.21 216.898C146.346 216.288 147.444 215.621 148.5 214.9C149.596 214.113 150.888 212.578 150.888 211.239Z" stroke="black" stroke-linecap="round" stroke-linejoin="round"/>
<path id="Vector_16" opacity="0.2" d="M132.884 17.0417C132.889 16.4214 132.665 15.818 132.25 15.3302C131.834 14.8424 131.252 14.499 130.598 14.356C129.944 14.2131 129.256 14.279 128.648 14.5431C128.04 14.8072 127.546 15.2539 127.249 15.8101C126.951 15.2539 126.458 14.8072 125.849 14.5431C125.241 14.279 124.554 14.2131 123.899 14.356C123.245 14.499 122.663 14.8424 122.247 15.3302C121.832 15.818 121.608 16.4214 121.613 17.0417C121.613 18.4444 122.773 19.8666 123.922 20.7024C124.98 21.417 126.078 22.0794 127.211 22.6867C128.347 22.0785 129.445 21.4128 130.501 20.6926C131.592 19.9106 132.884 18.376 132.884 17.0417Z" stroke="black" stroke-linecap="round" stroke-linejoin="round"/>
<path id="Vector_17" opacity="0.2" d="M95.6634 15.463C95.6665 14.8431 95.4418 14.2406 95.0261 13.7536C94.6103 13.2667 94.028 12.9241 93.3741 12.7817C92.7203 12.6394 92.0334 12.7057 91.4256 12.9699C90.8178 13.2341 90.325 13.6805 90.0275 14.2363C89.7282 13.6821 89.2347 13.2375 88.6271 12.9745C88.0195 12.7116 87.3335 12.6459 86.6803 12.7879C86.0271 12.93 85.4451 13.2715 85.0287 13.7571C84.6123 14.2426 84.386 14.8438 84.3864 15.463C84.3864 16.8657 85.5517 18.2928 86.7011 19.1237C87.7557 19.8469 88.8539 20.5143 89.9904 21.1227C91.127 20.5143 92.2252 19.8469 93.2798 19.1237C94.3709 18.3368 95.6634 16.8217 95.6634 15.463Z" stroke="black" stroke-linecap="round" stroke-linejoin="round"/>
<path id="Vector_18" opacity="0.2" d="M210.87 5.40482C210.873 4.43787 210.52 3.4986 209.871 2.73959C209.222 1.98058 208.314 1.44643 207.294 1.22392C206.274 1.00141 205.203 1.10361 204.254 1.51392C203.305 1.92423 202.534 2.61854 202.067 3.48406C201.6 2.61854 200.829 1.92423 199.88 1.51392C198.931 1.10361 197.86 1.00141 196.84 1.22392C195.82 1.44643 194.912 1.98058 194.262 2.73959C193.613 3.4986 193.261 4.43787 193.263 5.40482C193.263 7.59439 195.075 9.8035 196.876 11.1231C197.776 11.7731 201.887 14.3097 202.009 14.2413C202.13 14.3097 206.246 11.7976 207.146 11.1231C208.852 9.89148 210.87 7.49664 210.87 5.40482Z" stroke="black" stroke-linecap="round" stroke-linejoin="round"/>
</g>
<g id="device 2">
<path id="Vector_19" d="M228.276 197.93L149.098 200.051C147.06 200.105 145.082 199.41 143.599 198.119C142.116 196.828 141.249 195.046 141.19 193.165L136.274 37.0949C136.245 36.1632 136.414 35.2353 136.773 34.3642C137.132 33.493 137.674 32.6956 138.367 32.0176C139.06 31.3395 139.891 30.7941 140.812 30.4124C141.734 30.0307 142.728 29.8202 143.738 29.793L222.915 27.6719C223.925 27.6439 224.931 27.7999 225.875 28.1309C226.82 28.462 227.684 28.9616 228.419 29.6012C229.154 30.2408 229.745 31.0078 230.159 31.8584C230.572 32.709 230.8 33.6265 230.829 34.5583L235.728 190.629C235.787 192.508 235.035 194.332 233.638 195.701C232.241 197.07 230.312 197.872 228.276 197.93Z" fill="#263238" stroke="#263238" stroke-linecap="round" stroke-linejoin="round"/>
<path id="Vector_20" d="M224.605 197.93L145.438 200.052C144.428 200.079 143.423 199.923 142.479 199.591C141.534 199.26 140.67 198.76 139.935 198.121C139.201 197.481 138.609 196.715 138.196 195.864C137.782 195.014 137.554 194.097 137.524 193.165L132.609 37.095C132.551 35.213 133.304 33.3866 134.705 32.0174C136.105 30.6481 138.038 29.8481 140.078 29.7931L219.255 27.672C220.265 27.6447 221.27 27.8011 222.214 28.1325C223.158 28.4638 224.021 28.9635 224.756 29.6031C225.49 30.2426 226.081 31.0094 226.494 31.8597C226.907 32.7099 227.135 33.627 227.163 34.5584L232.079 190.629C232.109 191.561 231.94 192.49 231.58 193.362C231.221 194.234 230.678 195.032 229.984 195.711C229.29 196.389 228.457 196.934 227.534 197.315C226.611 197.696 225.616 197.905 224.605 197.93Z" fill="white" stroke="#263238" stroke-miterlimit="10"/>
<path id="Vector_21" d="M187.723 193.375C187.704 192.789 187.497 192.221 187.128 191.743C186.759 191.265 186.245 190.899 185.65 190.691C185.056 190.483 184.408 190.442 183.788 190.573C183.169 190.705 182.605 191.003 182.169 191.43C181.733 191.857 181.444 192.393 181.339 192.972C181.233 193.55 181.316 194.145 181.576 194.68C181.837 195.215 182.263 195.667 182.802 195.978C183.341 196.29 183.967 196.447 184.603 196.43C185.025 196.418 185.441 196.33 185.826 196.171C186.212 196.011 186.559 195.783 186.849 195.499C187.139 195.215 187.365 194.882 187.515 194.517C187.665 194.153 187.736 193.765 187.723 193.375V193.375Z" stroke="white" stroke-linecap="round" stroke-linejoin="round"/>
<path id="Vector_22" d="M223.095 39.1555L136.951 41.459L141.618 190.053L227.762 187.749L223.095 39.1555Z" fill="white" stroke="#263238" stroke-linecap="round" stroke-linejoin="round"/>
<path id="Vector_23" d="M220.213 40.7746L213.07 40.9656L213.184 44.5808L220.326 44.3898L220.213 40.7746Z" stroke="#263238" stroke-width="0.821067" stroke-linecap="round" stroke-linejoin="round"/>
<path id="Vector_24" d="M218.641 40.8166L213.071 40.9656L213.185 44.5808L218.755 44.4318L218.641 40.8166Z" fill="#263238" stroke="#263238" stroke-width="0.725073" stroke-linecap="round" stroke-linejoin="round"/>
<path id="Vector_25" d="M221.237 41.7595L220.231 41.7864L220.281 43.379L221.287 43.3521L221.237 41.7595Z" fill="#263238" stroke="#263238" stroke-width="0.725073" stroke-linecap="round" stroke-linejoin="round"/>
<path id="Vector_26" d="M140.284 44.0297L138.977 44.0647L139.042 46.1361L140.349 46.1011L140.284 44.0297Z" fill="#263238" stroke="#263238" stroke-width="0.883086" stroke-linecap="round" stroke-linejoin="round"/>
<path id="Vector_27" d="M142.324 43.2329L141.016 43.2681L141.104 46.0674L142.412 46.0322L142.324 43.2329Z" fill="#263238" stroke="#263238" stroke-width="0.883086" stroke-linecap="round" stroke-linejoin="round"/>
<path id="Vector_28" d="M144.354 42.3183L143.047 42.3535L143.162 46.0126L144.47 45.9775L144.354 42.3183Z" fill="#263238" stroke="#263238" stroke-width="0.883086" stroke-linecap="round" stroke-linejoin="round"/>
</g>
<g id="device 1">
<path id="Vector_29" d="M108.492 200.98L29.4049 196.909C28.3962 196.857 27.4085 196.623 26.4981 196.218C25.5878 195.814 24.7726 195.249 24.0992 194.554C23.4258 193.859 22.9074 193.048 22.5735 192.169C22.2397 191.289 22.0969 190.357 22.1535 189.426L31.5819 33.5175C31.6994 31.6413 32.6186 29.8848 34.1379 28.6332C35.6572 27.3816 37.6525 26.7371 39.6861 26.8412L118.779 30.9125C120.815 31.0184 122.723 31.866 124.083 33.269C125.443 34.6721 126.143 36.5158 126.03 38.3951L116.602 194.304C116.483 196.181 115.563 197.937 114.042 199.189C112.522 200.44 110.526 201.084 108.492 200.98Z" fill="#263238" stroke="#263238" stroke-linecap="round" stroke-linejoin="round"/>
<path id="Vector_30" d="M111.188 200.98L32.101 196.909C31.0923 196.857 30.1046 196.622 29.1942 196.218C28.2838 195.814 27.4687 195.248 26.7953 194.554C26.1219 193.859 25.6035 193.048 25.2696 192.169C24.9358 191.289 24.793 190.357 24.8495 189.426L34.278 33.5172C34.3968 31.6398 35.3179 29.8825 36.8392 28.6309C38.3605 27.3793 40.3578 26.7356 42.3928 26.841L121.475 30.9122C123.513 31.0169 125.422 31.864 126.782 33.2672C128.143 34.6704 128.844 36.5148 128.732 38.3949L119.303 194.304C119.186 196.182 118.265 197.94 116.743 199.192C115.222 200.444 113.224 201.087 111.188 200.98Z" fill="white" stroke="#263238" stroke-miterlimit="10"/>
<path id="Vector_31" d="M74.8467 193.561C74.8823 192.975 74.7289 192.393 74.4058 191.887C74.0827 191.382 73.6045 190.976 73.0315 190.722C72.4586 190.467 71.8166 190.375 71.187 190.457C70.5573 190.539 69.9681 190.792 69.494 191.183C69.0198 191.574 68.682 192.086 68.5232 192.654C68.3644 193.222 68.3918 193.821 68.6018 194.375C68.8119 194.929 69.1953 195.412 69.7035 195.765C70.2116 196.118 70.8217 196.324 71.4567 196.357C72.308 196.401 73.1434 196.131 73.7791 195.607C74.4148 195.082 74.7988 194.347 74.8467 193.561V193.561Z" stroke="white" stroke-linecap="round" stroke-linejoin="round"/>
<path id="Vector_32" d="M124.258 42.6357L38.212 38.2107L29.2467 186.636L115.293 191.061L124.258 42.6357Z" fill="#FAFAFA" stroke="#263238" stroke-linecap="round" stroke-linejoin="round"/>
<path id="Vector_33" d="M121.241 44.0214L114.107 43.6545L113.889 47.2656L121.023 47.6325L121.241 44.0214Z" stroke="#263238" stroke-width="0.821067" stroke-linecap="round" stroke-linejoin="round"/>
<path id="Vector_34" d="M119.668 43.9455L114.104 43.6594L113.886 47.2705L119.449 47.5566L119.668 43.9455Z" fill="#263238" stroke="#263238" stroke-width="0.725073" stroke-linecap="round" stroke-linejoin="round"/>
<path id="Vector_35" d="M122.167 45.0866L121.162 45.0349L121.066 46.6257L122.071 46.6774L122.167 45.0866Z" fill="#263238" stroke="#263238" stroke-width="0.725073" stroke-linecap="round" stroke-linejoin="round"/>
<path id="Vector_36" d="M41.2941 41.0374L39.9878 40.9702L39.8628 43.0393L41.1691 43.1064L41.2941 41.0374Z" fill="#263238" stroke="#263238" stroke-width="0.883086" stroke-linecap="round" stroke-linejoin="round"/>
<path id="Vector_37" d="M43.3888 40.4168L42.0825 40.3496L41.9136 43.1458L43.2199 43.2129L43.3888 40.4168Z" fill="#263238" stroke="#263238" stroke-width="0.883086" stroke-linecap="round" stroke-linejoin="round"/>
<path id="Vector_38" d="M45.4924 39.6672L44.1861 39.5999L43.9646 43.2548L45.2709 43.3222L45.4924 39.6672Z" fill="#263238" stroke="#263238" stroke-width="0.883086" stroke-linecap="round" stroke-linejoin="round"/>
</g>
<g id="character 2">
<path id="Vector_39" d="M197.294 77.5431C197.294 77.5431 201.871 82.802 202.724 87.6894C203.576 92.5768 199.821 95.0499 198.486 96.9071C197.235 98.6577 196.461 100.661 196.23 102.748C196.055 104.575 198.852 104.82 198.852 104.82C198.852 104.82 196.929 106.477 192.315 107.352C187.702 108.226 185.043 104.869 185.043 104.869C185.043 104.869 189.688 101.448 190.647 98.6128C191.605 95.7781 191.939 87.9778 191.648 86.1645C191.356 84.3513 190.482 82.3425 190.467 81.8049C190.451 81.2673 191.764 75.8716 197.294 77.5431Z" fill="#263238" stroke="#263238" stroke-linecap="round" stroke-linejoin="round"/>
<path id="Vector_40" d="M208.656 188.605C208.084 184.641 206.22 173.454 206.22 173.454C206.22 173.454 192.278 168.21 178.045 169.055C163.813 169.901 161.043 172.579 161.043 172.579L158.542 189.793H163.839L208.656 188.605Z" fill="#263238" stroke="#263238" stroke-linecap="round" stroke-linejoin="round"/>
<path id="Vector_41" d="M198.465 146.001L197.872 142.321L212.004 142.683C212.004 142.683 200.6 127.322 199.498 122.767C198.396 118.212 194.704 112.992 191.092 110.279C187.479 107.567 181.716 107.577 181.716 107.577L178.681 107.806L179.513 103.642L169.661 96.0764L169.39 97.7088C169.39 97.7088 168.257 102.469 167.701 105.143C167.145 107.816 166.053 108.735 166.053 108.735C166.053 108.735 160.126 103.574 156.418 102.933C152.711 102.293 147.827 104.791 147.149 108.652C146.471 112.513 149.797 145.268 150.168 147.624C150.539 149.98 155.322 159.725 156.217 162.658C157.112 165.59 161.043 173.317 161.043 173.317C161.043 173.317 168.755 179.026 181.748 179.71C194.741 180.394 207.041 174.006 207.041 174.006C207.041 174.006 202.803 161.407 201.701 157.003C200.6 152.6 198.465 146.001 198.465 146.001ZM164.565 158.293C164.565 158.293 162.372 149.633 161.959 146.832C161.546 144.032 160.82 136.08 160.82 136.08L167.123 148.03L164.565 158.293Z" fill="#5F0A61" stroke="#263238" stroke-linecap="round" stroke-linejoin="round"/>
<path id="Vector_42" d="M157.181 127.273L156.344 125.254" stroke="#263238" stroke-linecap="round" stroke-linejoin="round"/>
<path id="Vector_43" d="M160.825 136.075L158.447 130.323" stroke="#263238" stroke-linecap="round" stroke-linejoin="round"/>
<path id="Vector_44" d="M195.424 145.2C195.424 145.2 191.833 153.274 187.214 159.315" stroke="#263238" stroke-linecap="round" stroke-linejoin="round"/>
<path id="Vector_45" d="M181.229 170.776C180.789 171.191 180.35 171.582 179.926 171.934" stroke="#263238" stroke-linecap="round" stroke-linejoin="round"/>
<path id="Vector_46" d="M193.491 155.004C193.491 155.004 188.131 163.454 182.897 169.07" stroke="#263238" stroke-linecap="round" stroke-linejoin="round"/>
<path id="Vector_47" d="M181.7 107.577L178.665 107.806L179.497 103.642L169.645 96.0764L169.375 97.7088C169.375 97.7088 168.241 102.469 167.685 105.143C167.129 107.816 166.037 108.735 166.037 108.735C164.167 107.134 162.15 105.685 160.01 104.405C160.82 106.848 163.924 115.255 169.062 118.26C175.1 121.794 181.573 118.813 182.897 115.084C183.667 112.711 184.147 110.267 184.328 107.796C183.458 107.667 182.581 107.593 181.7 107.577Z" fill="white" stroke="#263238" stroke-linecap="round" stroke-linejoin="round"/>
<path id="Vector_48" d="M177.712 107.347L177.447 111.066L180.599 107.796L177.712 107.347Z" fill="#263238" stroke="#263238" stroke-linecap="round" stroke-linejoin="round"/>
<path id="Vector_49" d="M190.843 122.703C190.843 122.703 191.621 116.916 191.553 114.702C191.484 112.488 190.038 107.205 189.349 105.744C188.66 104.282 185.064 101.868 184.783 103.207C184.502 104.546 185.096 108.094 185.122 108.813C185.149 109.531 184.762 112.669 184.762 112.669C184.762 112.669 184.831 109.859 183.512 108.71C182.193 107.562 181.245 107.884 181.271 108.622V109.36C181.271 109.36 182.786 111.687 182.86 113.608C182.935 115.528 182.723 119.375 182.76 120.557C182.797 121.74 185.297 124.775 185.8 125.499C186.303 126.222 190.954 131.422 190.954 131.422L195.334 128.055L190.843 122.703Z" fill="white" stroke="#263238" stroke-linecap="round" stroke-linejoin="round"/>
<g id="Vector_50">
<path d="M190.996 112.205C190.996 112.205 188.253 106.516 187.145 106.985C186.038 107.454 188.735 112.263 188.735 112.263L189.264 113.436C189.264 113.436 187.145 117.346 186.859 118.524C186.573 119.702 186.61 120.748 186.944 121.183" fill="white"/>
<path d="M190.996 112.205C190.996 112.205 188.253 106.516 187.145 106.985C186.038 107.454 188.735 112.263 188.735 112.263L189.264 113.436C189.264 113.436 187.145 117.346 186.859 118.524C186.573 119.702 186.61 120.748 186.944 121.183" stroke="#263238" stroke-linecap="round" stroke-linejoin="round"/>
</g>
<path id="Vector_51" d="M193.311 124.707L185.143 134.97C185.143 134.97 191.044 139.247 194.492 141.959C197.94 144.672 205.187 150.84 207.607 151.363C210.028 151.886 213.863 151.641 214.048 147.35C214.234 143.059 212.597 141.92 209.779 139.042C206.961 136.163 193.311 124.707 193.311 124.707Z" fill="#5F0A61" stroke="#263238" stroke-linecap="round" stroke-linejoin="round"/>
<path id="Vector_52" d="M194.1 83.4423C195.519 85.4886 196.3 87.856 196.357 90.2847C196.33 92.5867 193.682 96.6384 193.083 98.6666C192.485 100.695 190.53 103.554 184.974 105.573C180.736 107.107 178.448 108.627 176.578 107.141C174.708 105.656 169.883 99.0723 169.883 99.0723C169.883 99.0723 179.354 90.143 182.426 87.4549C185.498 84.7668 190.069 82.1716 194.1 83.4423Z" fill="white" stroke="#263238" stroke-linecap="round" stroke-linejoin="round"/>
<path id="Vector_53" d="M187.654 99.3264C187.237 99.5921 186.759 99.7663 186.258 99.8358C185.757 99.9053 185.245 99.8681 184.762 99.7272" stroke="#263238" stroke-linecap="round" stroke-linejoin="round"/>
<path id="Vector_54" d="M180.344 99.522C180.344 99.522 180.752 101.335 183.681 102.22" stroke="#263238" stroke-linecap="round" stroke-linejoin="round"/>
<path id="Vector_55" d="M182.611 91.7313C182.614 91.8976 182.667 92.06 182.764 92.1998C182.862 92.3395 183 92.4511 183.164 92.5215C183.327 92.592 183.508 92.6186 183.687 92.5983C183.866 92.5779 184.035 92.5115 184.175 92.4065C184.315 92.3015 184.42 92.1623 184.478 92.0048C184.536 91.8474 184.545 91.678 184.503 91.5162C184.461 91.3543 184.371 91.2066 184.243 91.0899C184.114 90.9732 183.953 90.8923 183.777 90.8565C183.638 90.843 183.497 90.8549 183.364 90.8916C183.23 90.9283 183.105 90.989 182.997 91.0703C182.889 91.1516 182.799 91.2519 182.733 91.3653C182.666 91.4788 182.625 91.6031 182.611 91.7313Z" fill="#263238"/>
<path id="Vector_56" d="M186.377 91.8779C186.398 91.6816 186.37 91.4835 186.294 91.299C186.219 91.1144 186.098 90.9484 185.942 90.8137C185.786 90.6791 185.598 90.5794 185.394 90.5224C185.189 90.4654 184.973 90.4526 184.762 90.485" stroke="#263238" stroke-linecap="round" stroke-linejoin="round"/>
<path id="Vector_57" d="M190.705 94.2533C190.706 94.3903 190.75 94.5242 190.83 94.6395C190.91 94.7548 191.024 94.8468 191.158 94.9051C191.293 94.9634 191.442 94.9855 191.59 94.9689C191.737 94.9524 191.876 94.8977 191.992 94.8114C192.107 94.725 192.193 94.6103 192.241 94.4806C192.289 94.3509 192.296 94.2114 192.262 94.0781C192.228 93.9447 192.154 93.823 192.048 93.727C191.942 93.6309 191.809 93.5643 191.664 93.5348C191.434 93.5156 191.205 93.5799 191.026 93.7141C190.847 93.8483 190.732 94.0418 190.705 94.2533Z" fill="#263238"/>
<path id="Vector_58" d="M193.528 94.5758C193.549 94.379 193.521 94.1804 193.445 93.9954C193.369 93.8104 193.248 93.6441 193.091 93.5093C192.935 93.3746 192.746 93.275 192.541 93.2184C192.335 93.1617 192.119 93.1496 191.907 93.1829" stroke="#263238" stroke-linecap="round" stroke-linejoin="round"/>
<path id="Vector_59" d="M188.984 89.6445C188.223 89.008 187.279 88.5872 186.266 88.4324C185.275 88.3537 184.283 88.5732 183.438 89.058" stroke="#263238" stroke-linecap="round" stroke-linejoin="round"/>
<path id="Vector_60" d="M192.506 91.8828C192.506 91.8828 193.835 91.9903 194.434 93.7009" stroke="#263238" stroke-linecap="round" stroke-linejoin="round"/>
<path id="Vector_61" d="M198.566 79.2636C198.566 79.2636 192.554 84.5714 189.164 87.0298C185.774 89.4881 184.396 89.102 181.218 92.9436C178.04 96.7851 175.111 100.065 170.789 101.57C166.467 103.075 161.138 101.57 159.136 100.074C157.133 98.5788 156.641 97.3618 156.641 97.3618C156.641 97.3618 159.777 97.264 159.565 94.4978C158.648 82.7386 158.595 81.2284 159.681 77.4455C160.767 73.6626 167.192 68.697 176.695 68.8632C186.197 69.0294 194.667 74.6401 196.51 75.7056C198.354 76.7711 199.275 77.7143 198.566 79.2636Z" fill="#263238" stroke="#263238" stroke-linecap="round" stroke-linejoin="round"/>
<path id="Vector_62" d="M164.041 94.5905C163.441 94.4297 162.89 94.143 162.431 93.753C161.971 93.363 161.616 92.8801 161.392 92.3423" stroke="#696969" stroke-linecap="round" stroke-linejoin="round"/>
<path id="Vector_63" d="M190.212 80.0015C186.595 82.7384 181.123 87.0247 177.5 90.5779C174.853 93.2332 171.186 94.8292 167.282 95.0254" stroke="#696969" stroke-linecap="round" stroke-linejoin="round"/>
<path id="Vector_64" d="M193.936 77.2451C193.936 77.2451 193.406 77.6214 192.538 78.2666" stroke="#696969" stroke-linecap="round" stroke-linejoin="round"/>
<path id="Vector_65" d="M169.274 88.8332C168.515 89.2255 167.707 89.5324 166.869 89.7472C162.324 90.7589 160.942 85.241 160.942 85.241" stroke="#696969" stroke-linecap="round" stroke-linejoin="round"/>
<path id="Vector_66" d="M183.883 79.293C180.079 82.1625 176.121 84.8524 172.023 87.3523" stroke="#696969" stroke-linecap="round" stroke-linejoin="round"/>
<path id="Vector_67" d="M162.293 82.0932C162.293 82.0932 163.537 83.3933 167.139 83.0707C170.741 82.7482 174.735 79.5322 174.735 79.5322" stroke="#696969" stroke-linecap="round" stroke-linejoin="round"/>
<path id="Vector_68" d="M164.57 158.293L161.154 171.836" stroke="#263238" stroke-linecap="round" stroke-linejoin="round"/>
</g>
<g id="character 1">
<path id="Vector_69" d="M96.2407 190.022L99.7843 165.018C99.7843 165.018 97.5861 161.597 88.7138 161.108C79.8416 160.62 58.6753 168.44 58.6753 168.44L53.442 187.804L96.2407 190.022Z" fill="#263238" stroke="#263238" stroke-linecap="round" stroke-linejoin="round"/>
<path id="Vector_70" d="M65.9161 96.4868L48.0657 89.3512L63.1777 78.1443L61.2496 74.2686C61.2496 74.2686 43.8441 79.591 39.8767 81.5997C35.9094 83.6084 27.7734 86.712 27.6675 88.5007C27.5615 90.2895 47.7426 106.623 53.0924 109.341C58.4423 112.058 65.4023 116.638 65.4023 116.638C65.4023 116.638 63.2836 144.051 63.1829 145.381C63.0823 146.71 55.3489 175.966 55.2959 176.851C55.2429 177.735 58.7495 178.889 64.5336 178.747C70.3178 178.605 78.4061 172.134 80.4242 170.463C82.4424 168.791 87.379 166.827 89.5507 166.714C91.7225 166.602 99.7578 165.018 99.7578 165.018L111.729 130.122C111.729 130.122 116.549 110.172 112.64 107.523C108.731 104.874 92.5117 102.049 92.5117 102.049L74.8202 100.25L65.9161 96.4868Z" fill="#5F0A61" stroke="#263238" stroke-linecap="round" stroke-linejoin="round"/>
<g id="Vector_71">
<path d="M75.6306 166.138C77.4739 164.906 79.8681 163.635 82.2411 163.298C85.5346 162.862 88.8562 162.632 92.1833 162.609" fill="#5F0A61"/>
<path d="M75.6306 166.138C77.4739 164.906 79.8681 163.635 82.2411 163.298C85.5346 162.862 88.8562 162.632 92.1833 162.609" stroke="#263238" stroke-linecap="round" stroke-linejoin="round"/>
</g>
<g id="Vector_72">
<path d="M72.2459 168.821C72.2459 168.821 72.6379 168.444 73.3053 167.882L72.2459 168.821Z" fill="#5F0A61"/>
<path d="M72.2459 168.821C72.2459 168.821 72.6379 168.444 73.3053 167.882" stroke="#263238" stroke-linecap="round" stroke-linejoin="round"/>
</g>
<g id="Vector_73">
<path d="M79.1212 161.714C78.3232 161.92 77.5482 162.195 76.8065 162.535L79.1212 161.714Z" fill="#5F0A61"/>
<path d="M79.1212 161.714C78.3232 161.92 77.5482 162.195 76.8065 162.535" stroke="#263238" stroke-linecap="round" stroke-linejoin="round"/>
</g>
<g id="Vector_74">
<path d="M89.6779 161.275C86.9948 160.938 84.2754 160.928 81.5895 161.245L89.6779 161.275Z" fill="#5F0A61"/>
<path d="M89.6779 161.275C86.9948 160.938 84.2754 160.928 81.5895 161.245" stroke="#263238" stroke-linecap="round" stroke-linejoin="round"/>
</g>
<path id="Vector_75" d="M61.9859 105.231L61.4138 103.334" stroke="#263238" stroke-linecap="round" stroke-linejoin="round"/>
<path id="Vector_76" d="M65.4182 116.638L62.6056 107.288" stroke="#263238" stroke-linecap="round" stroke-linejoin="round"/>
<path id="Vector_77" d="M48.0657 89.3268C45.588 89.5792 43.0821 89.4504 40.6501 88.9456" stroke="#263238" stroke-linecap="round" stroke-linejoin="round"/>
<g id="Vector_78">
<path d="M101.267 125.005L109.61 145.772C109.61 145.772 99.3182 160.781 97.5172 162.682C96.0203 164.176 94.4152 165.573 92.713 166.866L89.5984 166.705C88.1577 166.631 84.6035 165.781 83.8036 167.071C83.0038 168.361 83.1468 169.925 80.4719 170.453C77.797 170.981 80.1488 171.768 81.8279 171.856C83.507 171.944 85.308 170.038 86.023 170.072L87.7021 170.16L95.176 177.867L98.7355 170.727C98.7355 170.727 114.277 156.431 116.835 153.899C119.393 151.368 123.525 146.7 123.525 146.7C123.525 146.7 116.019 115.69 115.267 111.877C114.515 108.065 112.285 105.524 105.023 106.242" fill="#5F0A61"/>
<path d="M101.267 125.005L109.61 145.772C109.61 145.772 99.3182 160.781 97.5172 162.682C96.0203 164.176 94.4152 165.573 92.713 166.866L89.5984 166.705C88.1577 166.631 84.6035 165.781 83.8036 167.071C83.0038 168.361 83.1468 169.925 80.4719 170.453C77.797 170.981 80.1488 171.768 81.8279 171.856C83.507 171.944 85.308 170.038 86.023 170.072L87.7021 170.16L95.176 177.867L98.7355 170.727C98.7355 170.727 114.277 156.431 116.835 153.899C119.393 151.368 123.525 146.7 123.525 146.7C123.525 146.7 116.019 115.69 115.267 111.877C114.515 108.065 112.285 105.524 105.023 106.242" stroke="#263238" stroke-linecap="round" stroke-linejoin="round"/>
</g>
<path id="Vector_79" d="M94.6251 165.336C93.5658 166.225 92.6918 166.875 92.6918 166.875L89.5772 166.714C88.1365 166.641 84.5823 165.79 83.7825 167.081C82.9826 168.371 83.1257 169.935 80.4507 170.463C77.7758 170.991 80.1276 171.778 81.8067 171.866C83.4858 171.954 85.2868 170.047 86.0019 170.082L87.681 170.17L95.1548 177.877L98.7143 170.737L99.6731 169.852L94.6251 165.336Z" fill="white" stroke="#263238" stroke-linecap="round" stroke-linejoin="round"/>
<path id="Vector_80" d="M81.7856 117.082L77.7494 113.197L72.2512 116.985L78.8723 106.418L82.6437 107.664L81.7856 117.082Z" fill="white" stroke="#263238" stroke-linecap="round" stroke-linejoin="round"/>
<path id="Vector_81" d="M77.4262 106.751C77.4262 106.751 79.9687 111.873 80.6891 114.013C81.4095 116.154 81.7855 117.092 81.7855 117.092L93.0202 100.851C93.0202 100.851 89.9692 94.7861 89.6567 92.9289C89.5228 91.9499 89.1942 91.0022 88.6873 90.1333C88.6873 90.1333 88.2212 95.5095 83.989 99.483C81.5745 101.723 79.3784 104.155 77.4262 106.751Z" fill="white" stroke="#263238" stroke-linecap="round" stroke-linejoin="round"/>
<path id="Vector_82" d="M77.4262 106.75C77.4262 106.75 78.3743 108.661 79.2801 110.66L84.2645 102.288L82.4794 100.969C80.644 102.779 78.9551 104.712 77.4262 106.75Z" fill="#263238" stroke="#263238" stroke-linecap="round" stroke-linejoin="round"/>
<path id="Vector_83" d="M83.0674 112.415L81.7855 117.083L86.558 113.515L83.0674 112.415Z" fill="white" stroke="#263238" stroke-linecap="round" stroke-linejoin="round"/>
<path id="Vector_84" d="M92.4799 98.0557L83.0674 112.415L89.0423 119.555L96.6221 103.295L92.4799 98.0557Z" fill="white" stroke="#263238" stroke-linecap="round" stroke-linejoin="round"/>
<path id="Vector_85" d="M60.222 84.8598C60.222 84.8598 62.7222 93.1684 63.8239 96.2524C64.9257 99.3363 66.9067 101.946 69.8094 103.544C72.712 105.143 73.8615 107.454 77.1349 107.616C80.4084 107.777 83.6236 104.258 84.4181 102.977C85.2127 101.697 88.9999 98.09 89.3071 95.3237C89.6144 92.5575 89.7838 89.8107 89.7838 89.8107C90.5633 88.9823 91.1403 88.0088 91.4757 86.9563C91.8111 85.9038 91.8971 84.7971 91.7278 83.7112C91.0869 80.119 88.8622 79.0828 88.8622 79.0828C88.8622 79.0828 86.4256 72.1036 78.7981 70.6569C71.1707 69.2102 61.3185 75.95 60.9 78.4328C60.5975 80.3911 60.4206 82.3641 60.3704 84.3417L60.222 84.8598Z" fill="white" stroke="#263238" stroke-linecap="round" stroke-linejoin="round"/>
<path id="Vector_86" d="M68.0084 92.3472C68.0084 92.3472 67.1238 95.2014 67.77 96.2864C68.4162 97.3714 70.3443 96.2864 71.2289 95.7977" stroke="#263238" stroke-linecap="round" stroke-linejoin="round"/>
<path id="Vector_87" d="M68.7659 98.7107C68.7659 98.7107 70.6992 99.8642 73.6655 98.0412C75.4417 96.945 76.7896 95.3518 77.511 93.4958" stroke="#263238" stroke-linecap="round" stroke-linejoin="round"/>
<path id="Vector_88" d="M77.315 88.0999C77.3063 88.2908 77.2395 88.4756 77.1223 88.633C77.005 88.7905 76.842 88.9142 76.652 88.9902C76.462 89.0661 76.2526 89.091 76.048 89.0622C75.8433 89.0334 75.6515 88.9519 75.4947 88.8271C75.3379 88.7024 75.2224 88.5393 75.1614 88.3568C75.1004 88.1742 75.0964 87.9795 75.1498 87.7949C75.2033 87.6103 75.312 87.4434 75.4635 87.3132C75.6151 87.183 75.8033 87.0949 76.0067 87.0589C76.3284 87.0424 76.6445 87.1417 76.8884 87.3359C77.1324 87.53 77.2853 87.8039 77.315 88.0999Z" fill="#263238"/>
<path id="Vector_89" d="M72.9981 88.1782C72.9794 87.9524 73.0176 87.7258 73.1098 87.516C73.2019 87.3062 73.3454 87.1189 73.5291 86.9688C73.7128 86.8188 73.9316 86.71 74.1685 86.651C74.4053 86.592 74.6538 86.5844 74.8944 86.6288" stroke="#263238" stroke-linecap="round" stroke-linejoin="round"/>
<path id="Vector_90" d="M67.9713 90.7589C67.9658 90.9169 67.9119 91.0702 67.8158 91.201C67.7196 91.3319 67.5852 91.4349 67.4282 91.4981C67.2712 91.5613 67.0979 91.5821 66.9286 91.5581C66.7593 91.5341 66.6008 91.4663 66.4715 91.3626C66.3423 91.2588 66.2476 91.1234 66.1984 90.9719C66.1492 90.8205 66.1476 90.6593 66.1937 90.5071C66.2398 90.3548 66.3318 90.2178 66.4589 90.1118C66.586 90.0059 66.7431 89.9354 66.912 89.9085C67.1732 89.8974 67.429 89.9795 67.6262 90.1379C67.8235 90.2963 67.9471 90.5186 67.9713 90.7589Z" fill="#263238"/>
<path id="Vector_91" d="M64.7137 91.0471C64.6949 90.8209 64.7331 90.5937 64.8255 90.3834C64.918 90.1732 65.062 89.9856 65.2463 89.8354C65.4306 89.6852 65.6502 89.5766 65.8878 89.518C66.1253 89.4594 66.3744 89.4525 66.6153 89.4978" stroke="#263238" stroke-linecap="round" stroke-linejoin="round"/>
<path id="Vector_92" d="M62.8387 89.6444C62.8387 89.6444 62.9605 88.7451 64.5125 87.9827C66.0645 87.2203 66.52 87.1812 66.52 87.1812" stroke="#263238" stroke-linecap="round" stroke-linejoin="round"/>
<path id="Vector_93" d="M70.0848 85.5341C70.9455 85.0294 71.9281 84.7288 72.9451 84.6592C74.1296 84.5877 75.3186 84.7102 76.4569 85.0209" stroke="#263238" stroke-linecap="round" stroke-linejoin="round"/>
<path id="Vector_94" d="M68.2785 63.4088C68.2785 63.4088 64.0093 61.9817 60.6723 62.4802C57.3352 62.9787 50.5499 68.3793 51.604 70.8377C52.6581 73.2961 57.1392 71.258 56.7473 72.7096C56.3553 74.1611 50.8254 76.2823 49.9991 79.9821C49.1728 83.6818 51.6199 87.9584 55.6614 88.1636C59.7029 88.3689 61.7581 81.81 62.2454 83.6916C62.7327 85.5733 64.5231 85.8128 67.8283 83.3104C71.1336 80.808 74.2693 76.1503 75.2439 77.4064C76.2186 78.6625 76.3033 82.675 77.3203 82.8608C78.3373 83.0465 80.08 81.9322 81.24 82.6604C82.4 83.3886 83.1416 85.9692 84.0738 85.4804C85.0061 84.9917 84.63 83.7698 85.1332 82.7288C85.6364 81.6878 85.7052 79.5862 88.0359 79.4005C88.931 79.332 89.3919 79.3369 89.3919 79.3369C89.3919 79.3369 91.1504 72.6069 88.5655 68.1985C85.9807 63.79 76.9124 62.2456 74.7937 62.6708C73.5438 62.9165 72.3179 63.2565 71.1283 63.6874L68.2785 63.4088Z" fill="#263238" stroke="#263238" stroke-linecap="round" stroke-linejoin="round"/>
<path id="Vector_95" d="M86.5898 74.6548C87.234 74.9084 87.8241 75.2659 88.3324 75.7105" stroke="#696969" stroke-linecap="round" stroke-linejoin="round"/>
<path id="Vector_96" d="M76.9495 76.4484C76.9495 76.4484 80.9698 73.8581 84.8101 74.2296" stroke="#696969" stroke-linecap="round" stroke-linejoin="round"/>
<path id="Vector_97" d="M69.0678 72.6655C66.324 73.7994 63.04 75.7495 62.0971 78.809C60.3968 84.3416 68.5487 79.7865 69.8464 78.3203C71.1442 76.8541 67.055 76.6195 66.0115 77.9" stroke="#696969" stroke-linecap="round" stroke-linejoin="round"/>
<path id="Vector_98" d="M73.1569 71.3704C72.2853 71.5646 71.4274 71.8078 70.588 72.0986" stroke="#696969" stroke-linecap="round" stroke-linejoin="round"/>
<path id="Vector_99" d="M74.5553 66.9082C71.9521 67.301 69.4196 68.0213 67.0285 69.0489C61.8216 71.4535 54.4749 77.3038 53.4844 81.7025" stroke="#696969" stroke-linecap="round" stroke-linejoin="round"/>
<path id="Vector_100" d="M79.4708 66.356C79.4708 66.356 78.0619 66.4097 76.0385 66.6834" stroke="#696969" stroke-linecap="round" stroke-linejoin="round"/>
</g>
<g id="text baloon 2">
<path id="Vector_101" d="M148.791 47.9449H171.038C172.021 47.9449 172.964 48.3053 173.66 48.9469C174.355 49.5885 174.746 50.4587 174.746 51.3661V62.4459C174.746 63.3532 174.355 64.2234 173.66 64.865C172.964 65.5066 172.021 65.8671 171.038 65.8671H155.147L156.016 71.732L150.634 65.8671H148.775C147.792 65.8671 146.849 65.5066 146.153 64.865C145.458 64.2234 145.067 63.3532 145.067 62.4459V51.3661C145.067 50.9155 145.164 50.4695 145.351 50.0534C145.538 49.6374 145.813 49.2596 146.159 48.9417C146.505 48.6238 146.915 48.3721 147.367 48.2011C147.819 48.03 148.303 47.9429 148.791 47.9449Z" fill="white" stroke="#263238" stroke-linecap="round" stroke-linejoin="round"/>
<path id="Vector_102" d="M157.066 59.9205C159.109 58.1589 159.219 55.2023 157.309 53.3166C155.4 51.4308 152.196 51.3302 150.152 53.0917C148.109 54.8532 147.999 57.8099 149.909 59.6956C151.818 61.5813 155.022 61.682 157.066 59.9205Z" fill="#5F0A61" stroke="#263238" stroke-linecap="round" stroke-linejoin="round"/>
<path id="Vector_103" d="M151.582 54.8802C151.898 54.6427 152.281 54.4943 152.686 54.4527C153.091 54.4111 153.501 54.4781 153.865 54.6456" stroke="#263238" stroke-linecap="round" stroke-linejoin="round"/>
<path id="Vector_104" d="M156.397 54.8802C156.533 54.7872 156.69 54.7255 156.857 54.7001C157.023 54.6747 157.194 54.6864 157.355 54.7342C157.515 54.782 157.661 54.8646 157.78 54.975C157.899 55.0854 157.988 55.2205 158.039 55.3689" stroke="#263238" stroke-linecap="round" stroke-linejoin="round"/>
<path id="Vector_105" d="M152.599 57.0991C152.851 57.3719 153.162 57.5932 153.512 57.749C153.862 57.9049 154.243 57.9917 154.631 58.0042C155.019 58.0166 155.406 57.9542 155.767 57.8211C156.127 57.688 156.454 57.4871 156.726 57.2311" stroke="#263238" stroke-linecap="round" stroke-linejoin="round"/>
<path id="Vector_106" opacity="0.2" d="M152.599 56.6933C152.599 56.4507 152.521 56.2135 152.375 56.0118C152.229 55.81 152.022 55.6528 151.779 55.5599C151.536 55.4671 151.268 55.4428 151.01 55.4901C150.753 55.5375 150.516 55.6543 150.33 55.8259C150.144 55.9974 150.017 56.216 149.966 56.454C149.915 56.6919 149.941 56.9386 150.042 57.1628C150.142 57.3869 150.313 57.5785 150.531 57.7133C150.75 57.8481 151.007 57.92 151.27 57.92C151.622 57.92 151.961 57.7908 152.21 57.5607C152.459 57.3307 152.599 57.0187 152.599 56.6933Z" fill="black"/>
<path id="Vector_107" opacity="0.2" d="M158.421 56.9524C158.42 56.739 158.35 56.5307 158.221 56.3537C158.091 56.1767 157.908 56.039 157.694 55.958C157.48 55.877 157.245 55.8563 157.018 55.8986C156.792 55.9408 156.584 56.044 156.42 56.1953C156.257 56.3465 156.146 56.539 156.102 56.7484C156.057 56.9578 156.08 57.1747 156.169 57.3718C156.258 57.5689 156.408 57.7373 156.6 57.8557C156.793 57.9742 157.019 58.0374 157.25 58.0374C157.404 58.0374 157.557 58.0093 157.699 57.9548C157.842 57.9002 157.971 57.8202 158.08 57.7194C158.188 57.6185 158.275 57.4989 158.333 57.3673C158.392 57.2357 158.421 57.0947 158.421 56.9524Z" fill="black"/>
<path id="Vector_108" d="M168.923 60.0727C171.045 58.3917 171.288 55.4419 169.466 53.484C167.644 51.5262 164.447 51.3018 162.325 52.9828C160.203 54.6639 159.96 57.6137 161.782 59.5716C163.604 61.5294 166.801 61.7538 168.923 60.0727Z" fill="#5F0A61" stroke="#263238" stroke-linecap="round" stroke-linejoin="round"/>
<path id="Vector_109" d="M163.59 54.8802C163.906 54.6437 164.288 54.4958 164.692 54.4542C165.096 54.4126 165.504 54.479 165.868 54.6456" stroke="#263238" stroke-linecap="round" stroke-linejoin="round"/>
<path id="Vector_110" d="M168.4 54.8802C168.535 54.7862 168.693 54.7236 168.861 54.6976C169.028 54.6717 169.199 54.6831 169.361 54.731C169.522 54.7789 169.669 54.8618 169.788 54.9728C169.908 55.0838 169.996 55.2197 170.047 55.369" stroke="#263238" stroke-linecap="round" stroke-linejoin="round"/>
<path id="Vector_111" d="M164.602 57.0991C164.854 57.3719 165.165 57.5932 165.515 57.749C165.864 57.9049 166.245 57.9917 166.634 58.0042C167.022 58.0166 167.409 57.9542 167.769 57.8211C168.13 57.688 168.456 57.4871 168.728 57.2311" stroke="#263238" stroke-linecap="round" stroke-linejoin="round"/>
<path id="Vector_112" opacity="0.2" d="M164.602 56.6933C164.602 56.4507 164.524 56.2135 164.378 56.0118C164.232 55.81 164.024 55.6528 163.781 55.5599C163.538 55.4671 163.271 55.4428 163.013 55.4901C162.755 55.5375 162.518 55.6543 162.332 55.8259C162.146 55.9974 162.02 56.216 161.969 56.454C161.917 56.6919 161.944 56.9386 162.044 57.1628C162.145 57.3869 162.315 57.5785 162.534 57.7133C162.753 57.8481 163.01 57.92 163.273 57.92C163.625 57.92 163.963 57.7908 164.213 57.5607C164.462 57.3307 164.602 57.0187 164.602 56.6933Z" fill="black"/>
<path id="Vector_113" opacity="0.2" d="M170.429 56.9524C170.427 56.739 170.358 56.5307 170.229 56.3537C170.099 56.1767 169.916 56.039 169.702 55.958C169.488 55.877 169.253 55.8563 169.026 55.8986C168.8 55.9408 168.592 56.044 168.428 56.1953C168.265 56.3465 168.154 56.539 168.109 56.7484C168.065 56.9578 168.088 57.1747 168.177 57.3718C168.266 57.5689 168.416 57.7373 168.608 57.8557C168.801 57.9742 169.027 58.0374 169.258 58.0374C169.412 58.0374 169.565 58.0093 169.707 57.9548C169.849 57.9002 169.979 57.8202 170.088 57.7194C170.196 57.6185 170.282 57.4989 170.341 57.3673C170.399 57.2357 170.429 57.0947 170.429 56.9524Z" fill="black"/>
</g>
<g id="text baloon 1">
<path id="Vector_114" d="M109.663 47.9448H87.4161C86.4327 47.9448 85.4896 48.3053 84.7943 48.9469C84.099 49.5885 83.7083 50.4587 83.7083 51.366V62.4458C83.7083 63.3532 84.099 64.2234 84.7943 64.865C85.4896 65.5066 86.4327 65.867 87.4161 65.867H103.307L102.438 71.7319L107.82 65.867H109.663C110.646 65.867 111.589 65.5066 112.285 64.865C112.98 64.2234 113.371 63.3532 113.371 62.4458V51.366C113.371 50.4587 112.98 49.5885 112.285 48.9469C111.589 48.3053 110.646 47.9448 109.663 47.9448Z" fill="white" stroke="#263238" stroke-linecap="round" stroke-linejoin="round"/>
<path id="Vector_115" d="M106.766 54.7433C106.764 53.8252 106.427 52.9344 105.81 52.2147C105.192 51.4951 104.329 50.9887 103.361 50.7773C102.393 50.566 101.375 50.6621 100.474 51.05C99.5718 51.438 98.8382 52.0952 98.3912 52.9154C97.9442 52.0952 97.2106 51.438 96.3088 51.05C95.407 50.6621 94.3898 50.566 93.4215 50.7773C92.4533 50.9887 91.5906 51.4951 90.9727 52.2147C90.3549 52.9344 90.0182 53.8252 90.0168 54.7433C90.0168 56.8253 91.7436 58.9465 93.4545 60.183C94.3126 60.8037 98.2217 63.2132 98.3382 63.1497C98.4547 63.2132 102.364 60.8037 103.222 60.183C104.848 59.01 106.766 56.7325 106.766 54.7433Z" fill="#5F0A61" stroke="#263238" stroke-linecap="round" stroke-linejoin="round"/>
</g>
</g>
</svg>
