<svg width="252" height="229" viewBox="0 0 252 229" fill="none" xmlns="http://www.w3.org/2000/svg">
<g id="online-learning/bro">
<g id="Window">
<path id="Vector" d="M17.7915 129.375V28.261H26.393" stroke="#263238" stroke-linecap="round" stroke-linejoin="round"/>
<path id="Vector_2" d="M17.7973 145.906V142.219" stroke="#263238" stroke-linecap="round" stroke-linejoin="round"/>
<path id="Vector_3" d="M48.5054 28.261H137.222V158.849H17.7915" stroke="#263238" stroke-linecap="round" stroke-linejoin="round"/>
<path id="Vector_4" d="M37.626 28.2607H45.4218" stroke="#263238" stroke-linecap="round" stroke-linejoin="round"/>
<path id="Vector_5" d="M132.73 32.7468H22.2835V154.368H132.73V32.7468Z" stroke="#263238" stroke-linecap="round" stroke-linejoin="round"/>
<path id="Vector_6" d="M127.594 41.2791V88.5816H27.4189V84.2693" stroke="#263238" stroke-linecap="round" stroke-linejoin="round"/>
<path id="Vector_7" d="M27.4189 74.149V37.4419H127.594" stroke="#263238" stroke-linecap="round" stroke-linejoin="round"/>
<path id="Vector_8" d="M27.4247 80.9479V76.7515" stroke="#263238" stroke-linecap="round" stroke-linejoin="round"/>
<path id="Vector_9" d="M110.681 93.5544H132.73" stroke="#263238" stroke-linecap="round" stroke-linejoin="round"/>
<path id="Vector_10" d="M102.839 93.5544H105.957" stroke="#263238" stroke-linecap="round" stroke-linejoin="round"/>
<path id="Vector_11" d="M22.2835 93.5544H99.1118" stroke="#263238" stroke-linecap="round" stroke-linejoin="round"/>
<path id="Vector_12" d="M71.9567 88.5814V86.3093H81.19V87.6019H77.5094V88.5814" stroke="#263238" stroke-linecap="round" stroke-linejoin="round"/>
<path id="Vector_13" d="M22.4748 134.319C22.4748 134.319 24.005 135.478 25.0831 142.491C25.0831 142.491 26.9379 131.287 29.1868 131.114C31.4357 130.94 30.9604 138.405 30.9604 138.405C30.9604 138.405 31.3313 134.725 33.0934 134.893C34.8554 135.061 33.0934 142.491 33.0934 142.491C33.0934 142.491 35.209 136.695 37.2087 136.8C39.2083 136.904 35.8813 147.296 35.8813 147.296C35.8813 147.296 41.0167 143.575 43.0976 145.395C45.1784 147.215 41.9383 151.806 41.9383 151.806C41.9383 151.806 49.3053 150.206 50.4471 154.524" stroke="#263238" stroke-linecap="round" stroke-linejoin="round"/>
<path id="Vector_14" d="M50.4645 150.339C50.4645 150.339 53.6756 148.235 56.1969 149.215C56.1969 149.215 54.5914 146.769 56.1969 145.274C57.8024 143.778 59.8659 149.215 59.8659 149.215C59.8659 149.215 60.0977 140.109 63.3088 140.567C66.5199 141.025 63.3088 149.215 63.3088 149.215C63.3088 149.215 69.0412 144.138 70.4149 145.905C71.7886 147.673 69.4991 150.339 69.4991 150.339C69.4991 150.339 72.9362 149.238 75.4576 151.806C75.4576 151.806 79.3004 147.882 83.5722 147.32C83.5722 147.32 80.7321 139.077 82.1116 137.414C83.4911 135.75 85.9834 144.607 85.9834 144.607C85.9834 144.607 87.0789 138.846 90.6667 138.405C90.6667 138.405 87.6759 136.776 88.5627 134.319C89.4495 131.861 93.5764 134.898 93.5764 134.898C93.5764 134.898 91.8781 130.569 94.5617 129.38C97.2454 128.192 98.364 133.003 98.364 133.003C98.364 133.003 99.1117 127.96 102.265 128.239C105.418 128.517 104.398 134.325 104.398 134.325C104.398 134.325 107.371 129.688 108.965 130.18C112.147 131.119 111.179 138.411 111.179 138.411C111.179 138.411 115.625 135.322 116.767 136.742C118.001 138.278 112.13 142.225 112.13 142.225C112.13 142.225 116.541 142.712 119.282 145.279" stroke="#263238" stroke-linecap="round" stroke-linejoin="round"/>
<path id="Vector_15" d="M132.73 135.982C132.73 135.982 132.225 131.346 127.594 131.114C122.963 130.882 128.869 141.257 128.869 141.257C128.869 141.257 125.05 138.098 123.682 139.072C122.314 140.046 127.594 145.395 127.594 145.395C127.594 145.395 125.061 143.077 122.378 143.778C119.694 144.48 123.902 151.951 123.902 151.951C119.935 151.15 115.817 151.631 112.142 153.325" stroke="#263238" stroke-linecap="round" stroke-linejoin="round"/>
</g>
<g id="book shelf">
<path id="Vector_16" d="M178.798 198.176V140.399H243.854" stroke="#263238" stroke-linecap="round" stroke-linejoin="round"/>
<path id="Vector_17" d="M241.489 146.375H184.031V200.193" stroke="#263238" stroke-linecap="round" stroke-linejoin="round"/>
<path id="Vector_18" d="M195.531 175.727V151.806H199.293V156.739H204.312V154.525H208.798V157.208H214.855V151.806H221.052V155.435H224.39V153.325H230.372V167.415" stroke="#263238" stroke-linecap="round" stroke-linejoin="round"/>
<path id="Vector_19" d="M224.39 155.434V175.727" stroke="#263238" stroke-linecap="round" stroke-linejoin="round"/>
<path id="Vector_20" d="M221.533 158.472V162.095" stroke="#263238" stroke-linecap="round" stroke-linejoin="round"/>
<path id="Vector_21" d="M221.533 164.691V179.57" stroke="#263238" stroke-linecap="round" stroke-linejoin="round"/>
<path id="Vector_22" d="M214.855 157.214V170.58" stroke="#263238" stroke-linecap="round" stroke-linejoin="round"/>
<path id="Vector_23" d="M215.087 174.985V179.147" stroke="#263238" stroke-linecap="round" stroke-linejoin="round"/>
<path id="Vector_24" d="M208.798 157.214V164.691" stroke="#263238" stroke-linecap="round" stroke-linejoin="round"/>
<path id="Vector_25" d="M208.798 169.288V185.042" stroke="#263238" stroke-linecap="round" stroke-linejoin="round"/>
<path id="Vector_26" d="M204.312 156.739V175.31" stroke="#263238" stroke-linecap="round" stroke-linejoin="round"/>
<path id="Vector_27" d="M199.293 156.739V163.764" stroke="#263238" stroke-linecap="round" stroke-linejoin="round"/>
<path id="Vector_28" d="M199.293 167.415V184.114" stroke="#263238" stroke-linecap="round" stroke-linejoin="round"/>
<path id="Vector_29" d="M195.531 179.146V186.687" stroke="#263238" stroke-linecap="round" stroke-linejoin="round"/>
<path id="Vector_30" d="M187.77 186.688H233.432" stroke="#263238" stroke-linecap="round" stroke-linejoin="round"/>
<path id="Vector_31" d="M224.39 186.687V181.859" stroke="#263238" stroke-linecap="round" stroke-linejoin="round"/>
<path id="Vector_32" d="M215.087 183.135V186.462" stroke="#263238" stroke-linecap="round" stroke-linejoin="round"/>
<path id="Vector_33" d="M230.882 159.521H235.31" stroke="#263238" stroke-linecap="round" stroke-linejoin="round"/>
<path id="Vector_34" d="M187.944 190.896H230.372" stroke="#263238" stroke-linecap="round" stroke-linejoin="round"/>
<path id="Vector_35" d="M197.05 203.166V197.544H204.909V201.166H211.233V208.232H214.855V197.758H222.883V200.193H227.816" stroke="#263238" stroke-linecap="round" stroke-linejoin="round"/>
<path id="Vector_36" d="M222.883 200.193V206.221" stroke="#263238" stroke-linecap="round" stroke-linejoin="round"/>
<path id="Vector_37" d="M215.087 210.782V214.84" stroke="#263238" stroke-linecap="round" stroke-linejoin="round"/>
<path id="Vector_38" d="M211.233 208.232V213.576" stroke="#263238" stroke-linecap="round" stroke-linejoin="round"/>
<path id="Vector_39" d="M204.909 201.166V204.232" stroke="#263238" stroke-linecap="round" stroke-linejoin="round"/>
</g>
<g id="Screen">
<path id="Vector_40" d="M241.686 17.0745H102.787V113.042H241.686V17.0745Z" fill="#5F0A61" stroke="#263238" stroke-linecap="round" stroke-linejoin="round"/>
<path id="Vector_41" d="M241.686 17.0745H102.787V26.5628H241.686V17.0745Z" fill="#263238"/>
<path id="Vector_42" d="M159.056 82.8729L155.798 78.3403C155.798 77.3937 155.749 76.4477 155.653 75.5059C155.532 75.0828 153.555 71.9703 153.509 71.2342C153.501 70.8827 153.457 70.5329 153.376 70.1909C153.376 70.1909 152.361 70.4459 152.373 71.0661C152.384 71.6863 152.494 73.7787 152.494 73.7787C152.494 73.7787 149.851 72.2369 149.556 71.8312C149.26 71.4254 146.038 69.0606 145.736 68.707C145.435 68.3535 144.206 68.3303 144.061 68.707L144.235 69.1418L143.221 69.6228L143.899 71.6341C143.705 72.0869 143.587 72.5687 143.551 73.06C143.661 73.3092 144.02 74.7988 144.02 74.7988C144.02 74.7988 143.8 75.0249 143.829 75.8131C143.858 76.6014 148.188 80.6298 149.046 81.0645C150.07 81.495 151.119 81.8646 152.187 82.1715L154.906 85.6898L159.056 82.8729Z" fill="white" stroke="#263238" stroke-linecap="round" stroke-linejoin="round"/>
<path id="Vector_43" d="M152.489 73.7786C151.983 74.9303 151.853 76.2121 152.118 77.4417" stroke="#263238" stroke-linecap="round" stroke-linejoin="round"/>
<path id="Vector_44" d="M144.229 69.1416C145.104 69.4778 146.2 71.1123 146.704 71.6166C147.16 72.0279 147.649 72.402 148.165 72.7352" stroke="#263238" stroke-linecap="round" stroke-linejoin="round"/>
<path id="Vector_45" d="M143.893 71.6166C144.612 71.4659 145.099 71.7442 145.081 72.4455C145.064 73.1468 146.617 74.2133 146.617 74.2133" stroke="#263238" stroke-linecap="round" stroke-linejoin="round"/>
<path id="Vector_46" d="M144.015 74.7813C144.015 74.7813 144.519 73.8829 144.919 74.2944C145.319 74.7059 145.446 75.7608 146.182 75.9811" stroke="#263238" stroke-linecap="round" stroke-linejoin="round"/>
<path id="Vector_47" d="M201.414 77.946C201.414 77.946 189.978 78.6532 187.457 79.6849C185.388 80.5369 170.834 90.118 170.834 90.118C170.834 90.118 162.273 83.6611 159.786 81.4237C159.306 81.1919 158.791 81.043 158.262 80.9832L156.958 80.1544L153.752 84.6696L154.651 85.9158C154.651 85.9158 154.796 87.927 155.195 88.4313C160.516 95.1143 170.706 104.469 172.236 105.391C173.766 106.312 187.341 98.279 187.341 98.279L189.862 113.059H230.349C230.349 113.059 230.244 87.1214 228.54 85.1333C226.836 83.1452 207.303 75.3494 207.303 75.3494L201.414 77.946Z" fill="#757575" stroke="#263238" stroke-linecap="round" stroke-linejoin="round"/>
<g id="Vector_48">
<path d="M215.087 68.562C215.087 68.562 211.459 70.9964 213.383 78.7749C213.383 78.7749 207.917 82.6815 202.51 78.7401C202.51 78.7401 203.756 72.5382 202.51 71.292" fill="white"/>
<path d="M215.087 68.562C215.087 68.562 211.459 70.9964 213.383 78.7749C213.383 78.7749 207.917 82.6815 202.51 78.7401C202.51 78.7401 203.756 72.5382 202.51 71.292" stroke="#263238" stroke-linecap="round" stroke-linejoin="round"/>
</g>
<path id="Vector_49" d="M227.816 86.3389C227.816 86.3389 222.883 92.0133 222.309 101.728" stroke="#263238" stroke-linecap="round" stroke-linejoin="round"/>
<path id="Vector_50" d="M206.109 52.9764C206.109 52.9764 202.875 52.4896 201.745 56.4542C201.086 58.8822 201.353 61.4681 202.492 63.711L208.439 58.1292L206.109 52.9764Z" fill="#263238"/>
<g id="Vector_51">
<path d="M213.98 70.9268C218.148 65.9537 221.092 57.6652 214.832 54.3556C202.753 47.9682 198.759 60.4474 200.788 72.0397C201.414 75.6159 206.271 74.022 209.824 72.7295" fill="white"/>
<path d="M213.98 70.9268C218.148 65.9537 221.092 57.6652 214.832 54.3556C202.753 47.9682 198.759 60.4474 200.788 72.0397C201.414 75.6159 206.271 74.022 209.824 72.7295" stroke="#263238" stroke-linecap="round" stroke-linejoin="round"/>
</g>
<path id="Vector_52" d="M205.541 60.1169C205.541 60.1169 207.535 60.656 208.039 61.7225" stroke="#263238" stroke-linecap="round" stroke-linejoin="round"/>
<path id="Vector_53" d="M202.655 59.5897C202.419 59.474 202.158 59.4207 201.896 59.4349C201.634 59.4491 201.381 59.5304 201.159 59.6709" stroke="#263238" stroke-linecap="round" stroke-linejoin="round"/>
<path id="Vector_54" d="M205.506 62.8642C205.471 63.2178 205.628 63.525 205.854 63.5482C206.08 63.5714 206.295 63.299 206.329 62.9686C206.364 62.6382 206.208 62.302 205.982 62.2788C205.755 62.2557 205.541 62.5049 205.506 62.8642Z" fill="#263238"/>
<path id="Vector_55" d="M201.182 61.7921C201.153 62.1515 201.31 62.4587 201.536 62.4819C201.762 62.5051 201.976 62.2326 202.011 61.9023C202.046 61.5719 201.889 61.2415 201.658 61.2183C201.426 61.1951 201.217 61.4386 201.182 61.7921Z" fill="#263238"/>
<path id="Vector_56" d="M212.12 65.1886C212.12 65.1886 210.248 67.9012 208.99 68.7706C208.177 69.291 207.198 69.4856 206.248 69.3155C206.248 69.3155 204.643 67.3332 202.301 67.3042C201.695 66.9183 201.005 66.6819 200.29 66.6145L200.423 63.5889C200.423 63.5889 198.644 70.0748 198.812 72.399C198.98 74.7233 204.695 76.3346 207.552 75.6855C210.41 75.0363 211.865 70.5906 212.734 66.4116C212.798 66.0638 212.12 65.1886 212.12 65.1886Z" fill="#263238"/>
<path id="Vector_57" d="M200.637 68.7996C200.637 68.7996 202.898 69.8834 204.909 69.6284" stroke="white" stroke-linecap="round" stroke-linejoin="round"/>
<path id="Vector_58" d="M213.992 56.9233C214.734 56.3436 212.833 53.8513 211.766 53.9035C210.7 53.9556 205.466 54.1527 205.466 54.1527C205.466 54.1527 204.364 48.3913 213.175 51.5038C214.618 52.0139 215.082 53.3644 216.374 54.0542C217.667 54.7439 219.417 58.3723 218.919 61.4675C218.42 64.5626 216.768 69.9936 213.772 71.6223C213.772 71.6223 212.74 71.518 213.366 70.8051C216.316 67.4839 213.227 61.2356 212.734 66.4L211.697 65.7798C211.688 65.2127 211.747 64.6466 211.87 64.0931C212.091 62.6731 210.52 59.7692 213.992 56.9233Z" fill="#263238"/>
<g id="Vector_59">
<path d="M213.54 64.812C213.54 64.812 215.435 62.5631 216.583 63.3282C217.73 64.0933 216.959 66.8059 216.345 67.484C215.731 68.1622 215.232 68.3129 214.38 69.3968C213.528 70.4807 212.456 70.1155 212.641 69.2461" fill="white"/>
<path d="M213.54 64.812C213.54 64.812 215.435 62.5631 216.583 63.3282C217.73 64.0933 216.959 66.8059 216.345 67.484C215.731 68.1622 215.232 68.3129 214.38 69.3968C213.528 70.4807 212.456 70.1155 212.641 69.2461" stroke="#263238" stroke-linecap="round" stroke-linejoin="round"/>
</g>
<path id="Vector_60" d="M207.744 63.1543C207.807 64.412 207.042 65.4727 206.005 65.5249C204.967 65.5771 204.121 64.6033 204.057 63.3455C203.993 62.0878 204.759 61.0271 205.796 60.9749C206.834 60.9227 207.668 61.8965 207.744 63.1543Z" stroke="#263238" stroke-width="0.5" stroke-miterlimit="10"/>
<path id="Vector_61" d="M202.399 62.0122C202.469 63.2699 201.698 64.3306 200.69 64.3886C199.681 64.4466 198.806 63.4612 198.736 62.2034C198.667 60.9457 199.443 59.885 200.475 59.8328C201.507 59.7806 202.336 60.7544 202.399 62.0122Z" stroke="#263238" stroke-width="0.5" stroke-miterlimit="10"/>
<g id="Vector_62">
<path d="M202.95 60.9343C202.95 61.5139 199.948 64.9395 199.913 65.693C199.878 66.4465 202.707 66.4929 202.707 66.4929" fill="white"/>
<path d="M202.95 60.9343C202.95 61.5139 199.948 64.9395 199.913 65.693C199.878 66.4465 202.707 66.4929 202.707 66.4929" stroke="#263238" stroke-linecap="round" stroke-linejoin="round"/>
</g>
<path id="Vector_63" d="M202.399 62.0123C202.399 62.0123 203.298 61.7863 204.051 62.9976" stroke="#263238" stroke-width="0.5" stroke-miterlimit="10"/>
<path id="Vector_64" d="M207.755 63.5947L208.729 63.7396L214.195 64.1222" stroke="#263238" stroke-width="0.5" stroke-miterlimit="10"/>
<path id="Vector_65" d="M224.39 89.4279L223.3 88.0774C223.3 88.0774 214.119 89.1265 210.062 94.5981C210.062 94.5981 202.527 91.0392 195.745 92.7723L195.548 95.2009L210.381 104.075L216.177 101.664L224.39 89.4279Z" fill="white" stroke="#263238" stroke-linecap="round" stroke-linejoin="round"/>
<path id="Vector_66" d="M225.88 88.6106L224.315 99.0437C224.315 99.0437 215.679 102.834 213.882 105.883L213.453 105.941L211.424 106.225L210.329 105.901C207.648 105.12 204.918 104.524 202.156 104.115C201.197 103.967 200.225 103.93 199.258 104.005L193.415 94.8994C193.415 94.8994 202.452 93.6475 208.7 95.7863L211.691 95.5776L211.801 95.4849C212.699 94.7487 218.994 89.7466 225.88 88.6106Z" fill="#5F0A61"/>
<g id="Group">
<path id="Vector_67" opacity="0.3" d="M213.337 103.507L211.801 95.4793C212.693 94.749 218.988 89.7469 225.874 88.6108L224.309 99.0439C224.309 99.0439 215.673 102.835 213.876 105.883L213.447 105.941L213.337 103.507Z" fill="black" fill-opacity="0.7"/>
<path id="Vector_68" opacity="0.3" d="M210.363 104.075L210.323 105.895C207.642 105.115 204.912 104.519 202.15 104.11C202.273 102.269 202.993 100.518 204.201 99.1237C205.409 97.7292 207.04 96.7672 208.845 96.3838L210.363 104.075Z" fill="black" fill-opacity="0.7"/>
</g>
<path id="Vector_69" d="M225.88 88.6106L224.315 99.0437C224.315 99.0437 215.679 102.834 213.882 105.883L213.453 105.941L211.424 106.225L210.329 105.901C207.648 105.12 204.918 104.524 202.156 104.115C201.197 103.967 200.225 103.93 199.258 104.005L193.415 94.8994C193.415 94.8994 202.452 93.6475 208.7 95.7863L211.691 95.5776L211.801 95.4849C212.699 94.7487 218.994 89.7466 225.88 88.6106Z" stroke="#263238" stroke-linecap="round" stroke-linejoin="round"/>
<path id="Vector_70" d="M213.302 108.428C210.207 108.231 204.318 103.49 204.318 103.49C203.964 102.605 203.466 101.785 202.846 101.061C202.005 100.221 203.124 99.5194 203.124 99.5194C203.124 99.5194 202.144 98.8876 201.588 98.5399C201.032 98.1921 202.005 97.2763 202.005 97.2763C202.005 97.2763 206.208 97.8559 206.642 97.6994C207.077 97.5429 211.111 100.151 211.737 100.221C212.587 100.236 213.426 100.018 214.16 99.589C214.577 99.2412 215.87 97.0676 216.71 96.6445C217.551 96.2214 219.029 96.2272 218.322 97.1372C217.614 98.0472 217.742 100.076 217.394 100.36C217.046 100.644 216.473 103.693 216.473 104.742L221.052 108.927L218.443 112.48L213.302 108.428Z" fill="white" stroke="#263238" stroke-linecap="round" stroke-linejoin="round"/>
<path id="Vector_71" d="M203.107 99.5193C203.93 99.6113 204.732 99.8364 205.483 100.186" stroke="#263238" stroke-linecap="round" stroke-linejoin="round"/>
<path id="Vector_72" d="M206.225 101.177C206.225 101.177 205.964 102.238 205.895 102.4C205.825 102.562 206.758 103.6 206.625 104.075C206.492 104.55 207.57 105.814 207.57 105.814" stroke="#263238" stroke-linecap="round" stroke-linejoin="round"/>
<path id="Vector_73" d="M205.17 102.4C204.365 102.013 203.59 101.565 202.852 101.061" stroke="#263238" stroke-linecap="round" stroke-linejoin="round"/>
<path id="Vector_74" d="M202.927 76.0043L204.932 80.0442L213.175 75.4768L214.989 79.5225L206.579 84.8608L204.961 80.6818L201.692 83.8291L200.585 78.7401L202.927 76.0043Z" fill="#757575" stroke="#263238" stroke-linecap="round" stroke-linejoin="round"/>
<g id="Vector_75">
<path d="M228.563 85.1157C230.563 87.2545 237.675 102.939 238.359 113.042H216.693V112.137L214.328 110.752C214.328 110.752 215.794 105.594 219.973 106.399L221.191 108.138L223.886 110.167C223.886 110.167 228.616 110.288 229.989 111.651" fill="#757575"/>
<path d="M228.563 85.1157C230.563 87.2545 237.675 102.939 238.359 113.042H216.693V112.137L214.328 110.752C214.328 110.752 215.794 105.594 219.973 106.399L221.191 108.138L223.886 110.167C223.886 110.167 228.616 110.288 229.989 111.651" stroke="#263238" stroke-linecap="round" stroke-linejoin="round"/>
</g>
<path id="Vector_76" d="M223.886 110.19C223.886 110.19 226.512 106.405 230.372 108.005" stroke="#263238" stroke-linecap="round" stroke-linejoin="round"/>
<path id="Vector_77" d="M222.883 104.075C223.726 105.639 224.477 107.251 225.132 108.903" stroke="#263238" stroke-linecap="round" stroke-linejoin="round"/>
<g id="Vector_78">
<path d="M187.341 98.2616C187.341 98.2616 185.735 88.9066 186.182 85.6724L187.341 98.2616Z" fill="#757575"/>
<path d="M187.341 98.2616C187.341 98.2616 185.735 88.9066 186.182 85.6724" stroke="#263238" stroke-linecap="round" stroke-linejoin="round"/>
</g>
<g id="Vector_79">
<path d="M184.13 89.3184C184.13 89.3184 185.023 93.9147 187.028 96.3781L184.13 89.3184Z" fill="#757575"/>
<path d="M184.13 89.3184C184.13 89.3184 185.023 93.9147 187.028 96.3781" stroke="#263238" stroke-linecap="round" stroke-linejoin="round"/>
</g>
<g id="Vector_80">
<path d="M170.834 90.1238C170.834 90.1238 173.355 92.2104 171.749 97.4154L170.834 90.1238Z" fill="#757575"/>
<path d="M170.834 90.1238C170.834 90.1238 173.355 92.2104 171.749 97.4154" stroke="#263238" stroke-linecap="round" stroke-linejoin="round"/>
</g>
<path id="Vector_81" d="M204.55 83.9914C204.55 84.0994 204.518 84.205 204.458 84.2947C204.398 84.3844 204.312 84.4542 204.212 84.4953C204.112 84.5364 204.002 84.5468 203.897 84.5253C203.791 84.5038 203.694 84.4514 203.618 84.3746C203.542 84.2978 203.49 84.2002 203.47 84.0941C203.45 83.988 203.461 83.8783 203.503 83.7789C203.545 83.6794 203.616 83.5947 203.707 83.5356C203.797 83.4764 203.903 83.4454 204.011 83.4466C204.082 83.4466 204.153 83.4607 204.218 83.4881C204.284 83.5156 204.344 83.5558 204.394 83.6065C204.444 83.6572 204.484 83.7173 204.511 83.7833C204.537 83.8494 204.551 83.9201 204.55 83.9914Z" fill="#263238"/>
<path id="Vector_82" d="M203.124 91.9669C203.425 91.9669 203.669 91.7229 203.669 91.422C203.669 91.1211 203.425 90.8772 203.124 90.8772C202.823 90.8772 202.579 91.1211 202.579 91.422C202.579 91.7229 202.823 91.9669 203.124 91.9669Z" fill="#263238"/>
<path id="Vector_83" d="M202.301 108.7C202.602 108.7 202.846 108.456 202.846 108.155C202.846 107.855 202.602 107.611 202.301 107.611C202 107.611 201.756 107.855 201.756 108.155C201.756 108.456 202 108.7 202.301 108.7Z" fill="#263238"/>
<path id="Vector_84" d="M131.779 58.9865H138.607L142.027 53.0686L138.607 47.1565H131.779L128.365 53.0686L131.779 58.9865Z" stroke="#263238" stroke-linecap="round" stroke-linejoin="round"/>
<path id="Vector_85" d="M130.788 71.9585L127.374 66.0464H120.546" stroke="#263238" stroke-linecap="round" stroke-linejoin="round"/>
<path id="Vector_86" d="M121.462 53.0688H128.29L131.704 47.1567L128.29 41.2388H121.462L118.048 47.1567L121.462 53.0688Z" stroke="#263238" stroke-linecap="round" stroke-linejoin="round"/>
<path id="Vector_87" d="M131.779 47.1566H138.607L142.027 41.2388L138.607 35.3267H131.779L128.365 41.2388L131.779 47.1566Z" stroke="#263238" stroke-linecap="round" stroke-linejoin="round"/>
<path id="Vector_88" d="M130.788 47.1566C130.787 46.9739 130.84 46.7949 130.941 46.6424C131.042 46.49 131.185 46.371 131.354 46.3005C131.523 46.23 131.708 46.2113 131.888 46.2467C132.067 46.2821 132.232 46.3699 132.361 46.4992C132.49 46.6284 132.578 46.7932 132.614 46.9725C132.649 47.1518 132.63 47.3376 132.56 47.5062C132.489 47.6748 132.37 47.8187 132.218 47.9195C132.065 48.0203 131.886 48.0736 131.704 48.0724C131.461 48.0724 131.228 47.9759 131.056 47.8042C130.884 47.6324 130.788 47.3995 130.788 47.1566Z" fill="#263238"/>
<path id="Vector_89" d="M117.445 35.657C117.951 35.657 118.361 35.247 118.361 34.7412C118.361 34.2355 117.951 33.8254 117.445 33.8254C116.939 33.8254 116.529 34.2355 116.529 34.7412C116.529 35.247 116.939 35.657 117.445 35.657Z" fill="#263238"/>
<path id="Vector_90" d="M129.872 71.9585C129.872 71.7774 129.926 71.6003 130.026 71.4497C130.127 71.2991 130.27 71.1817 130.437 71.1124C130.605 71.0431 130.789 71.025 130.966 71.0603C131.144 71.0957 131.307 71.1829 131.435 71.311C131.563 71.439 131.651 71.6022 131.686 71.7799C131.721 71.9575 131.703 72.1416 131.634 72.309C131.565 72.4763 131.447 72.6193 131.297 72.72C131.146 72.8206 130.969 72.8743 130.788 72.8743C130.545 72.8743 130.312 72.7778 130.14 72.6061C129.968 72.4343 129.872 72.2014 129.872 71.9585Z" fill="#263238"/>
<path id="Vector_91" d="M120.546 66.9622C121.052 66.9622 121.462 66.5522 121.462 66.0464C121.462 65.5406 121.052 65.1306 120.546 65.1306C120.04 65.1306 119.63 65.5406 119.63 66.0464C119.63 66.5522 120.04 66.9622 120.546 66.9622Z" fill="#263238"/>
<path id="Vector_92" d="M148.623 41.3954C148.623 41.2129 148.677 41.0345 148.778 40.8828C148.88 40.7312 149.024 40.6131 149.193 40.5435C149.362 40.4739 149.547 40.456 149.726 40.492C149.905 40.528 150.069 40.6164 150.198 40.7459C150.327 40.8753 150.414 41.0401 150.449 41.2192C150.484 41.3984 150.465 41.5839 150.394 41.7522C150.323 41.9205 150.204 42.064 150.052 42.1645C149.9 42.2651 149.721 42.3182 149.538 42.317C149.418 42.317 149.298 42.2932 149.187 42.2468C149.075 42.2004 148.974 42.1324 148.889 42.0468C148.804 41.9611 148.736 41.8595 148.691 41.7477C148.645 41.6359 148.622 41.5162 148.623 41.3954Z" fill="#263238"/>
<path id="Vector_93" d="M127.304 66.9622C127.81 66.9622 128.22 66.5522 128.22 66.0464C128.22 65.5406 127.81 65.1306 127.304 65.1306C126.799 65.1306 126.389 65.5406 126.389 66.0464C126.389 66.5522 126.799 66.9622 127.304 66.9622Z" fill="#263238"/>
<path id="Vector_94" d="M141.088 41.3955C141.088 41.2132 141.142 41.035 141.243 40.8835C141.344 40.7319 141.488 40.6138 141.657 40.544C141.825 40.4743 142.01 40.456 142.189 40.4916C142.368 40.5271 142.532 40.6149 142.661 40.7438C142.79 40.8727 142.878 41.0369 142.913 41.2157C142.949 41.3944 142.93 41.5797 142.861 41.7481C142.791 41.9165 142.673 42.0605 142.521 42.1617C142.37 42.263 142.192 42.3171 142.009 42.3171C141.765 42.3171 141.53 42.22 141.358 42.0471C141.185 41.8743 141.088 41.6399 141.088 41.3955Z" fill="#263238"/>
<path id="Vector_95" d="M130.788 58.9865C130.787 58.8037 130.84 58.6247 130.941 58.4723C131.042 58.3198 131.185 58.2008 131.354 58.1303C131.523 58.0599 131.708 58.0411 131.888 58.0765C132.067 58.1119 132.232 58.1998 132.361 58.329C132.49 58.4582 132.578 58.623 132.614 58.8023C132.649 58.9816 132.63 59.1674 132.56 59.336C132.489 59.5047 132.37 59.6485 132.218 59.7493C132.065 59.8502 131.886 59.9034 131.704 59.9022C131.461 59.9007 131.229 59.8038 131.058 59.6323C130.886 59.4609 130.789 59.2289 130.788 58.9865Z" fill="#263238"/>
<path id="Vector_96" d="M142.027 41.3955H149.544" stroke="#263238" stroke-linecap="round" stroke-linejoin="round"/>
<path id="Vector_97" d="M131.704 58.9866L127.304 66.0463" stroke="#263238" stroke-linecap="round" stroke-linejoin="round"/>
<path id="Vector_98" d="M121.462 41.2387L117.445 34.7412" stroke="#263238" stroke-linecap="round" stroke-linejoin="round"/>
<path id="Vector_99" d="M113.591 87.5677C114.206 87.0135 114.897 86.5491 115.642 86.1882C115.673 86.3743 115.773 86.5418 115.923 86.6561C116.073 86.7704 116.261 86.8229 116.448 86.8026C116.86 86.7389 117.323 86.3331 117.607 86.6287C117.723 86.7447 117.746 86.9301 117.868 87.0403C118.239 87.3822 118.871 86.6461 119.288 86.9243C119.398 86.9997 119.456 87.1272 119.572 87.2026C119.664 87.2421 119.762 87.2625 119.862 87.2625C119.962 87.2625 120.06 87.2421 120.152 87.2026C121.187 86.9666 122.25 86.875 123.311 86.9301L128.174 86.9649L127.803 86.7736" stroke="#263238" stroke-linecap="round" stroke-linejoin="round"/>
<path id="Vector_100" d="M113.33 91.6247C113.37 91.4343 113.476 91.264 113.629 91.1433C113.782 91.0227 113.972 90.9593 114.167 90.9641C114.361 90.9689 114.548 91.0416 114.695 91.1697C114.842 91.2977 114.939 91.4731 114.97 91.6653C115.091 91.6091 115.198 91.5286 115.286 91.4289C115.374 91.3291 115.44 91.2123 115.48 91.0857C115.793 91.787 116.761 91.845 117.532 91.7928L120.969 91.5494C122.001 91.474 123.206 91.2885 123.67 90.3901C124.18 91.3199 124.383 92.387 124.25 93.4389C124.568 92.6817 124.983 91.9687 125.484 91.3175C125.589 91.6885 125.693 92.0594 125.792 92.4304C128.185 90.7553 131.46 91.8508 134.358 91.4856" stroke="#263238" stroke-linecap="round" stroke-linejoin="round"/>
<path id="Vector_101" d="M113.637 96.998C113.626 96.8914 113.655 96.7845 113.718 96.6978C113.781 96.6111 113.874 96.5509 113.979 96.5286C114.011 96.6337 114.065 96.731 114.137 96.8146C114.208 96.8982 114.296 96.9663 114.395 97.0146C114.494 97.063 114.601 97.0905 114.711 97.0957C114.821 97.1008 114.931 97.0833 115.034 97.0444C115.447 96.8707 115.802 96.5808 116.054 96.2098C116.14 96.2799 116.241 96.3308 116.348 96.359C116.456 96.3873 116.568 96.3923 116.678 96.3736C116.788 96.355 116.892 96.3131 116.985 96.2509C117.077 96.1886 117.155 96.1074 117.213 96.0127C117.472 96.4315 117.686 96.8764 117.851 97.34C118.164 96.5401 119.224 96.4126 120.088 96.4184H127.043" stroke="#263238" stroke-linecap="round" stroke-linejoin="round"/>
<path id="Vector_102" d="M167.402 33.9124C165.742 33.8721 164.114 34.3748 162.765 35.3441C161.096 36.4106 159.508 38.2074 159.925 40.1433C160.342 42.0792 162.626 43.1051 164.637 43.4935C166.367 43.8303 168.127 43.9857 169.889 43.9572C170.567 43.9674 171.245 43.8954 171.906 43.7427C172.574 43.5533 173.223 43.299 173.842 42.9834L178.328 40.8736C178.942 40.5838 179.632 40.2128 179.8 39.5521C180.009 38.7348 179.308 37.9755 178.641 37.4828C176.123 35.6819 173.017 34.8993 169.947 35.2919" stroke="#263238" stroke-linecap="round" stroke-linejoin="round"/>
<path id="Vector_103" d="M162.076 38.2481C162.339 37.9518 162.681 37.735 163.061 37.6221C162.985 37.8438 162.985 38.0843 163.061 38.306C163.165 38.5147 163.484 38.619 163.641 38.4451C163.797 38.2712 163.832 37.993 164.006 38.08L164.214 38.5437C164.498 38.4451 164.719 38.2133 164.997 38.0916C165.314 37.9853 165.651 37.9535 165.982 37.9988C168.471 38.1266 170.966 38.051 173.442 37.7728" stroke="#263238" stroke-linecap="round" stroke-linejoin="round"/>
<path id="Vector_104" d="M166.133 40.7404C166.169 40.6219 166.232 40.5136 166.318 40.424C166.404 40.3344 166.509 40.2661 166.626 40.2245C166.492 40.3694 166.655 40.6187 166.852 40.6534C167.051 40.657 167.25 40.6154 167.431 40.5317C167.651 40.4749 167.877 40.4438 168.104 40.439L172.329 40.1492" stroke="#263238" stroke-linecap="round" stroke-linejoin="round"/>
<path id="Vector_105" d="M167.936 46.6292C166.713 50.9859 164.178 54.8605 160.676 57.7259C157.174 60.5913 152.874 62.3085 148.362 62.644" stroke="#263238" stroke-linecap="round" stroke-linejoin="round"/>
<path id="Vector_106" d="M148.431 61.3862C147.612 61.8927 146.881 62.5311 146.269 63.2758C146.631 63.2 147.007 63.226 147.355 63.3508C147.703 63.4756 148.009 63.6944 148.24 63.9829" stroke="#263238" stroke-linecap="round" stroke-linejoin="round"/>
<path id="Vector_107" d="M166.544 62.7659L167.072 63.9251L167.825 63.0325C167.966 63.1376 168.065 63.2898 168.104 63.4614C168.162 63.6237 168.248 63.8034 168.411 63.8497C168.573 63.8961 168.776 63.6759 168.654 63.5541C168.761 63.6263 168.882 63.6746 169.009 63.6956C169.136 63.7166 169.266 63.7099 169.39 63.6759C169.5 63.6759 169.599 63.5947 169.709 63.5657C169.84 63.537 169.975 63.5253 170.109 63.531H177.94" stroke="#263238" stroke-linecap="round" stroke-linejoin="round"/>
<path id="Vector_108" d="M166.91 69.1416C166.946 69.0487 167.007 68.967 167.084 68.9043C167.162 68.8416 167.255 68.8001 167.353 68.7837C167.452 68.7674 167.553 68.7768 167.647 68.8111C167.741 68.8454 167.824 68.9033 167.889 68.9793C167.915 69.0535 167.954 69.1223 168.005 69.1822C168.075 69.2314 168.16 69.2528 168.245 69.2421C168.33 69.2313 168.408 69.1893 168.463 69.1242C168.59 69.0083 168.672 68.8518 168.805 68.7474C169.17 68.4634 169.692 68.6837 170.138 68.8054C170.71 68.925 171.296 68.9562 171.877 68.8981L176.323 68.6663" stroke="#263238" stroke-linecap="round" stroke-linejoin="round"/>
<path id="Vector_109" d="M167.049 74.0682C167.197 74.0721 167.342 74.0262 167.46 73.9379C167.579 73.8496 167.665 73.724 167.704 73.5813C167.777 73.5937 167.845 73.628 167.899 73.6797C167.953 73.7314 167.99 73.7981 168.005 73.8711C168.218 73.7395 168.4 73.5635 168.538 73.3552C171.402 73.39 174.269 73.39 177.14 73.3552" stroke="#263238" stroke-linecap="round" stroke-linejoin="round"/>
<path id="Vector_110" d="M167.043 77.7489C167.22 77.8222 167.419 77.8272 167.599 77.763C167.78 77.6988 167.931 77.5699 168.022 77.4011C168.204 77.5483 168.331 77.7526 168.382 77.9807C168.496 77.9034 168.625 77.8505 168.761 77.8256C168.896 77.8006 169.036 77.8041 169.17 77.8358C169.28 77.8358 169.39 77.9112 169.5 77.9402C169.778 78.0114 170.066 78.0368 170.352 78.0155L180.345 77.8706" stroke="#263238" stroke-linecap="round" stroke-linejoin="round"/>
<path id="Vector_111" d="M140.212 101.183L144.751 100.742C144.795 100.748 144.84 100.743 144.882 100.726C144.923 100.71 144.96 100.684 144.989 100.65C145.018 100.616 145.038 100.575 145.047 100.532C145.056 100.488 145.054 100.443 145.041 100.4V97.502C145.052 97.4058 145.027 97.3088 144.971 97.2296C144.934 97.1956 144.89 97.1693 144.842 97.1524C144.794 97.1355 144.743 97.1283 144.693 97.1311C143.707 97.0441 141.488 96.5515 140.636 97.218C139.783 97.8846 140.218 100.191 140.212 101.183Z" stroke="#263238" stroke-linecap="round" stroke-linejoin="round"/>
<path id="Vector_112" d="M141.511 98.5977C141.569 98.8701 141.621 99.1425 141.679 99.4207C142.367 99.2771 143.072 99.24 143.771 99.3106" stroke="#263238" stroke-linecap="round" stroke-linejoin="round"/>
<path id="Vector_113" d="M143.823 102.435C143.781 102.5 143.758 102.576 143.756 102.654C143.755 102.732 143.775 102.808 143.815 102.875C143.854 102.942 143.912 102.997 143.981 103.033C144.05 103.068 144.128 103.084 144.206 103.078C144.513 103.02 144.757 102.609 145.041 102.736" stroke="#263238" stroke-linecap="round" stroke-linejoin="round"/>
<path id="Vector_114" d="M140.699 95.7519C140.757 95.6656 140.838 95.5979 140.933 95.557C141.028 95.5161 141.133 95.5038 141.235 95.5216C141.337 95.5395 141.432 95.5866 141.508 95.6574C141.583 95.7281 141.637 95.8194 141.661 95.92L142.751 95.7925" stroke="#263238" stroke-linecap="round" stroke-linejoin="round"/>
<path id="Vector_115" d="M149.741 105.362C151.287 105.362 152.833 105.362 154.378 105.362C155.58 105.378 156.781 105.306 157.972 105.148C158.105 105.14 158.232 105.087 158.331 104.997C158.413 104.879 158.449 104.734 158.43 104.591V97.543C158.43 97.4618 151.329 97.2358 150.501 97.8096C148.831 98.9804 149.741 103.559 149.741 105.362Z" stroke="#263238" stroke-linecap="round" stroke-linejoin="round"/>
<path id="Vector_116" d="M152.257 99.6294L153.364 99.6584C153.165 100.411 152.85 101.129 152.431 101.786C152.28 101.988 152.1 102.243 152.21 102.47C152.79 102.562 153.468 102.614 153.833 102.168C154.309 101.588 153.891 100.678 154.251 100.029L154.39 101.403L154.871 101.861C154.996 102.001 155.153 102.108 155.329 102.174C155.417 102.205 155.513 102.204 155.6 102.172C155.688 102.141 155.762 102.08 155.81 102" stroke="#263238" stroke-linecap="round" stroke-linejoin="round"/>
<path id="Vector_117" d="M155.48 106.544C155.845 106.411 155.995 107.095 156.372 107.193C156.749 107.292 156.952 106.793 157.271 106.573C157.422 106.473 157.604 106.431 157.784 106.454C157.964 106.477 158.13 106.565 158.25 106.701" stroke="#263238" stroke-linecap="round" stroke-linejoin="round"/>
<path id="Vector_118" d="M152.489 95.3923C152.836 95.4793 152.697 96.0589 152.958 96.3081C153.219 96.5574 153.654 96.3081 153.949 96.0705C154.245 95.8329 154.784 95.7285 154.894 96.0705" stroke="#263238" stroke-linecap="round" stroke-linejoin="round"/>
<path id="Vector_119" d="M241.686 112.908H102.787V122.716H241.686V112.908Z" fill="#BFBFBF" stroke="#263238" stroke-linecap="round" stroke-linejoin="round"/>
<path id="Vector_120" d="M215.986 116.769H125.229V118.855H215.986V116.769Z" fill="#263238"/>
<path id="Vector_121" d="M176.699 117.829C176.699 118.131 176.61 118.426 176.442 118.676C176.275 118.927 176.037 119.122 175.758 119.238C175.48 119.353 175.173 119.383 174.877 119.324C174.582 119.266 174.31 119.12 174.097 118.907C173.884 118.694 173.739 118.422 173.68 118.127C173.621 117.831 173.651 117.525 173.767 117.246C173.882 116.967 174.077 116.729 174.328 116.562C174.579 116.394 174.873 116.305 175.175 116.305C175.579 116.305 175.967 116.466 176.253 116.751C176.539 117.037 176.699 117.425 176.699 117.829Z" fill="#5F0A61" stroke="#263238" stroke-linecap="round" stroke-linejoin="round"/>
<path id="Vector_122" d="M237.188 115.934H233.432V119.69H237.188V115.934Z" stroke="#263238" stroke-linecap="round" stroke-linejoin="round"/>
<path id="Vector_123" d="M230.888 115.934H227.132V119.69H230.888V115.934Z" stroke="#263238" stroke-linecap="round" stroke-linejoin="round"/>
<path id="Vector_124" d="M113.631 115.893H107.087V119.73H113.631V115.893Z" stroke="#263238" stroke-linecap="round" stroke-linejoin="round"/>
<path id="Vector_125" d="M107.012 21.8159H131.704" stroke="white" stroke-linecap="round" stroke-linejoin="round"/>
<path id="Vector_126" d="M238.168 21.7291C238.169 22.0173 238.084 22.2994 237.925 22.5395C237.766 22.7797 237.538 22.967 237.272 23.0779C237.006 23.1887 236.713 23.218 236.43 23.162C236.148 23.1061 235.888 22.9674 235.684 22.7636C235.48 22.5598 235.342 22.3 235.286 22.0173C235.23 21.7345 235.259 21.4415 235.37 21.1755C235.481 20.9094 235.668 20.6822 235.908 20.5228C236.148 20.3634 236.43 20.2789 236.719 20.28C237.103 20.28 237.472 20.4327 237.743 20.7045C238.015 20.9762 238.168 21.3448 238.168 21.7291V21.7291Z" stroke="white" stroke-linecap="round" stroke-linejoin="round"/>
<path id="Vector_127" d="M232.435 21.816C232.435 22.1026 232.35 22.3827 232.191 22.621C232.032 22.8593 231.805 23.0451 231.541 23.1547C231.276 23.2644 230.985 23.2931 230.703 23.2372C230.422 23.1813 230.164 23.0433 229.962 22.8406C229.759 22.638 229.621 22.3798 229.565 22.0987C229.509 21.8176 229.538 21.5262 229.647 21.2615C229.757 20.9967 229.943 20.7704 230.181 20.6112C230.419 20.4519 230.7 20.3669 230.986 20.3669C231.37 20.3669 231.739 20.5196 232.011 20.7914C232.283 21.0631 232.435 21.4317 232.435 21.816V21.816Z" stroke="white" stroke-linecap="round" stroke-linejoin="round"/>
<path id="Vector_128" d="M226.703 21.9087C226.702 22.195 226.616 22.4746 226.456 22.7122C226.296 22.9497 226.069 23.1345 225.804 23.2433C225.539 23.3521 225.248 23.38 224.968 23.3234C224.687 23.2668 224.429 23.1284 224.227 22.9255C224.025 22.7226 223.888 22.4644 223.832 22.1835C223.777 21.9025 223.806 21.6115 223.916 21.347C224.025 21.0826 224.211 20.8566 224.449 20.6977C224.688 20.5387 224.967 20.4539 225.254 20.4539C225.445 20.4539 225.634 20.4915 225.81 20.5647C225.986 20.6379 226.146 20.7451 226.281 20.8803C226.415 21.0155 226.522 21.1759 226.594 21.3524C226.667 21.5289 226.704 21.7179 226.703 21.9087V21.9087Z" stroke="white" stroke-linecap="round" stroke-linejoin="round"/>
</g>
<g id="Character">
<path id="Vector_129" d="M116.61 213.582H102.885L95.4544 211.229L93.1359 210.493L92.4578 217.489L11.1839 217.639C11.1839 217.639 12.4243 214.509 14.4471 209.919C18.8116 200.013 26.8103 183.285 33.8063 176.452C39.4866 170.905 53.6756 170.748 53.6756 170.748C55.1241 169.788 56.8237 169.276 58.5618 169.276C61.17 169.404 80.8886 171.542 82.1116 172.174C82.963 172.668 83.6937 173.345 84.2504 174.156C84.2504 174.156 91.1594 171.102 97.9467 173.855C104.734 176.608 116.61 213.582 116.61 213.582Z" fill="#F2F6FA"/>
<g id="Group_2">
<path id="Vector_130" opacity="0.2" d="M95.4544 211.229L93.1359 210.493L92.4578 217.489L11.1839 217.639C11.1839 217.639 12.4243 214.509 14.4471 209.919C17.5828 209.843 21.1185 209.681 21.1185 209.681L22.9385 203.728C22.9385 203.728 25.796 200.709 29.3665 202.488C29.2474 202.038 29.2722 201.561 29.4375 201.126C29.6027 200.69 29.9002 200.317 30.288 200.06C31.6675 199.144 37.3246 202.082 37.3246 202.082C37.3246 202.082 40.0488 196.866 40.9762 193.452C41.9036 190.038 42.518 198.28 42.518 198.28C42.518 198.28 44.8364 194.489 44.8364 193.452C44.8364 192.414 49.114 203.728 49.114 203.728C49.114 203.728 54.7711 204.407 56.3013 204.986C57.8314 205.566 73.0638 206.145 77.9673 204.986C82.8709 203.827 74.4896 210.782 74.4896 210.782C74.4896 210.782 83.1027 213.681 87.9715 211.779C92.8403 209.878 95.0197 207.844 95.0197 207.844C95.0197 207.844 95.1994 209.252 95.4544 211.229Z" fill="black" fill-opacity="0.7"/>
</g>
<path id="Vector_131" d="M116.61 213.582H102.885L95.4544 211.229L93.1359 210.493L92.4578 217.489L11.1839 217.639C11.1839 217.639 12.4243 214.509 14.4471 209.919C18.8116 200.013 26.8103 183.285 33.8063 176.452C39.4866 170.905 53.6756 170.748 53.6756 170.748C55.1241 169.788 56.8237 169.276 58.5618 169.276C61.17 169.404 80.8886 171.542 82.1116 172.174C82.963 172.668 83.6937 173.345 84.2504 174.156C84.2504 174.156 91.1594 171.102 97.9467 173.855C104.734 176.608 116.61 213.582 116.61 213.582Z" stroke="#263238" stroke-linecap="round" stroke-linejoin="round"/>
<path id="Vector_132" d="M90.9797 195.707C89.7727 197.409 88.3958 198.984 86.8703 200.407" stroke="#263238" stroke-linecap="round" stroke-linejoin="round"/>
<path id="Vector_133" d="M82.8535 203.786C76.9485 208.148 70.0083 210.895 62.7176 211.756" stroke="#263238" stroke-linecap="round" stroke-linejoin="round"/>
<path id="Vector_134" d="M108.235 201.81C108.235 201.81 110.345 200.5 112.194 200.929C114.043 201.358 115.573 203.184 115.573 203.184C115.573 203.184 130.921 201.914 134.405 202.024C137.888 202.135 145.684 204.418 145.684 204.418C145.684 204.418 149.463 203.653 149.869 203.81C150.275 203.966 149.052 216.828 149.052 216.828H99.2045C96.7585 216.828 94.9443 213.286 93.107 210.504C96.2724 199.433 97.8913 187.978 97.9178 176.463" fill="#F2F6FA"/>
<g id="Group_3">
<path id="Vector_135" opacity="0.2" d="M121.914 216.816H99.2161C96.7701 216.816 94.9559 213.275 93.1185 210.493C94.9358 204.247 96.229 197.861 96.9846 191.4C96.9846 191.4 99.3958 194.976 97.9293 199.121L99.3958 194.976C99.3958 194.976 100.804 199.416 99.3958 203.178C97.9873 206.94 96.9846 208.018 96.9846 208.018C96.9846 208.018 98.7234 210.29 100.567 209.681C102.41 209.073 104.415 212.759 104.415 212.759C104.415 212.759 108.844 212.927 109.765 212.759C110.188 212.684 115.921 214.66 121.914 216.816Z" fill="black" fill-opacity="0.7"/>
</g>
<path id="Vector_136" d="M108.235 201.81C108.235 201.81 110.345 200.5 112.194 200.929C114.043 201.358 115.573 203.184 115.573 203.184C115.573 203.184 130.921 201.914 134.405 202.024C137.888 202.135 145.684 204.418 145.684 204.418C145.684 204.418 149.463 203.653 149.869 203.81C150.275 203.966 149.052 216.828 149.052 216.828H99.2045C96.7585 216.828 94.9443 213.286 93.107 210.504C96.2724 199.433 97.8913 187.978 97.9178 176.463" stroke="#263238" stroke-linecap="round" stroke-linejoin="round"/>
<path id="Vector_137" d="M79.741 161.758V174.139C78.1715 175.208 76.5462 176.193 74.8722 177.089C71.493 178.88 67.1575 180.654 64.5782 179.645C59.9007 177.808 56.8693 170.748 56.8693 170.748C61.9178 166.9 62.5264 161.758 63.2914 159.312L79.741 161.758Z" fill="#F2F6FA" stroke="#263238" stroke-linecap="round" stroke-linejoin="round"/>
<path id="Vector_138" d="M54.4233 171.693C54.4233 171.693 58.7066 181.019 63.9058 182.706C69.105 184.393 77.9094 177.808 77.9094 177.808" stroke="#263238" stroke-linecap="round" stroke-linejoin="round"/>
<path id="Vector_139" d="M31.0358 182.978C31.0358 182.978 39.1504 189.296 40.5125 191.423C41.8746 193.55 40.5125 213.582 40.5125 213.582" stroke="#263238" stroke-linecap="round" stroke-linejoin="round"/>
<g id="Vector_140">
<path d="M19.9883 203.363C24.7701 200.28 28.1319 203.653 31.0358 204.262C33.9396 204.87 40.3618 201.59 45.1784 204.262C49.995 206.934 49.995 206 49.995 206C49.995 206 55.0377 209.849 52.4352 217.552L11.1665 217.628C11.1665 217.628 8.41331 211.744 17.4611 203.352" fill="#F2F6FA"/>
<path d="M19.9883 203.363C24.7701 200.28 28.1319 203.653 31.0358 204.262C33.9396 204.87 40.3618 201.59 45.1784 204.262C49.995 206.934 49.995 206 49.995 206C49.995 206 55.0377 209.849 52.4352 217.552L11.1665 217.628C11.1665 217.628 8.41331 211.744 17.4611 203.352" stroke="#263238" stroke-linecap="round" stroke-linejoin="round"/>
</g>
<path id="Vector_141" d="M60.4281 191.44L71.3191 211.362L71.6611 213.599L69.9222 212.052L58.6893 192.275C58.8545 191.971 59.1115 191.726 59.4236 191.576C59.7358 191.427 60.0873 191.379 60.4281 191.44Z" fill="#5F0A61" stroke="#263238" stroke-linecap="round" stroke-linejoin="round"/>
<path id="Vector_142" d="M50.0878 207.044C50.9103 206.805 51.7552 206.652 52.6091 206.586C53.5307 206.586 59.1994 202.395 61.1237 202.082C63.048 201.769 66.5083 204.639 68.2704 205.096C70.0324 205.554 69.9223 207.85 70.954 208.765C71.9857 209.681 70.4961 210.713 69.2151 209.681C69.3066 210.039 69.3123 210.414 69.2317 210.774C69.1511 211.135 68.9866 211.471 68.7514 211.756C68.7514 211.756 69.0992 213.008 68.7514 213.582H48.3489C48.3489 213.582 48.0417 209.681 50.0878 207.044Z" fill="#F2F6FA" stroke="#263238" stroke-linecap="round" stroke-linejoin="round"/>
<path id="Vector_143" d="M69.2557 209.681L67.4183 207.867L62.7176 206.36" stroke="#263238" stroke-linecap="round" stroke-linejoin="round"/>
<path id="Vector_144" d="M68.7978 211.756L65.9866 210.493L62.1438 209.768" stroke="#263238" stroke-linecap="round" stroke-linejoin="round"/>
<path id="Vector_145" d="M62.1438 212.759L65.9866 212.933L68.7978 213.582" stroke="#263238" stroke-linecap="round" stroke-linejoin="round"/>
<path id="Vector_146" d="M61.141 202.083C59.4022 203.607 61.141 205.212 60.3122 206.36C59.4833 207.508 58.5733 207.85 59.2805 209.681" stroke="#263238" stroke-linecap="round" stroke-linejoin="round"/>
<path id="Vector_147" d="M85.9545 214.55H178.797C178.797 215.369 178.472 216.155 177.893 216.734C177.313 217.314 176.527 217.639 175.708 217.639H93.4025C93.0798 217.639 92.7591 217.588 92.452 217.488L85.8385 215.355C85.7441 215.327 85.663 215.266 85.61 215.183C85.5569 215.1 85.5355 215 85.5495 214.903C85.5636 214.805 85.6122 214.716 85.6865 214.651C85.7608 214.586 85.8559 214.55 85.9545 214.55Z" fill="#5F0A61"/>
<g id="Group_4">
<path id="Vector_148" opacity="0.2" d="M178.797 214.55C178.797 215.369 178.472 216.155 177.893 216.735L177.801 216.816C177.232 217.345 176.485 217.639 175.708 217.64H93.4025C93.0798 217.639 92.7591 217.588 92.452 217.489L85.8385 215.356C85.7431 215.327 85.6612 215.265 85.6082 215.181C85.5551 215.096 85.5345 214.996 85.5501 214.897C85.5656 214.799 85.6164 214.709 85.6929 214.646C85.7694 214.582 85.8664 214.548 85.966 214.55H178.797Z" fill="black" fill-opacity="0.7"/>
<path id="Vector_149" opacity="0.2" d="M178.797 214.55C178.797 215.369 178.471 216.155 177.893 216.735L177.801 216.816H124.679C124.077 216.816 123.5 216.578 123.074 216.153C122.648 215.728 122.408 215.151 122.407 214.55H178.797Z" fill="black" fill-opacity="0.7"/>
</g>
<path id="Vector_150" d="M85.9545 214.55H178.797C178.797 215.369 178.472 216.155 177.893 216.734C177.313 217.314 176.527 217.639 175.708 217.639H93.4025C93.0798 217.639 92.7591 217.588 92.452 217.488L85.8385 215.355C85.7441 215.327 85.663 215.266 85.61 215.183C85.5569 215.1 85.5355 215 85.5495 214.903C85.5636 214.805 85.6122 214.716 85.6865 214.651C85.7608 214.586 85.8559 214.55 85.9545 214.55V214.55Z" stroke="#263238" stroke-linecap="round" stroke-linejoin="round"/>
<path id="Vector_151" d="M122.407 214.55C122.408 215.151 122.648 215.728 123.074 216.153C123.5 216.578 124.077 216.816 124.679 216.816H133.495" stroke="#263238" stroke-linecap="round" stroke-linejoin="round"/>
<path id="Vector_152" d="M195.415 176.44V176.516L184.611 214.104C184.45 214.586 184.146 215.009 183.739 215.314C183.332 215.62 182.842 215.794 182.333 215.814H126.052C125.839 215.831 125.625 215.794 125.43 215.706C125.235 215.619 125.065 215.484 124.936 215.314C124.806 215.143 124.722 214.943 124.69 214.732C124.659 214.521 124.68 214.305 124.754 214.104L135.546 176.516C135.707 176.032 136.011 175.61 136.418 175.304C136.825 174.999 137.316 174.825 137.824 174.806H194.105C194.312 174.787 194.52 174.82 194.71 174.902C194.901 174.983 195.068 175.11 195.198 175.272C195.328 175.434 195.415 175.625 195.453 175.829C195.491 176.033 195.478 176.243 195.415 176.44Z" fill="#5F0A61"/>
<g id="Group_5">
<path id="Vector_153" opacity="0.4" d="M195.415 176.44V176.516L184.611 214.104C184.45 214.586 184.146 215.009 183.739 215.314C183.332 215.62 182.842 215.794 182.333 215.814H126.423V215.738L137.21 178.15C137.371 177.667 137.675 177.245 138.082 176.94C138.489 176.634 138.979 176.46 139.488 176.44H195.415Z" fill="#F2F6FA"/>
</g>
<path id="Vector_154" d="M195.415 176.44V176.516L184.611 214.104C184.45 214.586 184.146 215.009 183.739 215.314C183.332 215.62 182.842 215.794 182.333 215.814H126.052C125.839 215.831 125.625 215.794 125.43 215.706C125.235 215.619 125.065 215.484 124.936 215.314C124.806 215.143 124.722 214.943 124.69 214.732C124.659 214.521 124.68 214.304 124.754 214.104L135.546 176.516C135.707 176.032 136.011 175.61 136.418 175.304C136.825 174.999 137.316 174.825 137.824 174.806H194.105C194.312 174.787 194.519 174.82 194.71 174.902C194.901 174.983 195.068 175.11 195.198 175.272C195.328 175.434 195.415 175.625 195.453 175.829C195.491 176.033 195.478 176.243 195.415 176.44Z" stroke="#263238" stroke-linecap="round" stroke-linejoin="round"/>
<path id="Vector_155" d="M164.133 196.002C163.654 196.989 162.915 197.827 161.996 198.426C161.077 199.025 160.013 199.364 158.917 199.405C156.552 199.405 155.155 197.573 155.804 195.312C156.192 194.156 156.923 193.144 157.899 192.413C158.875 191.681 160.051 191.263 161.27 191.215H161.374C161.265 191.438 161.176 191.671 161.108 191.91C160.441 194.153 161.803 195.967 164.133 196.002Z" fill="#F2F6FA" stroke="#263238" stroke-linecap="round" stroke-linejoin="round"/>
<path id="Vector_156" d="M126.713 213.97L137.245 177.281C137.339 176.999 137.516 176.753 137.753 176.575C137.99 176.397 138.276 176.295 138.572 176.284H193.126" stroke="#263238" stroke-linecap="round" stroke-linejoin="round"/>
<path id="Vector_157" d="M100.567 217.639H22.8979L23.8369 215.68C23.8369 215.68 31.1749 216.364 36.9884 214.55C39.5561 213.75 43.5091 213.391 47.4737 213.437C49.9718 213.472 56.052 213.495 59.8253 213.478C61.17 213.478 62.2249 213.478 62.7234 213.443C62.9147 213.443 63.106 213.443 63.303 213.443C64.3791 213.43 65.4535 213.531 66.5083 213.744C67.5261 213.629 68.5503 213.579 69.5745 213.594C71.3655 213.594 79.0686 213.565 81.1668 213.594C83.9316 213.628 87.1253 214.173 90.1567 214.591L90.2378 214.562V214.602C93.901 215.112 97.3323 215.46 99.5117 214.562L100.567 217.639Z" fill="#F2F6FA"/>
<g id="Group_6">
<path id="Vector_158" opacity="0.4" d="M100.567 217.639H40.3618L41.5848 215.535C41.5848 215.535 44.8712 217.454 48.0823 216.115C51.2934 214.776 54.5277 214.045 59.8254 213.466C60.9806 213.342 62.1449 213.327 63.3031 213.419C65.6091 213.596 67.8766 214.112 70.0324 214.95C70.0324 214.95 73.1913 213.57 81.1668 213.57C83.9316 213.605 87.1253 214.15 90.1567 214.567L90.2379 214.538V214.579C93.901 215.089 97.3324 215.436 99.5117 214.538L100.567 217.639Z" fill="#5F0A61"/>
<path id="Vector_159" d="M41.5848 215.535L23.8601 215.68L22.9211 217.639H40.3618L41.5848 215.535Z" fill="#5F0A61"/>
<path id="Vector_160" d="M40.8603 216.775L41.5848 215.535C43.1519 216.217 44.843 216.568 46.5521 216.567C49.1488 216.491 53.2525 213.274 61.1411 213.431" stroke="#263238" stroke-linecap="round" stroke-linejoin="round"/>
<path id="Vector_161" d="M66.491 213.732C67.9458 214.266 70.015 214.961 70.015 214.961C70.015 214.961 72.6928 213.42 78.576 213.582" stroke="#263238" stroke-linecap="round" stroke-linejoin="round"/>
<path id="Vector_162" d="M41.5848 215.535C41.5848 215.535 32.4153 215.697 28.7463 215.779" stroke="#263238" stroke-linecap="round" stroke-linejoin="round"/>
<path id="Vector_163" d="M68.792 217.639C68.842 217.261 69.0093 216.909 69.2703 216.631C69.5313 216.353 69.8729 216.165 70.2469 216.091C71.5452 215.877 72.3857 217.483 72.3857 217.483" stroke="#263238" stroke-linecap="round" stroke-linejoin="round"/>
<path id="Vector_164" d="M70.015 214.961L70.2469 216.091" stroke="#263238" stroke-linecap="round" stroke-linejoin="round"/>
<path id="Vector_165" d="M71.3192 216.091C71.3192 216.091 75.446 214.208 79.4338 214.55" stroke="#263238" stroke-linecap="round" stroke-linejoin="round"/>
<path id="Vector_166" d="M69.6209 216.317C69.2557 216.033 63.0596 214.121 56.7186 215.535" stroke="#263238" stroke-linecap="round" stroke-linejoin="round"/>
<path id="Vector_167" d="M68.792 217.1C68.792 217.1 63.5755 216.109 59.0371 216.798" stroke="#263238" stroke-linecap="round" stroke-linejoin="round"/>
<path id="Vector_168" d="M71.8988 216.81C75.3614 215.844 78.9854 215.6 82.5463 216.091C86.0532 216.613 89.5966 216.849 93.1417 216.798" stroke="#263238" stroke-linecap="round" stroke-linejoin="round"/>
</g>
<path id="Vector_169" d="M100.567 217.639H22.8979L23.8369 215.68C23.8369 215.68 31.1749 216.364 36.9884 214.55C39.5561 213.75 43.5091 213.391 47.4737 213.437C49.9718 213.472 56.052 213.495 59.8253 213.478C61.17 213.478 62.2249 213.478 62.7234 213.443C62.9147 213.443 63.106 213.443 63.303 213.443C64.3791 213.43 65.4535 213.531 66.5083 213.744C67.5261 213.629 68.5503 213.579 69.5745 213.594C71.3655 213.594 79.0686 213.565 81.1668 213.594C83.9316 213.628 87.1253 214.173 90.1567 214.591L90.2378 214.562V214.602C93.901 215.112 97.3323 215.46 99.5117 214.562L100.567 217.639Z" stroke="#263238" stroke-linecap="round" stroke-linejoin="round"/>
<path id="Vector_170" d="M79.741 172.081V174.139C78.1714 175.208 76.5462 176.193 74.8722 177.089C71.1568 173.675 70.6294 167.189 70.6294 167.189L79.741 172.081Z" fill="#263238"/>
<g id="Vector_171">
<path d="M63.9058 160.229C59.5355 153.766 60.4281 141.681 66.0446 135.085C74.2984 125.452 95.8369 132.488 95.8195 146.097C95.8026 147.989 95.6399 149.876 95.3327 151.743C95.0486 153.54 93.4895 155.354 93.0142 157.145C92.5389 158.936 92.7302 161.782 92.5389 163.521C92.11 167.48 86.6326 175.333 85.1488 176.185C83.0738 177.345 71.8582 174.197 69.4122 167.004" fill="#F2F6FA"/>
<path d="M63.9058 160.229C59.5355 153.766 60.4281 141.681 66.0446 135.085C74.2984 125.452 95.8369 132.488 95.8195 146.097C95.8026 147.989 95.6399 149.876 95.3327 151.743C95.0486 153.54 93.4895 155.354 93.0142 157.145C92.5389 158.936 92.7302 161.782 92.5389 163.521C92.11 167.48 86.6326 175.333 85.1488 176.185C83.0738 177.345 71.8582 174.197 69.4122 167.004" stroke="#263238" stroke-linecap="round" stroke-linejoin="round"/>
</g>
<path id="Vector_172" d="M79.1903 152.241C79.1903 152.241 82.2449 151.128 84.9865 152.241" stroke="#263238" stroke-linecap="round" stroke-linejoin="round"/>
<path id="Vector_173" d="M91.2406 152.241C91.2406 152.241 93.4663 151.128 94.9559 152.241" stroke="#263238" stroke-linecap="round" stroke-linejoin="round"/>
<path id="Vector_174" d="M82.0478 157.435C81.8855 158.217 81.3523 158.774 80.8886 158.675C80.4249 158.576 80.1177 157.852 80.28 157.064C80.4423 156.275 80.9755 155.725 81.4682 155.829C81.9609 155.933 82.2101 156.664 82.0478 157.435Z" fill="#263238"/>
<path id="Vector_175" d="M91.8782 157.435C91.7159 158.217 91.1826 158.774 90.7189 158.675C90.2552 158.576 89.948 157.852 90.1103 157.064C90.2726 156.275 90.8001 155.725 91.2985 155.829C91.797 155.933 92.0405 156.664 91.8782 157.435Z" fill="#263238"/>
<g id="Vector_176">
<path d="M90.2726 153.429C90.2726 153.429 88.8178 155.951 88.6671 158.066C88.5164 160.182 90.9855 164.564 90.2726 165.938C89.5597 167.311 86.5283 167.242 85.5313 166.401" fill="#F2F6FA"/>
<path d="M90.2726 153.429C90.2726 153.429 88.8178 155.951 88.6671 158.066C88.5164 160.182 90.9855 164.564 90.2726 165.938C89.5597 167.311 86.5283 167.242 85.5313 166.401" stroke="#263238" stroke-linecap="round" stroke-linejoin="round"/>
</g>
<path id="Vector_177" d="M86.0704 169.172C84.0674 169.455 82.0252 169.164 80.1815 168.331" stroke="#263238" stroke-linecap="round" stroke-linejoin="round"/>
<path id="Vector_178" d="M68.2878 154.27C68.2878 154.27 69.7136 152.89 71.3945 153.429C73.0754 153.968 73.3826 158.547 73.3826 158.547L74.6056 157.243C74.6056 157.243 74.1477 154.652 75.9793 151.018C77.8109 147.384 76.8951 143.106 76.8951 143.106C76.8951 143.106 80.054 144.173 81.1495 146.619C81.1495 146.619 82.3435 144.022 81.1495 142.034C81.1495 142.034 86.0704 143.257 87.2934 146.926C87.2934 146.926 88.2614 144.173 87.931 142.799C87.931 142.799 91.2638 143.866 92.4868 147.077C92.4868 147.077 93.5996 144.631 93.1185 142.643C93.1185 142.643 94.4633 143.802 94.9791 147.233C95.9832 145.141 96.2782 142.779 95.8196 140.504C95.8196 140.504 97.5584 142.492 97.8366 144.173C97.8366 144.173 99.2509 139.281 90.9798 132.708C82.7086 126.135 68.5486 127.625 66.346 132.708C66.346 132.708 67.0764 128.964 68.5486 127.625C68.5486 127.625 64.4913 129.433 64.5782 133.166C64.5782 133.166 60.9962 132.708 59.1646 135.003C60.2872 134.918 61.4159 134.969 62.5264 135.154C62.5264 135.154 57.6344 138.052 57.9416 144.938C58.2488 151.824 62.5264 161.747 62.5264 161.747L65.8766 160.767C65.8766 160.767 66.4098 156.084 68.2878 154.27Z" fill="#263238"/>
<g id="Vector_179">
<path d="M72.0031 155.951C72.0031 155.951 69.4064 151.366 68.0327 151.059C66.659 150.752 64.0565 152.589 64.6651 155.035C65.2737 157.481 65.7374 161.608 66.5025 162.066C67.2676 162.524 68.4906 165.277 69.7136 164.512C69.8745 164.429 70.0137 164.309 70.1202 164.163C70.2266 164.017 70.2973 163.847 70.3266 163.669C70.3559 163.49 70.343 163.307 70.2889 163.135C70.2347 162.962 70.141 162.804 70.015 162.674" fill="#F2F6FA"/>
<path d="M72.0031 155.951C72.0031 155.951 69.4064 151.366 68.0327 151.059C66.659 150.752 64.0565 152.589 64.6651 155.035C65.2737 157.481 65.7374 161.608 66.5025 162.066C67.2676 162.524 68.4906 165.277 69.7136 164.512C69.8745 164.429 70.0137 164.309 70.1202 164.163C70.2266 164.017 70.2973 163.847 70.3266 163.669C70.3559 163.49 70.343 163.307 70.2889 163.135C70.2347 162.962 70.141 162.804 70.015 162.674" stroke="#263238" stroke-linecap="round" stroke-linejoin="round"/>
</g>
<path id="Vector_180" d="M101.048 191.4C100.785 192.53 100.448 193.642 100.039 194.727" stroke="#263238" stroke-linecap="round" stroke-linejoin="round"/>
<path id="Vector_181" d="M99.106 196.941C98.1822 199.047 96.8277 200.937 95.1298 202.488" stroke="#263238" stroke-linecap="round" stroke-linejoin="round"/>
<path id="Vector_182" d="M115.584 203.184C114.79 203.079 113.173 204.082 111.689 205.375" stroke="#263238" stroke-linecap="round" stroke-linejoin="round"/>
<path id="Vector_183" d="M110.6 206.401C109.441 207.6 108.542 208.87 108.542 209.681" stroke="#263238" stroke-linecap="round" stroke-linejoin="round"/>
<path id="Vector_184" d="M26.3235 200.059C26.3235 200.059 29.6215 200.975 29.6505 203.804" stroke="#263238" stroke-linecap="round" stroke-linejoin="round"/>
<path id="Vector_185" d="M38.6809 184.618C39.2284 185.231 39.7265 185.886 40.1705 186.577" stroke="#263238" stroke-linecap="round" stroke-linejoin="round"/>
<path id="Vector_186" d="M41.4746 188.966C42.1233 190.374 42.4727 191.902 42.5005 193.452C42.5005 198.222 41.1269 200.987 41.1269 200.987" stroke="#263238" stroke-linecap="round" stroke-linejoin="round"/>
<path id="Vector_187" d="M58.7067 179.941C59.5811 180.754 60.5171 181.498 61.5062 182.167" stroke="#263238" stroke-linecap="round" stroke-linejoin="round"/>
<path id="Vector_188" d="M64.4159 183.906C67.3777 185.401 71.209 186.526 75.1852 185.534" stroke="#263238" stroke-linecap="round" stroke-linejoin="round"/>
<g id="Group_7" opacity="0.2">
<path id="Vector_189" opacity="0.2" d="M70.6294 132.951C71.6648 132.793 72.7121 132.725 73.7593 132.748" stroke="#F2F6FA" stroke-linecap="round" stroke-linejoin="round"/>
<path id="Vector_190" opacity="0.2" d="M75.2837 132.83C78.118 133.096 81.6073 134.087 83.7751 137.078" stroke="#F2F6FA" stroke-linecap="round" stroke-linejoin="round"/>
<path id="Vector_191" opacity="0.2" d="M77.5095 130.627C77.5095 130.627 82.8245 130.685 86.6326 133.346" stroke="#F2F6FA" stroke-linecap="round" stroke-linejoin="round"/>
<path id="Vector_192" opacity="0.2" d="M88.1281 134.638C88.8097 135.351 89.3557 136.182 89.7394 137.09" stroke="#F2F6FA" stroke-linecap="round" stroke-linejoin="round"/>
<path id="Vector_193" opacity="0.2" d="M69.2557 135.218C69.2557 135.218 74.4723 137.055 76.2865 140.342" stroke="#F2F6FA" stroke-linecap="round" stroke-linejoin="round"/>
<path id="Vector_194" opacity="0.2" d="M66.7286 137.078C67.859 138.645 68.6721 140.417 69.1224 142.295" stroke="#F2F6FA" stroke-linecap="round" stroke-linejoin="round"/>
<path id="Vector_195" opacity="0.2" d="M69.447 144.874C69.4539 145.567 69.3898 146.258 69.2557 146.938" stroke="#F2F6FA" stroke-linecap="round" stroke-linejoin="round"/>
<path id="Vector_196" opacity="0.2" d="M63.2161 139.217C62.9476 139.899 62.7249 140.598 62.5495 141.309" stroke="#F2F6FA" stroke-linecap="round" stroke-linejoin="round"/>
<path id="Vector_197" opacity="0.2" d="M62.138 143.333C61.8336 145.14 61.8102 146.984 62.0684 148.798" stroke="#F2F6FA" stroke-linecap="round" stroke-linejoin="round"/>
</g>
<g id="Vector_198">
<path d="M131.622 227.945H204.77V217.639H1V227.945H42.1992" fill="#F2F6FA"/>
<path d="M131.622 227.945H204.77V217.639H1V227.945H42.1992" stroke="#263238" stroke-linecap="round" stroke-linejoin="round"/>
</g>
<path id="Vector_199" d="M126.371 227.945H115.984" stroke="#263238" stroke-linecap="round" stroke-linejoin="round"/>
</g>
</g>
</svg>
