<svg width="251" height="228" viewBox="0 0 251 228" fill="none" xmlns="http://www.w3.org/2000/svg">
<g id="online-connection/bro">
<g id="Floor">
<path id="Vector" d="M125.069 227.94C166.321 227.94 199.762 225.946 199.762 223.486C199.762 221.026 166.321 219.031 125.069 219.031C83.8179 219.031 50.377 221.026 50.377 223.486C50.377 225.946 83.8179 227.94 125.069 227.94Z" fill="#263238"/>
</g>
<g id="Plants">
<path id="Vector_2" d="M50.9202 192.548C51.9632 192.959 54.5109 192.909 54.5109 192.909C54.5109 192.909 53.9677 191.39 53.9188 191.296C53.3756 190.232 51.5938 188.475 50.1543 188.653C49.9139 188.687 49.6843 188.768 49.4809 188.89C49.2774 189.012 49.1047 189.172 48.9743 189.359C48.8438 189.546 48.7585 189.757 48.724 189.976C48.6896 190.196 48.7068 190.419 48.7745 190.632C49.0081 191.518 50.0294 192.191 50.9202 192.548Z" fill="#263238"/>
<path id="Vector_3" d="M51.7948 199.264C52.8812 199.408 55.1465 198.809 55.3312 198.769C55.7042 199.951 56.1633 201.108 56.7055 202.234C57.0206 202.892 57.3574 203.55 57.705 204.213C57.4986 203.941 57.3085 203.718 57.2759 203.659C56.4284 202.768 54.2176 201.496 52.8812 202.016C52.6621 202.107 52.4665 202.24 52.3073 202.404C52.148 202.569 52.0286 202.763 51.9569 202.972C51.8852 203.182 51.8627 203.403 51.8909 203.621C51.9191 203.839 51.9974 204.049 52.1207 204.238C52.6151 205.055 53.7938 205.461 54.7553 205.584C55.7168 205.708 57.6724 205.238 58.1885 205.089C58.3243 205.342 58.4546 205.584 58.5904 205.837C59.2532 207.034 59.9105 208.222 60.5243 209.405C60.7362 209.821 60.9317 210.242 61.1327 210.657C60.948 210.41 60.7905 210.207 60.7633 210.162C59.9159 209.272 57.6996 208 56.3633 208.514C56.1447 208.606 55.9497 208.739 55.791 208.904C55.6322 209.069 55.5131 209.262 55.4415 209.472C55.3698 209.681 55.3471 209.902 55.3749 210.12C55.4027 210.338 55.4803 210.548 55.6028 210.737C56.0971 211.558 57.2813 211.959 58.2374 212.088C59.1934 212.216 60.9534 211.786 61.5781 211.632C61.7628 212.063 61.953 212.498 62.1214 212.924C62.2191 213.221 62.3441 213.493 62.4256 213.795C62.507 214.097 62.6048 214.384 62.6972 214.676C62.8438 215.24 63.0014 215.824 63.1317 216.374C63.2241 216.76 63.3056 217.131 63.3925 217.502C63.1806 217.082 62.7515 216.275 62.708 216.21C62.0181 215.221 60.0408 213.647 58.6393 213.973C58.4075 214.034 58.1921 214.138 58.0072 214.279C57.8223 214.42 57.6719 214.595 57.5659 214.792C57.4599 214.99 57.4006 215.205 57.3918 215.425C57.383 215.644 57.4249 215.863 57.5149 216.067C57.868 216.943 58.9653 217.507 59.8942 217.765C60.91 218.047 63.1535 217.765 63.4468 217.765C63.5826 218.378 63.7076 218.977 63.8162 219.541C64.0606 220.789 64.2399 221.912 64.3594 222.857H65.31C65.1416 221.867 64.9244 220.709 64.6419 219.393C64.5061 218.769 64.3486 218.106 64.1802 217.413C64.8593 217.166 65.5214 216.882 66.1629 216.562C66.9071 217.294 68.8084 218.156 69.0528 218.264C68.7921 218.843 68.5368 219.403 68.2814 219.932C67.7382 221.036 67.2602 222.011 66.8148 222.842H67.8469C68.2217 222.075 68.64 221.204 69.0745 220.234C69.3407 219.65 69.6178 219.017 69.8839 218.363C70.1555 218.413 72.3882 218.829 73.4311 218.616C74.3709 218.418 75.5171 217.933 75.9354 217.082C76.0424 216.885 76.1028 216.67 76.1126 216.451C76.1224 216.232 76.0813 216.014 75.9921 215.81C75.9029 215.606 75.7676 215.422 75.5949 215.269C75.4223 215.117 75.2162 214.999 74.9902 214.924C73.6158 214.503 71.519 215.913 70.7476 216.874C70.7042 216.928 70.2859 217.586 70.0306 218.007C70.1392 217.74 70.2479 217.482 70.3565 217.205C70.5738 216.661 70.7748 216.111 70.9975 215.518C71.0899 215.23 71.1877 214.938 71.2854 214.646C71.3832 214.354 71.4538 214.038 71.5407 213.731C71.7309 213.013 71.8775 212.281 72.0133 211.538C72.5566 211.712 74.4089 212.305 75.3813 212.246C76.3536 212.187 77.5542 211.86 78.0974 211.078C78.2356 210.898 78.3308 210.694 78.3768 210.479C78.4227 210.263 78.4184 210.041 78.3641 209.828C78.3098 209.614 78.2067 209.413 78.0615 209.238C77.9164 209.063 77.7324 208.917 77.5216 208.811C76.2287 208.202 73.92 209.306 73.002 210.153C72.9422 210.207 72.361 210.87 72.0459 211.241C72.122 210.796 72.2035 210.35 72.2632 209.895C72.4425 208.584 72.5783 207.252 72.7195 205.936C72.763 205.53 72.8119 205.124 72.8608 204.718C73.0455 204.783 75.2509 205.53 76.3373 205.461C77.3043 205.401 78.5102 205.079 79.0534 204.297C79.1915 204.117 79.2863 203.913 79.3319 203.697C79.3775 203.482 79.3727 203.26 79.3178 203.046C79.263 202.832 79.1594 202.631 79.0137 202.456C78.868 202.281 78.6835 202.136 78.4722 202.031C77.1848 201.422 74.8761 202.526 73.9581 203.372C73.8874 203.436 73.0455 204.392 72.8716 204.644C72.9748 203.753 73.0889 202.862 73.241 201.991C73.4359 200.821 73.7154 199.663 74.0776 198.527C74.159 198.556 76.4623 199.348 77.5759 199.279C78.5374 199.215 79.7488 198.893 80.292 198.111C80.4302 197.931 80.5254 197.727 80.5714 197.512C80.6173 197.296 80.613 197.074 80.5587 196.861C80.5044 196.647 80.4013 196.446 80.2561 196.271C80.111 196.096 79.927 195.95 79.7162 195.844C78.4233 195.235 76.1146 196.339 75.1966 197.185C75.126 197.25 74.2188 198.284 74.0721 198.482C74.0721 198.413 74.1102 198.343 74.1319 198.274C74.5282 197.135 75.0354 196.03 75.6475 194.973C75.9788 194.384 76.3265 193.84 76.685 193.315C77.0978 193.503 78.9882 194.34 79.9986 194.379C81.009 194.419 82.2041 194.216 82.8559 193.493C83.0152 193.328 83.1345 193.135 83.2062 192.925C83.278 192.716 83.3005 192.495 83.2723 192.277C83.2441 192.059 83.1659 191.849 83.0427 191.66C82.9195 191.471 82.7541 191.308 82.5572 191.182C81.3458 190.449 78.9122 191.33 77.9018 192.063C77.8475 192.102 77.3586 192.558 76.9675 192.909C77.1359 192.677 77.2988 192.414 77.4618 192.211C78.0702 191.38 78.6786 190.647 79.2273 190.009C79.5423 189.648 79.8357 189.326 80.1127 189.019C80.6179 189.019 82.6713 188.955 83.5676 188.574C84.4639 188.192 85.4471 187.5 85.6589 186.594C85.7159 186.381 85.7233 186.159 85.6805 185.944C85.6378 185.728 85.5459 185.523 85.4108 185.341C85.2757 185.16 85.1003 185.006 84.896 184.89C84.6918 184.775 84.4631 184.699 84.2249 184.669C82.7799 184.53 81.0688 186.332 80.5418 187.406C80.493 187.5 79.966 189.034 79.9986 189.034H80.0312C79.7542 189.316 79.488 189.618 79.1621 189.959C78.6189 190.593 77.9616 191.311 77.3369 192.132C76.6478 193.013 76.0166 193.93 75.4465 194.879C74.7943 195.935 74.2489 197.044 73.8168 198.19C73.8168 198.19 73.8168 198.22 73.8168 198.235C73.8168 197.849 73.8168 196.75 73.7897 196.681C73.6267 195.508 72.5511 193.34 71.1225 193.097C70.8832 193.063 70.6387 193.075 70.405 193.133C70.1713 193.191 69.9538 193.294 69.7669 193.434C69.58 193.574 69.4279 193.749 69.3208 193.947C69.2136 194.145 69.1537 194.361 69.1452 194.582C69.0582 195.513 69.797 196.443 70.5195 197.057C71.3343 197.72 73.5941 198.358 73.7788 198.408C73.3748 199.585 73.0555 200.786 72.8227 202.001C72.6869 202.709 72.5729 203.421 72.4642 204.144C72.4642 203.808 72.4642 203.506 72.4642 203.466C72.2958 202.293 71.2202 200.125 69.7916 199.883C69.5523 199.848 69.3078 199.86 69.0741 199.919C68.8404 199.977 68.623 200.079 68.436 200.22C68.2491 200.36 68.0971 200.535 67.9899 200.733C67.8827 200.931 67.8228 201.147 67.8143 201.368C67.7274 202.298 68.4716 203.228 69.1886 203.817C69.9057 204.406 71.8341 204.995 72.3447 205.144L72.2306 205.97C72.0568 207.297 71.8884 208.618 71.6874 209.93C71.6168 210.385 71.5244 210.831 71.4375 211.281C71.4375 210.984 71.4375 210.732 71.4375 210.692C71.2746 209.524 70.199 207.351 68.7703 207.109C68.5314 207.076 68.2875 207.089 68.0545 207.148C67.8216 207.207 67.6048 207.309 67.4183 207.449C67.2318 207.589 67.0797 207.764 66.972 207.961C66.8643 208.158 66.8033 208.373 66.793 208.593C66.7061 209.519 67.4449 210.454 68.1674 211.038C68.8898 211.622 70.6281 212.162 71.2311 212.34C71.1279 212.795 71.0193 213.251 70.8943 213.686C70.802 213.983 70.7368 214.275 70.6227 214.567C70.5086 214.859 70.4163 215.151 70.3185 215.438C70.1012 215.983 69.8785 216.547 69.6503 217.077C69.4982 217.443 69.3407 217.789 69.1832 218.141C69.2647 217.69 69.395 216.799 69.4005 216.72C69.3855 215.677 69.0769 214.654 68.5042 213.751C68.5151 213.635 68.5151 213.519 68.5042 213.404C68.4741 213.186 68.3939 212.976 68.2689 212.788C68.1438 212.6 67.9766 212.438 67.7782 212.313C67.5799 212.188 67.3548 212.102 67.1176 212.062C66.8805 212.021 66.6366 212.027 66.4019 212.078C65.0004 212.414 64.115 214.656 64.0498 215.834C64.0498 215.904 64.0932 216.666 64.1313 217.141C64.0606 216.864 63.9955 216.596 63.9194 216.309C63.7727 215.745 63.6098 215.186 63.4359 214.582L63.1426 213.706C63.0557 213.414 62.9199 213.112 62.8058 212.815C62.5288 212.122 62.2083 211.434 61.8715 210.751C62.4147 210.633 64.3377 210.187 65.1308 209.648C65.9239 209.108 66.6735 208.143 66.6735 207.223C66.6804 207.003 66.6364 206.785 66.5445 206.582C66.4526 206.379 66.3148 206.195 66.14 206.044C65.9653 205.893 65.7575 205.777 65.5303 205.704C65.3031 205.63 65.0614 205.601 64.8211 205.619C63.3816 205.762 62.1051 207.856 61.866 209.009C61.866 209.083 61.7628 209.93 61.7302 210.4C61.5238 209.989 61.3174 209.578 61.0947 209.168C60.4483 207.985 59.7584 206.807 59.0739 205.629C58.8621 205.268 58.6556 204.901 58.4492 204.54C58.6448 204.5 60.9371 204.015 61.8009 203.412C62.5722 202.877 63.3871 202.001 63.3762 201.066C63.3823 200.846 63.3378 200.629 63.2455 200.426C63.1532 200.224 63.0153 200.041 62.8406 199.891C62.666 199.74 62.4585 199.624 62.2316 199.551C62.0048 199.478 61.7636 199.45 61.5238 199.467C60.0843 199.606 58.8077 201.699 58.5687 202.857C58.5687 202.941 58.4275 204.164 58.4112 204.476C57.9603 203.679 57.5149 202.882 57.1129 202.08C56.5629 200.999 56.0893 199.886 55.6951 198.749C55.7875 198.749 58.183 198.254 59.0685 197.616C59.8344 197.076 60.6492 196.2 60.6438 195.27C60.6499 195.05 60.6052 194.832 60.5127 194.629C60.4201 194.426 60.2818 194.243 60.1067 194.091C59.9315 193.94 59.7234 193.824 59.4959 193.751C59.2684 193.678 59.0265 193.649 58.786 193.666C57.3465 193.81 56.0699 195.903 55.8363 197.057C55.8363 197.151 55.6842 198.462 55.6788 198.7C55.6788 198.636 55.6245 198.571 55.6028 198.502C55.2441 197.353 54.9987 196.177 54.8694 194.988C54.7879 194.33 54.7499 193.701 54.7336 193.082C55.1899 193.033 57.2759 192.78 58.1396 192.305C59.0033 191.83 59.8779 191.058 59.9865 190.128C60.0193 189.912 60.0021 189.692 59.9361 189.482C59.8701 189.273 59.7568 189.078 59.6033 188.911C59.4499 188.743 59.2597 188.607 59.045 188.511C58.8304 188.414 58.596 188.36 58.3569 188.351C56.9065 188.351 55.4126 190.306 55.0107 191.424C55.0107 191.489 54.8423 192.132 54.7445 192.602C54.7445 192.32 54.7445 192.038 54.7445 191.771C54.7445 190.781 54.8151 189.855 54.8803 189.044C54.9237 188.583 54.9726 188.168 55.0269 187.782C55.4452 187.519 57.1238 186.44 57.6398 185.668C58.1559 184.896 58.5524 183.832 58.183 182.961C58.1019 182.755 57.9739 182.566 57.8075 182.407C57.6411 182.249 57.4399 182.124 57.217 182.041C56.9942 181.958 56.7546 181.918 56.5139 181.925C56.2733 181.932 56.0368 181.985 55.82 182.08C54.5326 182.684 54.1904 185.05 54.4077 186.213C54.4077 186.312 54.9129 187.856 54.9509 187.841C54.8966 188.212 54.8423 188.613 54.7879 189.054C54.701 189.86 54.6087 190.776 54.5815 191.781C54.5417 192.862 54.5708 193.944 54.6684 195.023C54.7717 196.229 54.9917 197.425 55.3257 198.596V198.64C55.0976 198.314 54.424 197.418 54.3642 197.354C53.5168 196.463 51.3059 195.191 49.9696 195.71C49.7505 195.802 49.5549 195.934 49.3956 196.099C49.2364 196.264 49.117 196.457 49.0453 196.667C48.9735 196.877 48.951 197.098 48.9793 197.316C49.0075 197.534 49.0858 197.744 49.2091 197.933C49.66 198.739 50.8387 199.135 51.7948 199.264Z" fill="#263238"/>
<path id="Vector_4" d="M76.6687 193.058C76.6687 193.058 77.1304 191.513 77.1467 191.414C77.326 190.246 76.9186 187.891 75.6094 187.316C75.3898 187.226 75.1518 187.179 74.9109 187.179C74.6701 187.178 74.4317 187.223 74.2114 187.312C73.9911 187.401 73.7937 187.531 73.6322 187.694C73.4706 187.856 73.3484 188.048 73.2736 188.257C72.9259 189.133 73.3659 190.212 73.8928 190.949C74.5121 191.81 76.6687 193.053 76.6687 193.058Z" fill="#263238"/>
<path id="Vector_5" d="M177.332 196.577C178.239 196.938 180.445 196.888 180.445 196.888C180.445 196.888 179.972 195.572 179.929 195.493C179.445 194.572 177.913 193.048 176.67 193.201C176.463 193.231 176.266 193.301 176.091 193.405C175.916 193.509 175.767 193.646 175.655 193.806C175.542 193.966 175.467 194.147 175.436 194.335C175.405 194.523 175.418 194.715 175.474 194.899C175.681 195.686 176.566 196.265 177.332 196.577Z" fill="#263238"/>
<path id="Vector_6" d="M178.098 202.402C179.033 202.525 181.004 202.006 181.156 201.961C181.483 202.988 181.882 203.995 182.352 204.975C182.623 205.55 182.895 206.114 183.221 206.683C183.036 206.44 182.878 206.228 182.851 206.188C182.113 205.411 180.195 204.312 179.049 204.758C178.859 204.837 178.69 204.952 178.552 205.095C178.415 205.238 178.311 205.405 178.25 205.587C178.188 205.768 178.168 205.96 178.193 206.149C178.217 206.337 178.285 206.519 178.392 206.683C178.815 207.396 179.842 207.747 180.673 207.856C181.504 207.965 183.204 207.554 183.65 207.44L184.003 208.088C184.546 209.123 185.144 210.152 185.676 211.182C185.861 211.543 186.029 211.904 186.219 212.266L185.899 211.85C185.16 211.078 183.242 209.974 182.096 210.42C181.906 210.499 181.736 210.614 181.598 210.757C181.46 210.901 181.356 211.069 181.294 211.251C181.232 211.433 181.213 211.625 181.238 211.814C181.263 212.004 181.331 212.186 181.439 212.35C181.863 213.058 182.889 213.409 183.72 213.518C184.552 213.627 186.083 213.256 186.616 213.122C186.779 213.498 186.942 213.874 187.078 214.245C187.17 214.498 187.273 214.74 187.349 214.998C187.425 215.255 187.501 215.493 187.583 215.76C187.708 216.255 187.843 216.75 187.958 217.245C188.039 217.581 188.11 217.898 188.18 218.235C188.001 217.873 187.637 217.17 187.594 217.116C186.996 216.25 185.28 214.899 184.063 215.181C183.861 215.232 183.675 215.322 183.514 215.444C183.353 215.566 183.223 215.717 183.131 215.888C183.039 216.059 182.988 216.246 182.981 216.436C182.974 216.626 183.011 216.816 183.09 216.992C183.395 217.754 184.345 218.239 185.149 218.477C186.035 218.725 187.99 218.502 188.235 218.477C188.349 219.007 188.457 219.526 188.55 220.016C188.762 221.1 188.919 222.07 189.039 222.892H189.864C189.718 222.045 189.533 221.031 189.283 219.893C189.169 219.353 189.033 218.774 188.886 218.185C189.474 217.969 190.047 217.723 190.603 217.448C191.361 218.045 192.205 218.544 193.113 218.932C192.885 219.427 192.662 219.922 192.445 220.378C191.988 221.333 191.554 222.184 191.173 222.902H192.064C192.39 222.239 192.754 221.481 193.151 220.64C193.384 220.145 193.618 219.581 193.851 219.017C194.09 219.061 196.024 219.422 196.926 219.234C197.746 219.066 198.735 218.645 199.099 217.908C199.191 217.737 199.242 217.55 199.25 217.36C199.258 217.169 199.222 216.98 199.144 216.803C199.066 216.626 198.948 216.466 198.798 216.333C198.648 216.2 198.469 216.098 198.273 216.032C197.084 215.671 195.264 216.903 194.596 217.725C194.558 217.774 194.194 218.343 193.971 218.715C194.069 218.482 194.161 218.259 194.259 218.017C194.449 217.547 194.623 217.071 194.802 216.557C194.884 216.304 194.965 216.062 195.052 215.799C195.139 215.537 195.199 215.27 195.275 215.003C195.438 214.384 195.568 213.75 195.682 213.107C196.138 213.256 197.763 213.77 198.599 213.716C199.436 213.661 200.49 213.384 200.973 212.726C201.096 212.57 201.18 212.392 201.222 212.203C201.263 212.015 201.26 211.821 201.213 211.634C201.165 211.446 201.075 211.271 200.948 211.118C200.82 210.965 200.658 210.838 200.473 210.746C199.354 210.222 197.35 211.187 196.557 211.909C196.502 211.954 196.013 212.533 195.726 212.855C195.791 212.464 195.861 212.078 195.916 211.687C196.068 210.548 196.187 209.395 196.312 208.222C196.35 207.871 196.388 207.519 196.432 207.168C196.595 207.222 198.507 207.876 199.447 207.811C200.283 207.762 201.332 207.48 201.82 206.821C201.943 206.665 202.027 206.486 202.068 206.298C202.109 206.109 202.105 205.915 202.058 205.728C202.01 205.541 201.919 205.365 201.791 205.212C201.663 205.059 201.501 204.933 201.315 204.842C200.229 204.317 198.197 205.282 197.399 206.005C197.339 206.059 196.611 206.891 196.437 207.109C196.53 206.336 196.627 205.564 196.758 204.812C196.925 203.789 197.166 202.777 197.48 201.783C197.556 201.808 199.55 202.496 200.511 202.431C201.348 202.382 202.402 202.1 202.885 201.442C203.008 201.285 203.092 201.107 203.134 200.919C203.175 200.73 203.172 200.536 203.125 200.349C203.077 200.162 202.987 199.986 202.86 199.833C202.732 199.68 202.571 199.554 202.385 199.462C201.266 198.937 199.262 199.902 198.469 200.625C198.404 200.684 197.621 201.575 197.491 201.748C197.491 201.689 197.524 201.63 197.54 201.57C197.887 200.583 198.328 199.626 198.86 198.71C199.142 198.215 199.447 197.72 199.756 197.269C200.115 197.433 201.755 198.16 202.63 198.19C203.504 198.22 204.542 198.051 205.107 197.423C205.244 197.279 205.347 197.112 205.408 196.93C205.47 196.748 205.489 196.557 205.465 196.368C205.44 196.179 205.372 195.997 205.266 195.833C205.159 195.67 205.016 195.528 204.846 195.418C203.798 194.785 201.69 195.547 200.81 196.185C200.767 196.22 200.321 196.621 200.006 196.918C200.147 196.715 200.289 196.502 200.43 196.314C200.973 195.592 201.516 194.958 201.962 194.404C202.233 194.087 202.505 193.81 202.728 193.552C203.168 193.552 204.949 193.493 205.726 193.161C206.503 192.83 207.356 192.231 207.541 191.439C207.59 191.254 207.595 191.062 207.558 190.875C207.52 190.687 207.44 190.51 207.322 190.352C207.205 190.195 207.052 190.062 206.874 189.962C206.697 189.862 206.498 189.797 206.291 189.771C205.042 189.647 203.575 191.206 203.102 192.142C203.059 192.226 202.603 193.552 202.624 193.552H202.652C202.418 193.795 202.163 194.047 201.896 194.354C201.408 194.904 200.864 195.527 200.316 196.24C199.722 197.004 199.178 197.799 198.686 198.62C198.128 199.54 197.659 200.502 197.285 201.496C197.286 201.508 197.286 201.519 197.285 201.531C197.285 201.194 197.285 200.254 197.285 200.184C197.138 199.195 196.198 197.284 194.965 197.076C194.759 197.048 194.548 197.059 194.347 197.109C194.146 197.159 193.959 197.247 193.798 197.368C193.636 197.488 193.504 197.638 193.411 197.808C193.317 197.978 193.264 198.163 193.254 198.353C193.178 199.16 193.797 199.967 194.444 200.476C195.15 201.051 197.111 201.605 197.268 201.649C196.915 202.669 196.637 203.709 196.437 204.763C196.318 205.376 196.22 205.995 196.128 206.619C196.128 206.327 196.128 206.069 196.128 206.035C195.981 205.02 195.041 203.134 193.813 202.926C193.607 202.897 193.396 202.908 193.194 202.957C192.992 203.007 192.804 203.095 192.642 203.216C192.48 203.336 192.348 203.486 192.254 203.657C192.16 203.827 192.107 204.013 192.097 204.203C192.021 205.01 192.667 205.817 193.292 206.322C193.917 206.826 195.584 207.346 196.008 207.475L195.91 208.192C195.758 209.341 195.611 210.489 195.432 211.612C195.372 212.008 195.291 212.394 195.215 212.78C195.215 212.523 195.215 212.285 195.215 212.285C195.074 211.296 194.128 209.385 192.901 209.177C192.694 209.148 192.483 209.159 192.281 209.208C192.08 209.258 191.892 209.346 191.73 209.467C191.568 209.587 191.436 209.737 191.342 209.908C191.248 210.078 191.194 210.264 191.184 210.454C191.114 211.261 191.755 212.068 192.379 212.573C193.195 213.072 194.091 213.453 195.036 213.701C194.943 214.097 194.851 214.493 194.742 214.869C194.666 215.126 194.607 215.364 194.509 215.636C194.411 215.908 194.329 216.131 194.243 216.388C194.052 216.859 193.862 217.349 193.667 217.809C193.531 218.126 193.395 218.428 193.259 218.734C193.33 218.338 193.444 217.566 193.449 217.502C193.435 216.603 193.167 215.722 192.673 214.943C192.681 214.843 192.681 214.742 192.673 214.641C192.646 214.453 192.577 214.271 192.468 214.109C192.36 213.946 192.215 213.806 192.044 213.698C191.872 213.59 191.677 213.515 191.472 213.48C191.267 213.445 191.056 213.449 190.853 213.493C189.636 213.785 188.865 215.73 188.81 216.75C188.81 216.809 188.848 217.467 188.886 217.883C188.821 217.641 188.767 217.388 188.702 217.161C188.571 216.666 188.43 216.171 188.278 215.676C188.197 215.428 188.11 215.181 188.028 214.919C187.947 214.656 187.833 214.424 187.735 214.146C187.49 213.548 187.219 212.949 186.925 212.355C187.398 212.256 189.06 211.86 189.728 211.4C190.397 210.939 191.097 210.172 191.092 209.365C191.098 209.173 191.06 208.982 190.979 208.804C190.897 208.626 190.776 208.466 190.622 208.335C190.468 208.203 190.284 208.103 190.085 208.041C189.885 207.979 189.673 207.956 189.462 207.975C188.213 208.098 187.126 209.915 186.904 210.915C186.904 210.979 186.811 211.716 186.784 212.117C186.605 211.766 186.426 211.405 186.241 211.053C185.698 210.029 185.079 209.004 184.486 207.985C184.302 207.668 184.128 207.356 183.943 207.044C184.106 207.005 186.116 206.589 186.849 206.054C187.512 205.589 188.218 204.827 188.213 204.02C188.219 203.828 188.181 203.636 188.1 203.459C188.018 203.281 187.897 203.121 187.743 202.99C187.588 202.858 187.405 202.758 187.205 202.696C187.006 202.634 186.793 202.611 186.583 202.629C185.334 202.753 184.247 204.57 184.019 205.569C184.019 205.644 183.9 206.703 183.889 206.975C183.492 206.282 183.107 205.594 182.759 204.896C182.282 203.96 181.872 202.996 181.531 202.011C181.607 202.011 183.704 201.56 184.454 201.021C185.122 200.556 185.823 199.793 185.817 198.987C185.824 198.794 185.785 198.603 185.704 198.425C185.623 198.248 185.501 198.088 185.347 197.956C185.193 197.825 185.01 197.724 184.81 197.662C184.61 197.6 184.398 197.578 184.188 197.596C182.938 197.72 181.852 199.536 181.629 200.536C181.629 200.615 181.499 201.758 181.493 201.961C181.493 201.907 181.444 201.847 181.428 201.793C181.118 200.796 180.905 199.776 180.793 198.744C180.722 198.175 180.689 197.626 180.673 197.091C181.07 197.047 182.878 196.829 183.623 196.418C184.367 196.007 185.138 195.334 185.225 194.527C185.254 194.339 185.239 194.147 185.182 193.964C185.124 193.781 185.024 193.612 184.889 193.466C184.754 193.321 184.587 193.203 184.399 193.121C184.211 193.039 184.005 192.993 183.797 192.988C182.536 192.988 181.243 194.681 180.896 195.656C180.896 195.71 180.749 196.265 180.668 196.67C180.668 196.433 180.668 196.176 180.668 195.953C180.668 195.087 180.733 194.295 180.793 193.592C180.825 193.191 180.869 192.83 180.912 192.493C181.276 192.266 182.732 191.33 183.177 190.662C183.623 189.994 183.976 189.068 183.65 188.316C183.579 188.137 183.468 187.973 183.323 187.835C183.179 187.697 183.004 187.589 182.81 187.516C182.617 187.444 182.409 187.41 182.2 187.415C181.991 187.421 181.785 187.466 181.596 187.549C180.483 188.074 180.19 190.123 180.374 191.132C180.374 191.221 180.809 192.558 180.831 192.548C180.782 192.869 180.733 193.216 180.689 193.597C180.613 194.3 180.532 195.082 180.51 195.963C180.473 196.9 180.496 197.839 180.581 198.774C180.669 199.822 180.862 200.861 181.156 201.877C181.155 201.889 181.155 201.9 181.156 201.912C180.955 201.63 180.374 200.853 180.325 200.798C179.587 200.026 177.669 198.922 176.523 199.368C176.333 199.448 176.164 199.563 176.026 199.707C175.888 199.85 175.785 200.018 175.723 200.2C175.661 200.382 175.642 200.574 175.666 200.763C175.691 200.952 175.759 201.134 175.866 201.298C176.24 201.941 177.267 202.293 178.098 202.402Z" fill="#263238"/>
<path id="Vector_7" d="M199.664 197.017C199.664 197.017 200.06 195.681 200.077 195.596C200.229 194.607 199.876 192.538 198.746 192.043C198.555 191.965 198.349 191.924 198.14 191.923C197.931 191.923 197.724 191.962 197.533 192.039C197.342 192.116 197.17 192.229 197.03 192.37C196.89 192.512 196.784 192.678 196.72 192.859C196.415 193.617 196.801 194.552 197.263 195.191C197.79 195.948 199.658 197.017 199.664 197.017Z" fill="#263238"/>
<path id="Vector_8" d="M152.605 201.615C153.347 201.792 154.114 201.869 154.881 201.843C154.881 201.843 154.533 200.877 154.506 200.823C154.153 200.145 153.029 199.031 152.116 199.14C151.965 199.162 151.82 199.213 151.691 199.29C151.563 199.366 151.454 199.467 151.371 199.585C151.289 199.703 151.234 199.835 151.212 199.973C151.19 200.112 151.2 200.253 151.242 200.387C151.359 200.669 151.541 200.925 151.776 201.137C152.012 201.348 152.294 201.511 152.605 201.615Z" fill="#263238"/>
<path id="Vector_9" d="M153.164 205.876C153.924 205.871 154.678 205.763 155.403 205.555C155.64 206.307 155.932 207.045 156.277 207.762C156.48 208.178 156.692 208.594 156.913 209.009C156.782 208.831 156.663 208.678 156.641 208.658C156.098 208.089 154.702 207.282 153.854 207.614C153.716 207.671 153.592 207.755 153.491 207.859C153.39 207.963 153.314 208.086 153.269 208.218C153.223 208.351 153.209 208.491 153.226 208.629C153.244 208.767 153.293 208.9 153.371 209.019C153.563 209.264 153.812 209.468 154.1 209.616C154.388 209.764 154.709 209.853 155.039 209.875C155.776 209.878 156.509 209.776 157.211 209.573L157.472 210.068C157.89 210.826 158.309 211.553 158.694 212.33C158.83 212.593 158.955 212.86 159.08 213.127C158.966 212.969 158.863 212.84 158.847 212.82C158.303 212.256 156.902 211.449 156.06 211.776C155.92 211.833 155.796 211.917 155.694 212.022C155.593 212.126 155.517 212.249 155.471 212.382C155.426 212.516 155.411 212.656 155.429 212.795C155.448 212.933 155.498 213.067 155.576 213.186C155.769 213.431 156.019 213.634 156.307 213.782C156.595 213.93 156.915 214.019 157.244 214.043C157.963 214.047 158.678 213.948 159.363 213.751C159.482 214.028 159.602 214.3 159.705 214.572C159.77 214.76 159.846 214.934 159.9 215.127C159.955 215.32 160.014 215.498 160.069 215.686C160.167 216.042 160.264 216.413 160.346 216.765C160.406 217.007 160.46 217.26 160.509 217.477C160.378 217.21 160.107 216.696 160.08 216.656C159.64 216.022 158.385 215.033 157.494 215.24C157.347 215.278 157.21 215.344 157.092 215.433C156.975 215.522 156.88 215.633 156.812 215.759C156.745 215.884 156.708 216.02 156.703 216.16C156.697 216.299 156.725 216.438 156.782 216.567C156.934 216.835 157.147 217.07 157.408 217.255C157.668 217.441 157.97 217.572 158.292 217.641C159.04 217.745 159.8 217.745 160.547 217.641C160.634 218.032 160.715 218.413 160.78 218.769C160.932 219.561 161.052 220.254 161.139 220.878H161.736C161.633 220.254 161.492 219.512 161.313 218.68C161.226 218.284 161.128 217.864 161.019 217.428C161.451 217.271 161.872 217.091 162.28 216.889C162.833 217.323 163.449 217.686 164.11 217.967C163.947 218.334 163.784 218.695 163.627 219.027C163.29 219.724 162.975 220.348 162.693 220.878H163.366C163.611 220.383 163.871 219.833 164.148 219.22C164.317 218.848 164.491 218.448 164.659 218.032C165.397 218.19 166.157 218.243 166.913 218.19C167.242 218.141 167.554 218.026 167.829 217.855C168.104 217.684 168.335 217.461 168.505 217.2C168.573 217.075 168.611 216.939 168.617 216.8C168.624 216.66 168.597 216.521 168.54 216.392C168.483 216.262 168.397 216.145 168.287 216.048C168.177 215.952 168.046 215.877 167.902 215.829C167.027 215.562 165.697 216.463 165.186 217.067C165.159 217.101 164.893 217.517 164.73 217.784C164.8 217.616 164.871 217.453 164.941 217.289C165.077 216.948 165.208 216.597 165.343 216.22C165.403 216.037 165.468 215.854 165.528 215.666C165.588 215.478 165.637 215.28 165.691 215.087C165.811 214.632 165.908 214.166 165.99 213.696C166.673 213.942 167.392 214.093 168.125 214.142C168.456 214.142 168.783 214.076 169.083 213.948C169.384 213.821 169.65 213.635 169.863 213.404C169.951 213.29 170.012 213.16 170.041 213.023C170.071 212.886 170.068 212.745 170.033 212.609C169.998 212.473 169.932 212.345 169.839 212.234C169.746 212.123 169.628 212.031 169.494 211.964C168.679 211.583 167.212 212.291 166.631 212.815C166.593 212.85 166.223 213.271 166.022 213.508C166.071 213.226 166.12 212.944 166.158 212.652C166.272 211.82 166.359 210.979 166.452 210.138C166.479 209.875 166.506 209.618 166.538 209.366C167.244 209.622 167.987 209.78 168.744 209.836C169.075 209.834 169.402 209.766 169.702 209.638C170.002 209.51 170.268 209.324 170.482 209.093C170.57 208.979 170.63 208.85 170.659 208.713C170.687 208.577 170.684 208.436 170.649 208.301C170.614 208.165 170.549 208.038 170.456 207.927C170.364 207.817 170.247 207.725 170.113 207.658C169.298 207.272 167.831 207.98 167.25 208.509C167.201 208.549 166.669 209.158 166.544 209.316C166.609 208.752 166.68 208.188 166.778 207.633C166.906 206.884 167.087 206.144 167.321 205.416C168.03 205.682 168.779 205.848 169.542 205.911C169.873 205.909 170.2 205.842 170.499 205.714C170.798 205.586 171.063 205.4 171.275 205.169C171.364 205.055 171.425 204.925 171.455 204.788C171.484 204.651 171.482 204.51 171.448 204.374C171.413 204.238 171.348 204.11 171.255 203.999C171.163 203.888 171.046 203.795 170.911 203.728C170.091 203.347 168.624 204.055 168.043 204.585C168 204.624 167.424 205.277 167.332 205.401C167.332 205.362 167.332 205.317 167.37 205.273C167.62 204.55 167.941 203.849 168.331 203.179C168.538 202.808 168.76 202.461 168.988 202.13C169.648 202.45 170.356 202.677 171.091 202.803C171.42 202.833 171.752 202.799 172.065 202.701C172.379 202.604 172.665 202.446 172.905 202.239C173.01 202.134 173.089 202.01 173.137 201.875C173.184 201.74 173.2 201.597 173.182 201.457C173.164 201.316 173.113 201.18 173.032 201.059C172.952 200.938 172.843 200.834 172.715 200.754C171.943 200.289 170.401 200.848 169.76 201.313C169.727 201.338 169.401 201.63 169.168 201.848C169.271 201.699 169.38 201.546 169.483 201.407C169.868 200.878 170.254 200.417 170.602 200.006L171.145 199.383C171.881 199.389 172.613 199.294 173.318 199.101C173.627 198.992 173.906 198.822 174.135 198.604C174.364 198.386 174.537 198.125 174.643 197.839C174.681 197.704 174.686 197.563 174.66 197.426C174.633 197.289 174.575 197.158 174.49 197.043C174.404 196.927 174.293 196.83 174.163 196.756C174.033 196.683 173.888 196.635 173.736 196.616C172.818 196.527 171.732 197.67 171.395 198.353C171.395 198.413 171.031 199.388 171.053 199.388C170.879 199.571 170.694 199.764 170.509 199.977C170.156 200.378 169.754 200.833 169.352 201.358C168.918 201.918 168.517 202.5 168.152 203.1C167.76 203.764 167.431 204.458 167.169 205.174V205.198C167.169 204.956 167.169 204.268 167.169 204.208C167.06 203.466 166.376 202.09 165.474 201.937C165.323 201.914 165.168 201.921 165.02 201.957C164.872 201.993 164.734 202.057 164.615 202.145C164.496 202.232 164.398 202.342 164.329 202.467C164.26 202.591 164.221 202.728 164.214 202.867C164.227 203.168 164.312 203.463 164.463 203.732C164.614 204 164.828 204.235 165.088 204.421C165.726 204.8 166.421 205.09 167.152 205.282C166.895 206.028 166.694 206.789 166.549 207.559C166.462 208.01 166.386 208.46 166.321 208.92C166.321 208.707 166.321 208.514 166.321 208.49C166.213 207.747 165.528 206.366 164.626 206.218C164.475 206.195 164.32 206.202 164.171 206.238C164.023 206.275 163.884 206.339 163.765 206.427C163.646 206.516 163.549 206.626 163.48 206.751C163.411 206.876 163.373 207.013 163.366 207.153C163.378 207.455 163.462 207.75 163.614 208.019C163.765 208.288 163.979 208.523 164.241 208.707C164.856 209.079 165.53 209.362 166.24 209.549C166.24 209.722 166.191 209.9 166.169 210.073C166.055 210.915 165.952 211.756 165.816 212.578C165.773 212.865 165.713 213.152 165.658 213.434C165.658 213.246 165.658 213.087 165.658 213.063C165.555 212.32 164.871 210.939 163.964 210.786C163.812 210.764 163.658 210.772 163.51 210.808C163.362 210.845 163.225 210.909 163.106 210.998C162.988 211.086 162.891 211.196 162.823 211.321C162.754 211.446 162.715 211.582 162.709 211.721C162.722 212.023 162.807 212.318 162.958 212.586C163.109 212.855 163.323 213.09 163.583 213.276C164.181 213.639 164.837 213.917 165.528 214.097C165.457 214.389 165.392 214.676 165.311 214.953C165.256 215.141 165.213 215.33 165.142 215.513L164.947 216.067C164.806 216.413 164.67 216.77 164.523 217.106C164.425 217.339 164.328 217.557 164.23 217.779C164.279 217.492 164.36 216.928 164.366 216.879C164.361 216.223 164.174 215.58 163.822 215.008C163.833 214.934 163.833 214.859 163.822 214.785C163.804 214.647 163.753 214.514 163.674 214.394C163.595 214.275 163.489 214.173 163.364 214.093C163.238 214.014 163.095 213.959 162.945 213.934C162.795 213.908 162.64 213.911 162.492 213.944C161.606 214.161 161.041 215.582 160.998 216.329C160.998 216.374 161.025 216.854 161.052 217.161C161.009 216.983 160.965 216.809 160.916 216.631C160.824 216.275 160.721 215.918 160.607 215.532C160.547 215.354 160.487 215.166 160.422 214.978C160.357 214.79 160.281 214.602 160.21 214.414C160.036 213.973 159.83 213.538 159.618 213.102C160.338 212.967 161.03 212.732 161.671 212.404C161.945 212.237 162.176 212.017 162.348 211.761C162.521 211.505 162.631 211.218 162.671 210.92C162.675 210.78 162.647 210.642 162.589 210.513C162.53 210.384 162.442 210.268 162.331 210.172C162.22 210.076 162.087 210.003 161.943 209.957C161.798 209.911 161.645 209.893 161.492 209.905C160.579 209.994 159.781 211.321 159.618 212.053C159.618 212.103 159.553 212.637 159.531 212.934C159.401 212.677 159.27 212.414 159.129 212.152C158.722 211.405 158.282 210.667 157.847 209.91L157.45 209.222C158.193 209.079 158.909 208.838 159.574 208.504C159.849 208.338 160.081 208.119 160.254 207.862C160.426 207.606 160.536 207.318 160.574 207.02C160.578 206.881 160.55 206.742 160.492 206.614C160.434 206.485 160.347 206.369 160.236 206.274C160.125 206.178 159.994 206.105 159.85 206.058C159.706 206.012 159.553 205.994 159.401 206.005C158.483 206.094 157.689 207.421 157.527 208.153C157.527 208.212 157.434 208.985 157.429 209.182C157.141 208.688 156.858 208.193 156.603 207.663C156.251 206.978 155.95 206.272 155.701 205.55C156.45 205.408 157.172 205.164 157.842 204.827C158.117 204.661 158.349 204.442 158.522 204.186C158.695 203.929 158.804 203.641 158.841 203.342C158.846 203.202 158.819 203.063 158.761 202.934C158.702 202.804 158.615 202.687 158.503 202.591C158.392 202.495 158.259 202.421 158.114 202.375C157.969 202.329 157.815 202.311 157.662 202.323C156.75 202.417 155.957 203.743 155.788 204.476C155.788 204.535 155.696 205.367 155.69 205.52C155.677 205.476 155.66 205.433 155.642 205.391C155.415 204.661 155.261 203.914 155.18 203.159C155.126 202.743 155.104 202.343 155.087 201.957C155.835 201.893 156.568 201.726 157.26 201.462C157.554 201.323 157.812 201.128 158.014 200.889C158.217 200.651 158.36 200.375 158.434 200.081C158.455 199.942 158.444 199.802 158.402 199.668C158.359 199.533 158.286 199.409 158.187 199.302C158.088 199.196 157.966 199.109 157.827 199.049C157.689 198.989 157.538 198.956 157.385 198.952C156.467 198.952 155.517 200.19 155.267 200.902C155.267 200.942 155.158 201.348 155.098 201.65C155.098 201.471 155.098 201.288 155.098 201.12C155.098 200.487 155.142 199.908 155.185 199.393C155.212 199.101 155.245 198.834 155.278 198.591C155.871 198.219 156.4 197.768 156.848 197.255C157.038 197.008 157.167 196.727 157.227 196.43C157.286 196.134 157.273 195.829 157.19 195.537C157.139 195.406 157.059 195.285 156.953 195.184C156.848 195.082 156.72 195.002 156.579 194.949C156.437 194.896 156.285 194.87 156.132 194.874C155.979 194.879 155.828 194.912 155.69 194.973C154.876 195.359 154.658 196.859 154.794 197.596C154.794 197.661 155.115 198.64 155.131 198.631C155.098 198.868 155.06 199.126 155.028 199.403C154.973 199.898 154.914 200.496 154.897 201.135C154.873 201.82 154.891 202.506 154.952 203.189C155.018 203.956 155.158 204.716 155.37 205.461C155.37 205.461 155.37 205.461 155.37 205.485C155.223 205.277 154.8 204.708 154.762 204.669C154.218 204.105 152.817 203.298 151.969 203.624C151.83 203.682 151.705 203.766 151.604 203.87C151.502 203.975 151.426 204.098 151.381 204.231C151.335 204.364 151.321 204.505 151.339 204.643C151.357 204.782 151.407 204.915 151.486 205.035C151.682 205.278 151.933 205.479 152.223 205.624C152.513 205.77 152.834 205.856 153.164 205.876Z" fill="#263238"/>
<path id="Vector_10" d="M168.945 201.937C168.945 201.937 169.238 200.947 169.249 200.892C169.363 200.155 169.102 198.66 168.271 198.294C168.132 198.237 167.981 198.208 167.829 198.208C167.676 198.207 167.525 198.236 167.386 198.293C167.247 198.349 167.122 198.432 167.02 198.535C166.918 198.639 166.841 198.761 166.794 198.893C166.719 199.186 166.716 199.491 166.783 199.786C166.851 200.081 166.988 200.358 167.185 200.6C167.697 201.122 168.29 201.572 168.945 201.937Z" fill="#263238"/>
</g>
<g id="Magnifiers">
<path id="Vector_11" d="M198.898 28.8497C198.446 30.4783 198.561 32.1947 199.228 33.7609C199.894 35.3271 201.08 36.6654 202.619 37.5902C204.158 38.5149 205.975 38.9804 207.818 38.9218C209.66 38.8633 211.437 38.2837 212.902 37.2635L216.341 40.2628C216.252 40.5896 216.259 40.9317 216.36 41.2555C216.461 41.5792 216.653 41.8734 216.916 42.1089L224.386 48.7756C224.586 48.9527 224.823 49.0921 225.082 49.1858C225.342 49.2796 225.619 49.3258 225.899 49.3219C226.178 49.318 226.453 49.264 226.71 49.1631C226.966 49.0621 227.198 48.9162 227.392 48.7335C227.587 48.5509 227.74 48.3352 227.843 48.0986C227.946 47.8621 227.996 47.6095 227.992 47.3551C227.988 47.1007 227.928 46.8496 227.818 46.6161C227.707 46.3826 227.547 46.1712 227.346 45.9941L219.861 39.3224C219.591 39.086 219.258 38.9186 218.894 38.8369C218.531 38.7552 218.15 38.7622 217.791 38.8572L214.428 35.9074C215.24 35.0014 215.822 33.9436 216.134 32.8092C216.42 31.778 216.479 30.7058 216.31 29.6536C216.14 28.6015 215.745 27.5901 215.146 26.6771C214.548 25.7641 213.758 24.9675 212.822 24.3327C211.885 23.6979 210.821 23.2374 209.689 22.9774C208.557 22.7174 207.38 22.6631 206.225 22.8175C205.071 22.9719 203.961 23.3321 202.959 23.8774C201.957 24.4227 201.082 25.1424 200.385 25.9956C199.689 26.8488 199.183 27.8186 198.898 28.8497V28.8497ZM214.591 32.4429C214.239 33.7179 213.48 34.8692 212.41 35.751C211.339 36.6328 210.006 37.2055 208.578 37.3969C207.151 37.5882 205.693 37.3894 204.389 36.8258C203.085 36.2621 201.994 35.3588 201.254 34.2302C200.514 33.1016 200.158 31.7983 200.231 30.4852C200.303 29.1721 200.802 27.9082 201.663 26.8533C202.525 25.7985 203.71 25 205.069 24.559C206.429 24.1179 207.901 24.0541 209.301 24.3756C211.175 24.8077 212.785 25.8998 213.777 27.4123C214.769 28.9247 215.062 30.734 214.591 32.4429Z" stroke="#263238" stroke-miterlimit="10"/>
<path id="Vector_12" d="M34.6238 126.93C33.2764 127.224 32.0626 127.892 31.1506 128.842C30.2386 129.792 29.6736 130.977 29.5339 132.233C29.3943 133.489 29.6868 134.753 30.371 135.85C31.0553 136.948 32.0973 137.824 33.3526 138.358L32.3531 141.491C32.083 141.55 31.8347 141.672 31.6326 141.846C31.4306 142.02 31.282 142.239 31.2015 142.481L28.8928 149.345C28.7791 149.717 28.8289 150.115 29.0317 150.454C29.2346 150.793 29.5744 151.047 29.9792 151.162C30.3876 151.265 30.8242 151.22 31.1964 151.035C31.5686 150.85 31.8471 150.541 31.9729 150.172L34.2652 143.307C34.3468 143.061 34.3545 142.8 34.2876 142.55C34.2208 142.3 34.0817 142.071 33.885 141.887L34.8736 138.808C35.8547 138.992 36.8686 138.973 37.8404 138.752C38.8122 138.531 39.7171 138.114 40.4879 137.531C41.2588 136.948 41.876 136.215 42.2939 135.386C42.7118 134.556 42.9196 133.652 42.9021 132.739C42.8846 131.827 42.6421 130.93 42.1926 130.114C41.7432 129.299 41.0982 128.586 40.3054 128.028C39.5126 127.47 38.5923 127.082 37.6126 126.892C36.6329 126.702 35.6189 126.715 34.6455 126.93H34.6238ZM37.4376 137.72C36.3819 137.948 35.2754 137.887 34.2581 137.542C33.2408 137.198 32.3584 136.587 31.7225 135.786C31.0866 134.984 30.7258 134.029 30.6856 133.041C30.6454 132.053 30.9278 131.077 31.4969 130.235C32.066 129.393 32.8964 128.724 33.8829 128.312C34.8695 127.9 35.9679 127.764 37.0394 127.921C38.1108 128.078 39.1071 128.521 39.9022 129.194C40.6973 129.867 41.2555 130.739 41.5063 131.701C41.8417 132.988 41.6042 134.343 40.8459 135.471C40.0875 136.599 38.87 137.407 37.4593 137.72H37.4376Z" stroke="#263238" stroke-miterlimit="10"/>
</g>
<g id="Messages">
<path id="Vector_13" d="M215.732 81.3176H199.979C198.956 81.3176 197.975 81.6879 197.252 82.3469C196.528 83.0059 196.122 83.8997 196.122 84.8316V92.7752C196.122 93.7072 196.528 94.601 197.252 95.26C197.975 95.919 198.956 96.2892 199.979 96.2892H210.952L210.409 101.239L215.515 96.2892H215.732C216.239 96.2892 216.74 96.1983 217.208 96.0217C217.676 95.8452 218.101 95.5863 218.459 95.26C218.818 94.9337 219.102 94.5463 219.296 94.12C219.489 93.6936 219.589 93.2367 219.589 92.7752V84.8316C219.589 84.3702 219.489 83.9132 219.296 83.4869C219.102 83.0605 218.818 82.6732 218.459 82.3469C218.101 82.0205 217.676 81.7617 217.208 81.5851C216.74 81.4085 216.239 81.3176 215.732 81.3176V81.3176Z" stroke="#263238" stroke-miterlimit="10"/>
<path id="Vector_14" d="M35.7645 100.125H46.4387C46.7819 100.125 47.1216 100.186 47.4386 100.306C47.7556 100.426 48.0437 100.601 48.2863 100.822C48.5289 101.043 48.7214 101.306 48.8527 101.594C48.984 101.883 49.0516 102.193 49.0516 102.505V107.885C49.0516 108.198 48.984 108.507 48.8527 108.796C48.7214 109.085 48.5289 109.348 48.2863 109.569C48.0437 109.79 47.7556 109.965 47.4386 110.085C47.1216 110.204 46.7819 110.266 46.4387 110.266H39.0075L39.3932 113.612L35.9112 110.266H35.7645C35.0715 110.266 34.4069 110.015 33.9169 109.569C33.4269 109.122 33.1516 108.517 33.1516 107.885V102.505C33.1516 101.874 33.4269 101.268 33.9169 100.822C34.4069 100.376 35.0715 100.125 35.7645 100.125Z" stroke="#263238" stroke-miterlimit="10"/>
<path id="Vector_15" d="M114.667 9.43384H125.341C126.034 9.43384 126.699 9.68465 127.189 10.1311C127.679 10.5776 127.954 11.1831 127.954 11.8144V17.1943C127.954 17.8257 127.679 18.4312 127.189 18.8777C126.699 19.3241 126.034 19.5749 125.341 19.5749H117.91L118.295 22.9207L114.813 19.5749H114.667C113.974 19.5749 113.309 19.3241 112.819 18.8777C112.329 18.4312 112.054 17.8257 112.054 17.1943V11.8144C112.054 11.1831 112.329 10.5776 112.819 10.1311C113.309 9.68465 113.974 9.43384 114.667 9.43384V9.43384Z" stroke="#263238" stroke-miterlimit="10"/>
</g>
<g id="Connections">
<path id="Vector_16" d="M100.163 20.3618L126.281 86.8605L182.368 21.4111" stroke="#263238" stroke-miterlimit="10"/>
<path id="Vector_17" d="M204.645 63.762L126.281 86.8603L178.908 140.758" stroke="#263238" stroke-miterlimit="10"/>
<path id="Vector_18" d="M65.9728 138.66L126.281 86.8607L44.0757 74.2598" stroke="#263238" stroke-miterlimit="10"/>
<path id="Vector_19" d="M211.351 67.3261C213.386 63.7856 211.884 59.413 207.998 57.5597C204.112 55.7064 199.313 57.0742 197.279 60.6147C195.245 64.1552 196.746 68.5278 200.632 70.3811C204.518 72.2344 209.317 70.8666 211.351 67.3261Z" fill="#263238" stroke="#263238" stroke-width="0.5" stroke-miterlimit="10"/>
<path id="Vector_20" d="M206.943 63.4702H201.766C201.281 63.4702 200.815 63.6459 200.472 63.9587C200.128 64.2715 199.935 64.6958 199.935 65.1381V69.0976C201.201 69.997 202.762 70.4801 204.367 70.4685C205.971 70.4568 207.525 69.9509 208.774 69.0332V65.1381C208.774 64.6958 208.581 64.2715 208.237 63.9587C207.894 63.6459 207.428 63.4702 206.943 63.4702Z" fill="#5F0A61" stroke="#263238" stroke-miterlimit="10"/>
<path id="Vector_21" d="M204.265 62.7425C204.786 62.7425 205.295 62.6017 205.729 62.3379C206.162 62.0742 206.5 61.6993 206.699 61.2607C206.898 60.822 206.951 60.3394 206.849 59.8738C206.747 59.4081 206.496 58.9804 206.128 58.6447C205.759 58.309 205.29 58.0804 204.779 57.9878C204.268 57.8952 203.738 57.9427 203.257 58.1244C202.775 58.3061 202.364 58.6137 202.074 59.0085C201.785 59.4032 201.63 59.8673 201.63 60.3421C201.63 60.9787 201.908 61.5892 202.402 62.0394C202.896 62.4896 203.566 62.7425 204.265 62.7425Z" fill="#5F0A61" stroke="#263238" stroke-miterlimit="10"/>
<path id="Vector_22" d="M187.04 140.981C188.733 137.295 186.826 133.056 182.78 131.513C178.734 129.97 174.081 131.708 172.388 135.394C170.695 139.081 172.602 143.32 176.648 144.863C180.694 146.405 185.347 144.668 187.04 140.981Z" fill="#263238" stroke="#263238" stroke-width="0.5" stroke-miterlimit="10"/>
<path id="Vector_23" d="M182.379 137.71H177.202C176.962 137.709 176.724 137.752 176.502 137.835C176.28 137.918 176.078 138.041 175.908 138.195C175.738 138.35 175.603 138.533 175.511 138.735C175.419 138.937 175.371 139.154 175.371 139.373V143.332C176.636 144.232 178.198 144.715 179.803 144.703C181.407 144.691 182.96 144.186 184.209 143.268V139.373C184.209 139.154 184.162 138.937 184.07 138.735C183.978 138.533 183.843 138.35 183.673 138.195C183.503 138.041 183.301 137.918 183.079 137.835C182.857 137.752 182.619 137.709 182.379 137.71Z" fill="#5F0A61" stroke="#263238" stroke-miterlimit="10"/>
<path id="Vector_24" d="M179.663 136.977C180.184 136.977 180.693 136.837 181.126 136.573C181.56 136.309 181.897 135.934 182.097 135.496C182.296 135.057 182.348 134.574 182.247 134.109C182.145 133.643 181.894 133.215 181.526 132.88C181.157 132.544 180.688 132.315 180.177 132.223C179.666 132.13 179.136 132.178 178.654 132.359C178.173 132.541 177.762 132.849 177.472 133.243C177.183 133.638 177.028 134.102 177.028 134.577C177.028 134.892 177.096 135.204 177.229 135.496C177.361 135.787 177.555 136.051 177.8 136.274C178.044 136.497 178.335 136.674 178.654 136.795C178.974 136.915 179.317 136.977 179.663 136.977Z" fill="#5F0A61" stroke="#263238" stroke-miterlimit="10"/>
<path id="Vector_25" d="M99.8206 25.034C102.935 25.034 105.459 22.7339 105.459 19.8966C105.459 17.0594 102.935 14.7593 99.8206 14.7593C96.7065 14.7593 94.182 17.0594 94.182 19.8966C94.182 22.7339 96.7065 25.034 99.8206 25.034Z" fill="#263238" stroke="#263238" stroke-width="0.5" stroke-miterlimit="10"/>
<path id="Vector_26" d="M101.689 19.575H98.0171C97.6728 19.575 97.3426 19.6996 97.0991 19.9214C96.8556 20.1432 96.7188 20.4441 96.7188 20.7578V23.5344C97.617 24.1704 98.7242 24.5119 99.8617 24.5038C100.999 24.4957 102.1 24.1385 102.988 23.4898V20.7331C102.98 20.4237 102.841 20.1291 102.598 19.9126C102.355 19.6961 102.029 19.5749 101.689 19.575Z" fill="#5F0A61" stroke="#263238" stroke-miterlimit="10"/>
<path id="Vector_27" d="M99.8097 19.0304C100.179 19.0304 100.541 18.9305 100.848 18.7434C101.155 18.5563 101.395 18.2904 101.536 17.9793C101.678 17.6682 101.715 17.3259 101.642 16.9957C101.57 16.6654 101.392 16.362 101.131 16.1239C100.87 15.8858 100.537 15.7237 100.174 15.658C99.8118 15.5923 99.4361 15.626 99.0946 15.7548C98.7532 15.8837 98.4613 16.1019 98.256 16.3819C98.0507 16.6619 97.9411 16.9911 97.9411 17.3278C97.9411 17.7793 98.1379 18.2124 98.4884 18.5317C98.8388 18.851 99.3141 19.0304 99.8097 19.0304Z" fill="#5F0A61" stroke="#263238" stroke-miterlimit="10"/>
<path id="Vector_28" d="M70.3115 139.798C71.5107 137.18 70.1531 134.171 67.2792 133.079C64.4053 131.986 61.1033 133.223 59.9041 135.841C58.7048 138.46 60.0624 141.468 62.9363 142.561C65.8103 143.654 69.1122 142.417 70.3115 139.798Z" fill="#263238" stroke="#263238" stroke-width="0.5" stroke-miterlimit="10"/>
<path id="Vector_29" d="M66.9777 137.472H63.3056C63.1342 137.472 62.9643 137.502 62.8058 137.562C62.6473 137.621 62.5033 137.708 62.3821 137.819C62.2609 137.929 62.1649 138.061 62.0997 138.205C62.0344 138.349 62.0012 138.504 62.0019 138.66V141.467C62.8993 142.106 64.0081 142.45 65.1475 142.442C66.2869 142.434 67.3897 142.074 68.276 141.422V138.66C68.2767 138.504 68.2437 138.35 68.1788 138.206C68.1138 138.062 68.0183 137.931 67.8977 137.821C67.7771 137.71 67.6337 137.623 67.4758 137.563C67.318 137.503 67.1487 137.472 66.9777 137.472Z" fill="#5F0A61" stroke="#263238" stroke-miterlimit="10"/>
<path id="Vector_30" d="M65.0765 136.952C65.4461 136.952 65.8074 136.853 66.1147 136.666C66.422 136.478 66.6615 136.213 66.8029 135.901C66.9443 135.59 66.9814 135.248 66.9093 134.918C66.8371 134.588 66.6592 134.284 66.3978 134.046C66.1365 133.808 65.8035 133.646 65.4411 133.58C65.0786 133.514 64.7028 133.548 64.3614 133.677C64.0199 133.806 63.7281 134.024 63.5228 134.304C63.3174 134.584 63.2078 134.913 63.2078 135.25C63.2078 135.701 63.4047 136.135 63.7551 136.454C64.1056 136.773 64.5809 136.952 65.0765 136.952Z" fill="#5F0A61" stroke="#263238" stroke-miterlimit="10"/>
<path id="Vector_31" d="M187.513 21.3907C188.647 18.7483 187.215 15.7685 184.315 14.7351C181.415 13.7017 178.144 15.006 177.01 17.6484C175.876 20.2908 177.308 23.2706 180.208 24.304C183.108 25.3374 186.379 24.0331 187.513 21.3907Z" fill="#263238" stroke="#263238" stroke-width="0.5" stroke-miterlimit="10"/>
<path id="Vector_32" d="M184.144 19.1741H180.467C180.296 19.1741 180.127 19.2047 179.97 19.2641C179.812 19.3236 179.669 19.4107 179.549 19.5205C179.428 19.6304 179.332 19.7608 179.267 19.9043C179.202 20.0478 179.168 20.2016 179.168 20.357V23.1682C180.067 23.8045 181.175 24.1462 182.314 24.1382C183.452 24.1301 184.554 23.7727 185.442 23.1236V20.357C185.442 20.2016 185.409 20.0478 185.344 19.9043C185.278 19.7608 185.183 19.6304 185.062 19.5205C184.942 19.4107 184.799 19.3236 184.641 19.2641C184.483 19.2047 184.315 19.1741 184.144 19.1741Z" fill="#5F0A61" stroke="#263238" stroke-miterlimit="10"/>
<path id="Vector_33" d="M182.243 18.6544C182.613 18.6544 182.974 18.5545 183.281 18.3674C183.588 18.1804 183.828 17.9145 183.969 17.6034C184.111 17.2923 184.148 16.9499 184.076 16.6197C184.004 16.2894 183.826 15.986 183.564 15.7479C183.303 15.5098 182.97 15.3477 182.607 15.282C182.245 15.2163 181.869 15.25 181.528 15.3789C181.186 15.5077 180.895 15.726 180.689 16.0059C180.484 16.2859 180.374 16.6151 180.374 16.9518C180.374 17.4034 180.571 17.8364 180.922 18.1557C181.272 18.475 181.747 18.6544 182.243 18.6544Z" fill="#5F0A61" stroke="#263238" stroke-miterlimit="10"/>
<path id="Vector_34" d="M52.8658 76.6782C55.0762 71.9059 52.622 66.4046 47.3841 64.3907C42.1462 62.3768 36.1081 64.6129 33.8977 69.3851C31.6873 74.1574 34.1416 79.6587 39.3795 81.6727C44.6173 83.6866 50.6554 81.4505 52.8658 76.6782Z" fill="#263238" stroke="#263238" stroke-width="0.5" stroke-miterlimit="10"/>
<path id="Vector_35" d="M46.7972 72.3987H40.0885C39.4598 72.3987 38.8569 72.6259 38.4118 73.0304C37.9668 73.435 37.7161 73.9838 37.7146 74.5566V79.684C39.3547 80.8466 41.3773 81.4712 43.4552 81.4568C45.5332 81.4425 47.5451 80.79 49.1656 79.6048V74.5566C49.1656 73.9843 48.9161 73.4354 48.4719 73.0307C48.0278 72.626 47.4254 72.3987 46.7972 72.3987Z" fill="#5F0A61" stroke="#263238" stroke-miterlimit="10"/>
<path id="Vector_36" d="M43.3152 71.4485C43.9899 71.4485 44.6495 71.2662 45.2105 70.9247C45.7715 70.5831 46.2087 70.0977 46.4669 69.5298C46.7251 68.9618 46.7927 68.3369 46.6611 67.734C46.5294 67.131 46.2045 66.5772 45.7274 66.1425C45.2503 65.7079 44.6425 65.4118 43.9807 65.2919C43.319 65.172 42.6331 65.2335 42.0097 65.4688C41.3864 65.704 40.8536 66.1024 40.4787 66.6135C40.1039 67.1247 39.9038 67.7256 39.9038 68.3403C39.9038 69.1647 40.2632 69.9552 40.903 70.5381C41.5427 71.121 42.4104 71.4485 43.3152 71.4485Z" fill="#5F0A61" stroke="#263238" stroke-miterlimit="10"/>
</g>
<g id="Clouds">
<path id="Vector_37" d="M76.8697 35.7293C76.8697 35.6996 76.8697 35.6699 76.8697 35.6402C76.7157 34.3559 76.1604 33.1387 75.2697 32.1333C74.379 31.1279 73.1904 30.3765 71.8449 29.9683C70.4795 29.5461 69.0052 29.5133 67.6187 29.8743C67.9256 28.9245 68.0307 27.93 67.9283 26.9443C67.7266 24.9731 66.7098 23.1456 65.0839 21.8322C63.4581 20.5188 61.3449 19.8178 59.1729 19.8713C57.0008 19.9248 54.9323 20.7288 53.3867 22.1203C51.8411 23.5119 50.9342 25.3868 50.8496 27.365C50.7247 27.365 50.5997 27.365 50.4748 27.365C48.2028 27.365 46.0239 28.1873 44.4173 29.6511C42.8108 31.1148 41.9083 33.1 41.9083 35.1701C41.9061 35.869 42.0085 36.565 42.2125 37.2389C42.4999 38.1438 43.1038 38.9385 43.9323 39.5022C44.7608 40.0659 45.7687 40.3677 46.8026 40.3619H72.1057C72.7597 40.3647 73.4073 40.2445 74.008 40.0088C74.6086 39.7732 75.1495 39.4271 75.5966 38.9923C76.0438 38.5575 76.3877 38.0432 76.6067 37.4818C76.8258 36.9203 76.9153 36.3237 76.8697 35.7293V35.7293Z" stroke="#263238" stroke-miterlimit="10"/>
<path id="Vector_38" d="M206.823 114.953C206.821 114.936 206.821 114.92 206.823 114.903C206.741 114.209 206.441 113.55 205.96 113.006C205.478 112.462 204.835 112.056 204.107 111.835C203.37 111.606 202.574 111.589 201.826 111.785C201.994 111.272 202.053 110.735 202 110.202C201.919 109.116 201.381 108.101 200.498 107.369C199.615 106.637 198.456 106.245 197.262 106.274C196.069 106.304 194.934 106.753 194.096 107.527C193.258 108.302 192.781 109.342 192.765 110.429H192.564C191.337 110.431 190.162 110.875 189.295 111.666C188.428 112.457 187.941 113.529 187.941 114.646C187.943 115.022 187.997 115.396 188.104 115.76C188.258 116.249 188.583 116.68 189.031 116.985C189.478 117.291 190.022 117.455 190.581 117.452H204.238C204.592 117.456 204.943 117.392 205.269 117.266C205.595 117.14 205.889 116.954 206.132 116.719C206.375 116.484 206.561 116.206 206.68 115.902C206.8 115.598 206.848 115.275 206.823 114.953V114.953Z" stroke="#263238" stroke-miterlimit="10"/>
<path id="Vector_39" d="M86.7182 153.092C86.7182 153.092 86.7182 153.062 86.7182 153.047C86.6363 152.352 86.3367 151.693 85.8551 151.149C85.3735 150.605 84.7303 150.199 84.0021 149.979C83.2651 149.75 82.4688 149.733 81.7206 149.929C81.8871 149.416 81.9442 148.878 81.889 148.345C81.7728 147.322 81.2537 146.372 80.4278 145.67C79.6019 144.969 78.5251 144.564 77.3966 144.53C76.1838 144.503 75.0081 144.912 74.1237 145.669C73.2394 146.425 72.7174 147.469 72.6706 148.573H72.4696C71.8617 148.572 71.2595 148.681 70.6977 148.893C70.1358 149.104 69.6253 149.415 69.1954 149.807C68.7655 150.198 68.4246 150.664 68.1923 151.175C67.9599 151.687 67.8407 152.236 67.8414 152.79C67.8418 153.166 67.8984 153.541 68.0098 153.904C68.1622 154.394 68.4871 154.825 68.9346 155.131C69.3821 155.437 69.9275 155.6 70.4869 155.596H84.1379C84.4921 155.599 84.8432 155.535 85.1688 155.408C85.4945 155.281 85.7879 155.094 86.0303 154.859C86.2727 154.624 86.459 154.345 86.5774 154.041C86.6958 153.737 86.7438 153.414 86.7182 153.092V153.092Z" stroke="#263238" stroke-miterlimit="10"/>
<path id="Vector_40" d="M164.453 24.1728C164.455 24.1581 164.455 24.143 164.453 24.1283C164.372 23.4329 164.073 22.7734 163.591 22.2291C163.109 21.6848 162.465 21.2788 161.736 21.0597C161 20.8291 160.204 20.8101 159.455 21.0053C159.624 20.4941 159.681 19.9577 159.623 19.4264C159.543 18.3412 159.005 17.3263 158.122 16.5943C157.239 15.8623 156.079 15.4699 154.886 15.4993C153.693 15.5288 152.558 15.9777 151.72 16.7521C150.881 17.5266 150.404 18.5665 150.389 19.6541H150.188C149.476 19.6557 148.775 19.8064 148.138 20.0947C147.501 20.383 146.945 20.801 146.514 21.3164C146.083 21.8319 145.787 22.4308 145.651 23.0669C145.515 23.703 145.541 24.3591 145.728 24.9845C145.882 25.4741 146.207 25.9044 146.654 26.21C147.101 26.5155 147.646 26.6796 148.205 26.6772H161.861C162.217 26.6822 162.569 26.6197 162.897 26.4937C163.224 26.3677 163.519 26.181 163.763 25.9453C164.007 25.7097 164.194 25.4304 164.313 25.1253C164.431 24.8201 164.479 24.4957 164.453 24.1728V24.1728Z" stroke="#263238" stroke-miterlimit="10"/>
</g>
<g id="earth globe">
<path id="Vector_41" d="M167.654 123.539C190.707 102.535 190.707 68.481 167.654 47.4771C144.601 26.4731 107.224 26.4731 84.171 47.4771C61.1178 68.481 61.1178 102.535 84.171 123.539C107.224 144.543 144.601 144.543 167.654 123.539Z" fill="white" stroke="#263238" stroke-miterlimit="10"/>
<path id="Vector_42" d="M123.787 60.6095L129.393 62.906L130.931 65.2025L133.457 66.0983L133.734 68.5235L132.756 69.9241L130.795 70.3102L126.59 68.7759V68.2809L128.97 67.3851L128.133 64.7076L124.331 63.4306L122.652 61.3866L123.787 60.6095ZM159.096 119.58L154.615 117.922L149.15 116.136H144.804L140.741 115.368L136.254 116.259L133.734 116.388H132.196L129.252 117.922L126.427 118.942L122.625 116.774L123.603 113.196L121.223 112.305H118.42L118.002 111.157L118.279 108.855L117.301 107.583L115.34 107.836L114.797 109.113L112.418 109.241L110.316 106.945L109.474 103.881L111.576 100.303L115.639 100.56L116.764 101.456H118.442L120.544 100.303L122.364 100.798L124.885 104.757L125.868 104.629L125.585 101.694L124.798 100.179L125.075 97.754L130.257 95.7099L130.958 90.9883L133.201 89.3253L135.021 86.3904L136.423 86.138L139.644 84.2226L139.785 83.2031L137.547 83.3268L137.123 82.3072H135.586L133.201 82.8022L134.32 81.1441L139.209 79.8672L140.328 78.719L142.289 81.5252L143.555 82.6735L145.516 82.1786L144.674 80.5205L141.73 78.6052L138.367 75.1407L134.869 72.9679L131.506 72.473L129.822 70.9437L127.579 70.4487L127.302 70.9437L127.019 74.6457L127.563 75.9177L126.302 80.0058L123.51 77.9766L123.929 76.1899L120.995 74.9031L119.724 73.5222L120.425 70.3349L124.488 67.6524L124.771 64.5888L123.228 64.7175L122.245 63.5692L121.826 61.6538L120.843 61.5252L120.3 63.5692L118.763 63.8216L118.062 59.3673L116.921 58.6744L114.96 57.9072L112.722 58.9268L115.52 61.3519L116.063 63.5247L111.016 60.0602L107.513 56.5957L107.236 53.1312L103.612 52.1809L100.809 53.8439C100.134 54.2164 99.4376 54.5568 98.7233 54.8634C97.6174 55.1036 96.4935 55.269 95.3608 55.3583L94.8176 57.5311L91.5963 57.6548L91.8788 59.0604L97.0611 59.8276L99.7228 62.5051V66.9595L98.1801 70.9189L98.4626 75.1308L94.5405 81.3817L93.6986 90.7012L94.9208 96.091L96.7406 100.179L98.8428 100.432L98.1421 98.3924L97.023 96.8581L96.3223 94.0519L97.5826 93.7945L99.5436 98.3924L100.945 102.476V105.792L103.607 108.731L108.371 111.919L115.655 113.71L117.899 115.621L119.577 117.665L122.103 119.071L125.183 119.833L128.263 119.709C128.263 119.709 128.128 120.986 128.128 121.624C128.128 122.263 126.167 124.431 126.167 124.431L124.629 126.975L125.748 129.781L128.834 130.929L133.18 135.017L135.141 135.779V137.695L135.385 138.586C146.282 136.981 156.462 132.615 164.762 125.985L164.838 125.059L168.641 118.803L166.821 117.655L159.096 119.58ZM173.687 69.1619L172.145 66.7318L170.183 63.9256L169.64 60.0948L172.161 60.4809L172.302 59.2039L170.477 59.0753L172.02 58.4368L173.704 57.5459V56.269L172.02 54.225L171.661 51.4781C163.52 42.4001 152.346 35.9935 139.841 33.2329C127.336 30.4723 114.184 31.5088 102.385 36.1848L105.611 38.2684L103.612 40.5649L100.951 41.0598L100.673 44.5243L99.549 44.9054L98.1475 46.3011L98.2887 48.5976L100.673 48.855L99.6902 51.0228H102.075L106.133 46.3011L106.557 44.2571L110.479 44.0047L111.456 42.4704L115.52 42.0893L115.943 39.9166L118.882 39.7928C118.882 39.7928 120.984 38.7683 121.408 38.7683C122.217 38.9285 123.012 39.1418 123.787 39.4068L125.89 40.9411H128.834L131.354 39.5355L134.576 39.7928C135.039 40.0674 135.568 40.2371 136.118 40.2878C136.819 40.2878 138.921 39.3919 138.921 39.3919L142.979 41.6884L144.663 42.8416V44.752L146.765 45.0094L147.466 43.8611L149.286 44.6283L149.145 45.6478L144.946 46.6674L147.325 49.4786L152.366 52.0324L154.468 54.5813L157.554 54.8387L158.254 53.5618L159.373 53.3044L155.728 50.7555L153.49 50.4981L155.31 50.0032L153.632 47.8305L156.011 47.7067L159.091 49.2361L159.792 52.2997L161.334 53.9577L162.595 57.6598L165.68 59.7038V63.9157L168.901 65.831L168.76 67.2366L168.342 68.8947L169.179 71.1911L169.461 72.3394L171.84 72.7254L172.965 70.5527L173.687 69.1619ZM175.507 56.2938V57.0263L174.774 59.0753L175.192 60.862L176.735 61.3569V63.782L175.056 63.1436L174.643 70.0577L172.965 72.864L174.084 76.4423L175.904 77.9717V84.866L177.729 90.2261L179.69 94.3093L182.911 95.0764L184.03 92.5226L184.486 92.1959C184.79 89.9778 184.942 87.7447 184.943 85.5094C184.96 75.1437 181.675 64.9963 175.485 56.2987L175.507 56.2938ZM143.142 55.4969L133.907 51.7949L129.844 51.9235L128.866 54.3487L127.182 52.6857L124.102 53.3242L123.82 57.541L126.34 59.199L128.166 56.7738L130.23 58.6744L134.576 62.1389L135.418 65.8409L139.057 70.0528L144.946 69.1619L144.804 67.2465L143.544 65.0738L143.267 59.9711L144.669 57.7983L143.142 55.4969ZM150.709 58.3032L148.607 57.8082L146.787 59.2138L147.765 62.9159H149.59L150.709 58.3032ZM163.746 60.7283L158.982 58.4319L157.999 56.9025L156.88 57.2836L157.858 59.8375L158.7 63.1535L160.802 63.9206L161.22 63.4257L159.96 61.5103L163.605 62.7872L163.746 60.7283ZM122.837 106.811L122.293 107.306L126.498 108.454L128.182 110.241L130.844 110.498L131.822 109.093L128.6 108.598L122.837 106.811ZM135.331 109.236L132.386 110.003L132.81 111.023H136.45L137.15 110.003L135.89 110.127L135.331 109.236Z" fill="#5F0A61" stroke="#263238" stroke-miterlimit="10"/>
</g>
<g id="Character">
<path id="Vector_43" d="M167.712 152.216C167.662 153.608 167.846 154.998 168.255 156.339C168.902 158.22 169.543 159.987 170.189 160.694C170.835 161.402 171.873 160.224 170.966 158.809C170.059 157.393 170.58 155.869 171.096 155.869C171.612 155.869 175.746 158.22 176.392 159.046C177.039 159.873 178.978 161.991 178.978 160.576C178.978 159.16 176.007 156.22 175.491 155.394C174.975 154.567 172.128 151.038 172.128 151.038L167.712 152.216Z" fill="white" stroke="#263238" stroke-linejoin="round"/>
<path id="Vector_44" d="M169.543 147.856L172.128 151.038L167.218 153.508L164.893 150.919L169.543 147.856Z" fill="#5F0A61" stroke="#263238" stroke-linejoin="round"/>
<path id="Vector_45" d="M142.148 213.79C142.148 213.79 140.209 217.675 139.432 218.739C138.655 219.804 138.009 220.269 136.716 220.506C135.423 220.744 133.228 220.977 133.228 221.917C133.244 222.501 133.431 223.07 133.772 223.565C133.772 223.565 139.845 224.743 141.92 224.273C143.995 223.803 146.054 221.209 146.054 221.209L147.347 221.917L151.095 218.621C150.859 217.463 150.417 216.347 149.786 215.319C148.623 213.201 147.977 211.672 147.977 211.672C147.977 211.672 145.119 213.79 142.148 213.79Z" fill="#616161" stroke="#263238" stroke-linejoin="round"/>
<path id="Vector_46" d="M150.269 216.295C148.911 217.458 145.771 220.254 144.913 220.942C143.827 221.818 141.599 223.57 139.894 223.57C138.666 223.57 135.238 223.12 133.375 222.862C133.458 223.107 133.575 223.342 133.723 223.56C133.723 223.56 139.796 224.738 141.871 224.268C143.946 223.798 146.005 221.204 146.005 221.204L147.298 221.912L151.046 218.616C150.903 217.814 150.642 217.033 150.269 216.295Z" stroke="#263238" stroke-linejoin="round"/>
<path id="Vector_47" d="M132.071 198.131C132.071 198.131 134.527 202.837 136.96 205.663C139.394 208.489 142.126 214.849 142.126 214.849C142.126 214.849 144.326 215.557 145.875 214.493C146.859 213.762 147.58 212.78 147.944 211.672C147.944 211.672 144.842 202.956 143.68 199.19C142.517 195.423 139.671 187.178 138.378 185.178C137.399 183.706 136.329 182.285 135.173 180.922C135.173 180.922 133.75 188.692 133.104 191.632C132.457 194.572 132.071 198.131 132.071 198.131Z" fill="#263238" stroke="#263238" stroke-linejoin="round"/>
<path id="Vector_48" d="M120.566 143.971L120.696 151.503C120.696 151.503 118.524 165.401 120.311 172.464C122.098 179.526 124.961 187.312 124.961 187.312C124.961 187.312 123.543 200.264 123.021 203.441C122.5 206.619 120.305 212.627 120.305 212.627C120.305 212.627 124.054 214.394 124.7 214.394H125.993C125.993 214.394 129.866 204.857 130.643 203.441C131.42 202.026 134.13 199.323 135.037 193.434C135.945 187.544 136.205 181.417 136.205 181.417C136.205 181.417 142.664 173.879 144.218 171.518C145.771 169.158 148.221 164.332 148.221 164.332C148.221 164.332 151.068 157.621 150.677 151.147C150.285 144.673 148.096 141.377 148.096 141.377C148.096 141.377 135.428 144.084 129.486 144.084C123.543 144.084 120.566 143.971 120.566 143.971Z" fill="#263238" stroke="#263238" stroke-linejoin="round"/>
<path id="Vector_49" d="M123.863 101.684C123.863 101.684 126.373 103.97 125.993 104.767C125.613 105.564 119.105 105.91 117.725 107.395C116.345 108.88 110.457 127.717 110.457 127.717C110.457 127.717 103.438 125.886 102.814 125.43C102.189 124.975 101.434 125.317 101.059 126.687C100.684 128.058 96.9253 131.142 97.4251 131.939C97.9248 132.735 104.818 135.819 108.202 136.621C110.263 137.104 112.36 137.446 114.477 137.645L113.977 143.47C113.977 143.47 120.365 146.782 132.772 145.297C145.179 143.812 150.329 141.417 150.329 141.417L148.83 129.657C148.83 129.657 156.978 143.584 158.352 145.99C159.727 148.395 161.481 151.929 162.986 152.384C164.491 152.84 169.879 149.642 170.004 148.276C170.129 146.91 165.496 140.283 161.856 134.577C158.216 128.87 153.208 112.77 152.458 109.335C151.709 105.9 149.699 103.055 147.569 102.599C145.44 102.144 139.676 102.139 137.167 101.684C134.657 101.228 131.153 97.4619 129.524 92.666L123.863 101.684Z" fill="#5F0A61" stroke="#263238" stroke-miterlimit="10"/>
<path id="Vector_50" d="M119.366 112.31C120.001 111.083 120.49 110.246 120.49 110.246" stroke="#263238" stroke-miterlimit="10"/>
<path id="Vector_51" d="M114.477 137.645C114.477 137.645 115.981 122.921 116.606 119.383C117.001 117.632 117.604 115.926 118.404 114.295" stroke="#263238" stroke-miterlimit="10"/>
<path id="Vector_52" d="M144.663 116.16C144.478 115.349 144.305 114.552 144.163 113.785" stroke="#263238" stroke-miterlimit="10"/>
<path id="Vector_53" d="M148.802 129.657C148.802 129.657 146.722 124.04 145.217 118.368" stroke="#263238" stroke-miterlimit="10"/>
<path id="Vector_54" d="M122.625 105.747C123.228 106.925 125.162 109.306 131.023 109.212C137.938 109.108 140.98 104.757 142.099 102.109C140.446 102.048 138.797 101.903 137.161 101.674C134.657 101.219 131.148 97.4521 129.518 92.6562L123.863 101.684C123.863 101.684 126.373 103.97 125.993 104.767C125.819 105.138 124.309 105.416 122.625 105.747Z" fill="white" stroke="#263238" stroke-miterlimit="10"/>
<path id="Vector_55" d="M128.551 95.9177L126.846 96.9076L123.863 101.669C124.573 102.319 125.204 103.037 125.743 103.812C128.551 100.768 128.551 95.9177 128.551 95.9177Z" fill="#263238" stroke="#263238" stroke-linejoin="round"/>
<path id="Vector_56" d="M109.332 90.8449C109.332 90.8449 111.712 94.6113 112.336 96.3238C113.252 98.4223 114.996 100.133 117.225 101.12C119.48 102.03 120.61 102.832 122.614 102.946C125.488 103.109 127.622 99.4072 128.752 96.5514C129.882 93.6957 129.882 93.2404 129.882 93.2404C129.882 93.2404 131.631 90.8449 131.631 88.3307C131.631 85.8164 128.502 82.9656 124.993 81.4809C121.484 79.9961 119.105 77.8283 115.471 80.7978C111.837 83.7674 109.332 90.8449 109.332 90.8449Z" fill="white" stroke="#263238" stroke-miterlimit="10"/>
<path id="Vector_57" d="M115.596 94.4922C115.862 95.1535 116.03 95.8443 116.095 96.5461C116.095 97.3479 117.225 97.6894 118.225 95.977" stroke="#263238" stroke-miterlimit="10"/>
<path id="Vector_58" d="M118.475 98.2689C118.475 98.2689 121.609 98.7242 122.234 95.2993" stroke="#263238" stroke-miterlimit="10"/>
<path id="Vector_59" d="M119.116 90.533C119.409 90.9883 119.42 91.4783 119.116 91.6317C118.811 91.7851 118.366 91.5327 118.073 91.0774C117.779 90.622 117.774 90.1271 118.073 89.9786C118.371 89.8302 118.822 90.0776 119.116 90.533Z" fill="#263238"/>
<path id="Vector_60" d="M114.058 92.8244C114.352 93.2798 114.363 93.7747 114.058 93.9232C113.754 94.0716 113.309 93.8242 113.021 93.3688C112.733 92.9135 112.717 92.4186 113.021 92.2701C113.325 92.1216 113.77 92.3592 114.058 92.8244Z" fill="#263238"/>
<path id="Vector_61" d="M115.525 89.0089C115.525 89.0089 116.068 87.2172 119.594 87.4548" stroke="#263238" stroke-miterlimit="10"/>
<path id="Vector_62" d="M112.896 90.8052C112.896 90.8052 110.929 90.8052 111.06 92.2405" stroke="#263238" stroke-miterlimit="10"/>
<path id="Vector_63" d="M118.35 82.619C118.35 82.619 116.72 84.3315 114.841 86.0439C112.961 87.7564 109.832 90.2706 109.832 93.3491C109.832 96.4275 109.957 96.774 109.957 96.774C109.957 96.774 104.568 94.2647 103.064 90.8348C101.559 87.405 104.943 79.5307 109.077 75.987C113.211 72.4433 118.1 71.7652 123.489 72.1067C128.877 72.4482 134.266 77.3579 135.646 82.2676C137.026 87.1773 134.266 92.5423 133.386 93.453C132.506 94.3637 129.752 94.4825 129.752 94.4825C130.34 92.7462 130.47 90.9081 130.132 89.1174C129.502 86.4894 127.747 87.0635 127.498 88.2018C127.248 89.3402 127.123 89.8004 127.123 89.8004C127.123 89.8004 124.618 88.2018 121.984 86.4894C120.434 85.4987 119.184 84.1674 118.35 82.619Z" fill="#263238" stroke="#263238" stroke-linejoin="round"/>
<path id="Vector_64" d="M94.546 128.747L97.9248 124.178L99.5544 125.663L94.546 128.747Z" fill="#5F0A61" stroke="#263238" stroke-linejoin="round"/>
<path id="Vector_65" d="M106.491 122.011L98.6201 122.04L91.1183 108.875L98.9895 108.845L106.491 122.011Z" fill="#263238" stroke="#263238" stroke-linejoin="round"/>
<path id="Vector_66" d="M92.4166 115.27C92.4166 115.27 94.421 116.982 94.546 117.784C94.6709 118.586 95.6704 121.664 96.1756 123.149C96.6808 124.634 98.5549 126.232 98.5549 126.232L100.185 124.748L99.5544 122.233C100.155 121.748 100.783 121.291 101.434 120.862C102.189 120.407 103.064 119.15 102.564 119.15C102.184 119.161 101.806 119.2 101.434 119.269C101.434 119.269 102.564 117.67 101.814 117.556C101.317 117.483 100.814 117.443 100.31 117.438C100.31 117.438 101.559 116.072 100.559 115.953C99.5599 115.834 96.0453 117.551 96.0453 117.551L94.546 115.493C94.2262 115.326 93.8725 115.22 93.5064 115.182C93.1403 115.143 92.7695 115.173 92.4166 115.27Z" fill="white" stroke="#263238" stroke-linejoin="round"/>
<path id="Vector_67" d="M92.8294 114.517C92.7221 114.602 92.6428 114.712 92.6006 114.835C92.5584 114.959 92.5548 115.09 92.5904 115.216C92.626 115.341 92.6993 115.454 92.802 115.543C92.9047 115.632 93.0328 115.694 93.1716 115.72C93.4023 115.794 93.6502 115.812 93.891 115.773C94.1318 115.734 94.3574 115.639 94.546 115.497C95.1707 114.814 97.6749 112.988 97.6749 112.072C97.6749 111.157 96.5504 112.186 96.0453 112.419C94.9155 113.042 93.8404 113.743 92.8294 114.517Z" fill="white" stroke="#263238" stroke-linejoin="round"/>
<path id="Vector_68" d="M100.31 117.438C100.31 117.438 96.5505 119.15 95.9203 119.838" stroke="#263238" stroke-linejoin="round"/>
<path id="Vector_69" d="M101.439 119.269C101.439 119.269 98.4354 120.521 97.4305 121.55" stroke="#263238" stroke-linejoin="round"/>
<path id="Vector_70" d="M101.684 125.317L99.9347 123.946L94.546 128.742L98.1801 131.256C98.1801 131.256 101.559 128.286 101.684 125.317Z" fill="#5F0A61" stroke="#263238" stroke-linejoin="round"/>
<path id="Vector_71" d="M136.336 151.86C136.336 151.86 130.518 164.337 129.225 169.539C127.932 174.74 125.477 184.609 125.477 185.198" stroke="#757575" stroke-linejoin="round"/>
<path id="Vector_72" d="M127.932 155.394L131.295 158.922" stroke="#757575" stroke-linejoin="round"/>
<path id="Vector_73" d="M120.311 212.261C120.311 212.261 119.534 213.79 115.786 214.493C112.038 215.196 108.55 213.909 107.904 214.023C107.257 214.137 106.611 215.201 106.611 216.146C106.611 217.091 111.136 219.675 112.945 220.502C114.386 221.06 115.911 221.417 117.47 221.561H118.111L117.986 222.739C119.036 223.12 120.114 223.434 121.213 223.679C122.199 223.812 123.202 223.812 124.189 223.679C124.582 222.173 124.799 220.634 124.836 219.086C124.924 217.468 125.317 215.876 125.998 214.379L120.311 212.261Z" fill="#616161" stroke="#263238" stroke-linejoin="round"/>
<path id="Vector_74" d="M124.58 221.838C122.033 221.536 117.334 220.848 114.482 219.858C111.462 218.819 108.078 216.7 106.643 215.76C106.622 215.883 106.611 216.007 106.611 216.131C106.611 217.072 111.136 219.66 112.945 220.487C114.386 221.045 115.911 221.402 117.47 221.546H118.111L117.986 222.724C119.036 223.105 120.114 223.419 121.213 223.664C122.199 223.797 123.202 223.797 124.189 223.664C124.189 223.664 124.396 222.912 124.58 221.838Z" stroke="#263238" stroke-linejoin="round"/>
</g>
</g>
</svg>
